<svg id="shopping_bag_black_24dp" xmlns="http://www.w3.org/2000/svg" xmlns:xlink="http://www.w3.org/1999/xlink" width="250" height="250" viewBox="0 0 250 250">
  <defs>
    <clipPath id="clip-path">
      <path id="Path_3556" data-name="Path 3556" d="M321.287,203.624c-3.218-4.828-10.9-6.255-16.973-8.222s-9.65-5.873-8.04-15.54,9.984-25.372,9.826-28.232-28.943-2.678-31.627-1.762-3.213.711-5.715,3.929A44.538,44.538,0,0,0,265,159.3l3.1-6.519h.229a8.223,8.223,0,0,1,1.415-2.349,18.06,18.06,0,0,0,4.376-11.359c.117-6.149-4.258-5.556-5.086-3.665s-5.673,8.4-7.095,10.172-4.376,6.625-4.376,6.625l-3.283,11.382s-.717,3.395-4.828,16.263-2.32,18.8-2.32,18.8-1.075-.534-3.577,7.148-1.427,17.508,3.036,22.153,10.366,4.469,16.979,1.791a20.327,20.327,0,0,0,9.65-8.61,38.585,38.585,0,0,0,12.151-5.715c5.18-3.953,9.109-8.04,16.627-7.682s16.081,4.646,18.941,4.464S324.505,208.446,321.287,203.624Z" transform="translate(-242.241 -134.11)" fill="#fff" stroke="#263238" stroke-linecap="round" stroke-linejoin="round" stroke-width="1"/>
    </clipPath>
  </defs>
  <rect id="Rectangle_71" data-name="Rectangle 71" width="250" height="250" fill="none"/>
  <g id="New_message-bro" data-name="New message-bro" transform="translate(13.514 19.987)">
    <g id="freepik--background-simple--inject-6" transform="translate(11.78)">
      <path id="Path_3519" data-name="Path 3519" d="M269.2,146.69a218.888,218.888,0,0,0-5.5-22.459c-6.7-21.372-20.022-43-42.909-50.268-16.9-5.362-35.133-1.662-49.411,9.268-22.394,17.138-38.692,40.525-63.195,55.366-20.456,12.4-31.163,32.425-24.285,60.734s29.853,44.8,55,42.8c20.9-1.686,42.745.117,60.81,10.26,16.145,9.062,44.671,1.175,68.269-23.581,13.749-14.43,12.416-32.778,7.935-49.922C273.136,168.268,271.339,157.438,269.2,146.69Z" transform="translate(-81.818 -71.534)" fill="#4b57d6"/>
      <path id="Path_3520" data-name="Path 3520" d="M269.2,146.69a218.888,218.888,0,0,0-5.5-22.459c-6.7-21.372-20.022-43-42.909-50.268-16.9-5.362-35.133-1.662-49.411,9.268-22.394,17.138-38.692,40.525-63.195,55.366-20.456,12.4-31.163,32.425-24.285,60.734s29.853,44.8,55,42.8c20.9-1.686,42.745.117,60.81,10.26,16.145,9.062,44.671,1.175,68.269-23.581,13.749-14.43,12.416-32.778,7.935-49.922C273.136,168.268,271.339,157.438,269.2,146.69Z" transform="translate(-81.818 -71.534)" fill="#fff" opacity="0.7"/>
    </g>
    <g id="freepik--Shadow--inject-6" transform="translate(0 203.378)">
      <path id="Path_3521" data-name="Path 3521" d="M284.733,421.144c0,1.832-49.922,3.324-111.484,3.324S61.76,422.977,61.76,421.144s49.922-3.324,111.489-3.324S284.733,419.312,284.733,421.144Z" transform="translate(-61.76 -417.82)" fill="#4b57d6"/>
      <path id="Path_3522" data-name="Path 3522" d="M284.733,421.144c0,1.832-49.922,3.324-111.484,3.324S61.76,422.977,61.76,421.144s49.922-3.324,111.489-3.324S284.733,419.312,284.733,421.144Z" transform="translate(-61.76 -417.82)" fill="#fff" opacity="0.3"/>
    </g>
    <g id="freepik--Plants--inject-6" transform="translate(15.223 80.425)">
      <path id="Path_3523" data-name="Path 3523" d="M403.916,308.681c0,.029,1.509-1.556,1.592-1.668.957-1.28,2.056-4.323,1.016-5.785a2.12,2.12,0,0,0-3.142-.27,4.456,4.456,0,0,0-1.092,3.571A15.264,15.264,0,0,0,403.916,308.681Z" transform="translate(-217.509 -246.402)" fill="#4b57d6"/>
      <path id="Path_3524" data-name="Path 3524" d="M393.641,291.1c-1.468-1.028-4.5.094-5.773,1.057-.112.088-1.686,1.592-1.656,1.6h.035c-.482.176-.993.364-1.551.587-1.022.411-2.173.893-3.395,1.492a39.781,39.781,0,0,0-3.841,2.138,27.607,27.607,0,0,0-3.911,2.972.279.279,0,0,0-.041.041c.258-.452.946-1.762.987-1.856.587-1.492.84-4.7-.546-5.844a2.126,2.126,0,0,0-3.107.587,4.447,4.447,0,0,0-.106,3.729,13.964,13.964,0,0,0,2.637,3.524,37.153,37.153,0,0,0-3.383,3.694c-.587.758-1.2,1.539-1.762,2.349.211-.4.4-.764.417-.816.587-1.486.84-4.7-.546-5.844a2.12,2.12,0,0,0-3.1.587,4.433,4.433,0,0,0-.112,3.724,14.231,14.231,0,0,0,2.549,3.453l-.687.9c-1.057,1.474-2.1,2.937-3.177,4.358-.376.5-.764.981-1.175,1.457.188-.358.346-.658.364-.7.587-1.492.84-4.7-.546-5.873a2.12,2.12,0,0,0-3.107.587A4.425,4.425,0,0,0,359,312.74a13.24,13.24,0,0,0,2.461,3.365c-.411.482-.822.957-1.245,1.4-.294.3-.552.587-.869.887l-.9.846c-.587.517-1.175,1.057-1.791,1.55-.411.347-.8.664-1.175.987.376-.487,1.1-1.468,1.175-1.556a8.222,8.222,0,0,0,.963-4.041,2.785,2.785,0,0,0,.2-.423,2.126,2.126,0,0,0-1.4-2.831c-1.762-.429-4.17,1.7-5.01,3.066-.047.082-.493,1.01-.758,1.6.1-.37.211-.734.311-1.116.211-.758.4-1.521.587-2.349.082-.4.17-.8.258-1.21s.141-.84.217-1.263c.147-.987.253-1.991.341-3.007a13.082,13.082,0,0,0,4.217.587,4.523,4.523,0,0,0,3.236-1.85,2.114,2.114,0,0,0-.957-3.007c-1.656-.693-4.375,1.051-5.415,2.267-.065.076-.711,1.034-1.057,1.568.047-.587.094-1.222.123-1.844.07-1.762.094-3.6.123-5.409,0-.552,0-1.1.035-1.656a14.751,14.751,0,0,0,4.364.652,4.434,4.434,0,0,0,3.242-1.85,2.126,2.126,0,0,0-.963-3.007c-1.65-.687-4.375,1.057-5.415,2.273-.076.088-1,1.468-1.228,1.832.029-1.216.07-2.432.159-3.624a38.084,38.084,0,0,1,.646-4.8c.112,0,3.031.869,4.393.658a4.422,4.422,0,0,0,3.236-1.85,2.126,2.126,0,0,0-.957-3.007c-1.656-.687-4.381,1.051-5.415,2.273-.07.076-.781,1.128-1.1,1.633l-.094-.035a27.114,27.114,0,0,1,1.509-4.634c.341-.828.711-1.6,1.092-2.349a13.608,13.608,0,0,0,4.193,1.1,4.42,4.42,0,0,0,3.424-1.486,2.126,2.126,0,0,0-.622-3.1c-1.568-.863-4.469.587-5.632,1.662-.065.059-.64.734-1.057,1.233.176-.329.352-.675.529-.993.658-1.175,1.327-2.232,1.932-3.154.347-.517.67-.981.981-1.415a14.214,14.214,0,0,0,4.211-.951,4.371,4.371,0,0,0,2.349-2.9,2.114,2.114,0,0,0-1.979-2.455c-1.791-.047-3.7,2.555-4.229,4.064-.047.135-.529,2.255-.5,2.249h.041q-.458.587-.969,1.339c-.628.91-1.327,1.944-2.009,3.119a38.173,38.173,0,0,0-2.026,3.9,28.193,28.193,0,0,0-1.627,4.64.176.176,0,0,1,0,.059c0-.523-.176-1.985-.2-2.1-.329-1.562-1.9-4.393-3.677-4.569a2.12,2.12,0,0,0-2.279,2.185,4.429,4.429,0,0,0,1.968,3.166,14.531,14.531,0,0,0,4.152,1.5,38.176,38.176,0,0,0-.781,4.951c-.088.969-.153,1.944-.206,2.937-.041-.452-.082-.857-.094-.91-.335-1.568-1.9-4.393-3.682-4.575a2.12,2.12,0,0,0-2.279,2.185,4.451,4.451,0,0,0,1.967,3.172,14.31,14.31,0,0,0,4.029,1.474c0,.376-.035.752-.047,1.128-.07,1.809-.129,3.618-.241,5.386-.041.623-.106,1.239-.164,1.85-.035-.4-.076-.74-.082-.787-.335-1.568-1.9-4.393-3.682-4.575a2.12,2.12,0,0,0-2.279,2.185,4.44,4.44,0,0,0,1.967,3.172,13.045,13.045,0,0,0,3.911,1.445c-.076.628-.159,1.257-.264,1.856-.082.411-.129.816-.235,1.222l-.282,1.175c-.211.758-.417,1.545-.64,2.279-.153.511-.305,1-.458,1.492.047-.623.112-1.838.106-1.944-.088-1.592-1.21-4.628-2.937-5.074a2.12,2.12,0,0,0-2.578,1.815,4.42,4.42,0,0,0,1.462,3.43,16,16,0,0,0,3.853,2.108c-.258.81-.511,1.592-.764,2.349-.875,2.555-1.7,4.651-2.29,6.108a.364.364,0,0,1-.065.147l1.069.587c.035-.094.076-.188.112-.288.587-1.486,1.357-3.624,2.179-6.226.264-.822.529-1.7.793-2.614a22.794,22.794,0,0,0,2.7.176,15.532,15.532,0,0,0,2.015,3.735c-.658.534-1.3,1.051-1.921,1.527-2.138,1.65-3.982,2.937-5.286,3.829l-.153.106,1.175.646c1.269-.91,2.937-2.173,4.916-3.747.669-.54,1.38-1.134,2.1-1.762a14.613,14.613,0,0,0,3.677,2.408,4.434,4.434,0,0,0,3.712-.323,2.12,2.12,0,0,0,.388-3.13c-1.21-1.321-4.411-.881-5.873-.211-.082.041-.963.587-1.515.916.294-.253.587-.493.875-.758.587-.511,1.175-1.045,1.8-1.621l.881-.863c.3-.288.587-.623.881-.934.67-.74,1.31-1.521,1.938-2.32A13.915,13.915,0,0,0,366,318.561a4.476,4.476,0,0,0,3.724.241,2.126,2.126,0,0,0,.857-3.036c-1-1.486-4.229-1.539-5.767-1.1-.1.029-1.175.47-1.762.722.37-.482.752-.963,1.11-1.468,1.051-1.451,2.067-2.937,3.089-4.44l.946-1.363a14.414,14.414,0,0,0,3.283,2.937,4.419,4.419,0,0,0,3.718.241,2.114,2.114,0,0,0,.857-3.036c-1-1.486-4.229-1.539-5.767-1.092-.112.029-1.65.67-2.032.852.693-1,1.4-1.991,2.132-2.937a36.325,36.325,0,0,1,3.183-3.647,15.043,15.043,0,0,0,3.295,2.972,4.434,4.434,0,0,0,3.724.247,2.12,2.12,0,0,0,.857-3.036c-1-1.492-4.229-1.539-5.767-1.1-.1.029-1.269.517-1.821.758l-.059-.088a27.477,27.477,0,0,1,3.812-3.025c.746-.505,1.48-.946,2.208-1.351a14.322,14.322,0,0,0,2.89,3.23,4.355,4.355,0,0,0,3.671.652,2.12,2.12,0,0,0,1.175-2.937c-.828-1.592-4.035-1.991-5.609-1.721-.088,0-.946.258-1.562.446l.987-.54c1.2-.622,2.349-1.128,3.354-1.562.587-.241,1.1-.452,1.6-.64a14.116,14.116,0,0,0,4.035,1.527,4.4,4.4,0,0,0,3.559-1.116,2.12,2.12,0,0,0-.27-3.048Z" transform="translate(-193.514 -234.288)" fill="#4b57d6"/>
      <path id="Path_3525" data-name="Path 3525" d="M357.38,283.7a14.87,14.87,0,0,0,3.647,2.567c.006,0,.4-2.126.405-2.267.094-1.6-.67-4.734-2.349-5.38a2.12,2.12,0,0,0-2.772,1.509A4.559,4.559,0,0,0,357.38,283.7Z" transform="translate(-198.506 -237.372)" fill="#4b57d6"/>
      <g id="Group_3322" data-name="Group 3322" transform="translate(150.617 36.741)" opacity="0.5">
        <path id="Path_3526" data-name="Path 3526" d="M403.916,308.681c0,.029,1.509-1.556,1.592-1.668.957-1.28,2.056-4.323,1.016-5.785a2.12,2.12,0,0,0-3.142-.27,4.456,4.456,0,0,0-1.092,3.571A15.264,15.264,0,0,0,403.916,308.681Z" transform="translate(-368.126 -283.144)" fill="#fff"/>
        <path id="Path_3527" data-name="Path 3527" d="M393.641,291.1c-1.468-1.028-4.5.094-5.773,1.057-.112.088-1.686,1.592-1.656,1.6h.035c-.482.176-.993.364-1.551.587-1.022.411-2.173.893-3.395,1.492a39.781,39.781,0,0,0-3.841,2.138,27.607,27.607,0,0,0-3.911,2.972.279.279,0,0,0-.041.041c.258-.452.946-1.762.987-1.856.587-1.492.84-4.7-.546-5.844a2.126,2.126,0,0,0-3.107.587,4.447,4.447,0,0,0-.106,3.729,13.964,13.964,0,0,0,2.637,3.524,37.153,37.153,0,0,0-3.383,3.694c-.587.758-1.2,1.539-1.762,2.349.211-.4.4-.764.417-.816.587-1.486.84-4.7-.546-5.844a2.12,2.12,0,0,0-3.1.587,4.433,4.433,0,0,0-.112,3.724,14.231,14.231,0,0,0,2.549,3.453l-.687.9c-1.057,1.474-2.1,2.937-3.177,4.358-.376.5-.764.981-1.175,1.457.188-.358.346-.658.364-.7.587-1.492.84-4.7-.546-5.873a2.12,2.12,0,0,0-3.107.587A4.425,4.425,0,0,0,359,312.74a13.24,13.24,0,0,0,2.461,3.365c-.411.482-.822.957-1.245,1.4-.294.3-.552.587-.869.887l-.9.846c-.587.517-1.175,1.057-1.791,1.55-.411.347-.8.664-1.175.987.376-.487,1.1-1.468,1.175-1.556a8.222,8.222,0,0,0,.963-4.041,2.785,2.785,0,0,0,.2-.423,2.126,2.126,0,0,0-1.4-2.831c-1.762-.429-4.17,1.7-5.01,3.066-.047.082-.493,1.01-.758,1.6.1-.37.211-.734.311-1.116.211-.758.4-1.521.587-2.349.082-.4.17-.8.258-1.21s.141-.84.217-1.263c.147-.987.253-1.991.341-3.007a13.082,13.082,0,0,0,4.217.587,4.523,4.523,0,0,0,3.236-1.85,2.114,2.114,0,0,0-.957-3.007c-1.656-.693-4.375,1.051-5.415,2.267-.065.076-.711,1.034-1.057,1.568.047-.587.094-1.222.123-1.844.07-1.762.094-3.6.123-5.409,0-.552,0-1.1.035-1.656a14.751,14.751,0,0,0,4.364.652,4.434,4.434,0,0,0,3.242-1.85,2.126,2.126,0,0,0-.963-3.007c-1.65-.687-4.375,1.057-5.415,2.273-.076.088-1,1.468-1.228,1.832.029-1.216.07-2.432.159-3.624a38.084,38.084,0,0,1,.646-4.8c.112,0,3.031.869,4.393.658a4.422,4.422,0,0,0,3.236-1.85,2.126,2.126,0,0,0-.957-3.007c-1.656-.687-4.381,1.051-5.415,2.273-.07.076-.781,1.128-1.1,1.633l-.094-.035a27.114,27.114,0,0,1,1.509-4.634c.341-.828.711-1.6,1.092-2.349a13.608,13.608,0,0,0,4.193,1.1,4.42,4.42,0,0,0,3.424-1.486,2.126,2.126,0,0,0-.622-3.1c-1.568-.863-4.469.587-5.632,1.662-.065.059-.64.734-1.057,1.233.176-.329.352-.675.529-.993.658-1.175,1.327-2.232,1.932-3.154.347-.517.67-.981.981-1.415a14.214,14.214,0,0,0,4.211-.951,4.371,4.371,0,0,0,2.349-2.9,2.114,2.114,0,0,0-1.979-2.455c-1.791-.047-3.7,2.555-4.229,4.064-.047.135-.529,2.255-.5,2.249h.041q-.458.587-.969,1.339c-.628.91-1.327,1.944-2.009,3.119a38.173,38.173,0,0,0-2.026,3.9,28.193,28.193,0,0,0-1.627,4.64.176.176,0,0,1,0,.059c0-.523-.176-1.985-.2-2.1-.329-1.562-1.9-4.393-3.677-4.569a2.12,2.12,0,0,0-2.279,2.185,4.429,4.429,0,0,0,1.968,3.166,14.531,14.531,0,0,0,4.152,1.5,38.176,38.176,0,0,0-.781,4.951c-.088.969-.153,1.944-.206,2.937-.041-.452-.082-.857-.094-.91-.335-1.568-1.9-4.393-3.682-4.575a2.12,2.12,0,0,0-2.279,2.185,4.451,4.451,0,0,0,1.967,3.172,14.31,14.31,0,0,0,4.029,1.474c0,.376-.035.752-.047,1.128-.07,1.809-.129,3.618-.241,5.386-.041.623-.106,1.239-.164,1.85-.035-.4-.076-.74-.082-.787-.335-1.568-1.9-4.393-3.682-4.575a2.12,2.12,0,0,0-2.279,2.185,4.44,4.44,0,0,0,1.967,3.172,13.045,13.045,0,0,0,3.911,1.445c-.076.628-.159,1.257-.264,1.856-.082.411-.129.816-.235,1.222l-.282,1.175c-.211.758-.417,1.545-.64,2.279-.153.511-.305,1-.458,1.492.047-.623.112-1.838.106-1.944-.088-1.592-1.21-4.628-2.937-5.074a2.12,2.12,0,0,0-2.578,1.815,4.42,4.42,0,0,0,1.462,3.43,16,16,0,0,0,3.853,2.108c-.258.81-.511,1.592-.764,2.349-.875,2.555-1.7,4.651-2.29,6.108a.364.364,0,0,1-.065.147l1.069.587c.035-.094.076-.188.112-.288.587-1.486,1.357-3.624,2.179-6.226.264-.822.529-1.7.793-2.614a22.794,22.794,0,0,0,2.7.176,15.532,15.532,0,0,0,2.015,3.735c-.658.534-1.3,1.051-1.921,1.527-2.138,1.65-3.982,2.937-5.286,3.829l-.153.106,1.175.646c1.269-.91,2.937-2.173,4.916-3.747.669-.54,1.38-1.134,2.1-1.762a14.613,14.613,0,0,0,3.677,2.408,4.434,4.434,0,0,0,3.712-.323,2.12,2.12,0,0,0,.388-3.13c-1.21-1.321-4.411-.881-5.873-.211-.082.041-.963.587-1.515.916.294-.253.587-.493.875-.758.587-.511,1.175-1.045,1.8-1.621l.881-.863c.3-.288.587-.623.881-.934.67-.74,1.31-1.521,1.938-2.32A13.915,13.915,0,0,0,366,318.561a4.476,4.476,0,0,0,3.724.241,2.126,2.126,0,0,0,.857-3.036c-1-1.486-4.229-1.539-5.767-1.1-.1.029-1.175.47-1.762.722.37-.482.752-.963,1.11-1.468,1.051-1.451,2.067-2.937,3.089-4.44l.946-1.363a14.414,14.414,0,0,0,3.283,2.937,4.419,4.419,0,0,0,3.718.241,2.114,2.114,0,0,0,.857-3.036c-1-1.486-4.229-1.539-5.767-1.092-.112.029-1.65.67-2.032.852.693-1,1.4-1.991,2.132-2.937a36.325,36.325,0,0,1,3.183-3.647,15.043,15.043,0,0,0,3.295,2.972,4.434,4.434,0,0,0,3.724.247,2.12,2.12,0,0,0,.857-3.036c-1-1.492-4.229-1.539-5.767-1.1-.1.029-1.269.517-1.821.758l-.059-.088a27.477,27.477,0,0,1,3.812-3.025c.746-.505,1.48-.946,2.208-1.351a14.322,14.322,0,0,0,2.89,3.23,4.355,4.355,0,0,0,3.671.652,2.12,2.12,0,0,0,1.175-2.937c-.828-1.592-4.035-1.991-5.609-1.721-.088,0-.946.258-1.562.446l.987-.54c1.2-.622,2.349-1.128,3.354-1.562.587-.241,1.1-.452,1.6-.64a14.116,14.116,0,0,0,4.035,1.527,4.4,4.4,0,0,0,3.559-1.116,2.12,2.12,0,0,0-.27-3.048Z" transform="translate(-344.131 -271.029)" fill="#fff"/>
        <path id="Path_3528" data-name="Path 3528" d="M357.38,283.7a14.87,14.87,0,0,0,3.647,2.567c.006,0,.4-2.126.405-2.267.094-1.6-.67-4.734-2.349-5.38a2.12,2.12,0,0,0-2.772,1.509A4.559,4.559,0,0,0,357.38,283.7Z" transform="translate(-349.123 -274.113)" fill="#fff"/>
      </g>
      <path id="Path_3529" data-name="Path 3529" d="M157.623,231.584c.035,0-.458-2.461-.511-2.608-.587-1.762-2.7-4.822-4.769-4.816a2.449,2.449,0,0,0-2.349,2.784,5.114,5.114,0,0,0,2.637,3.4C154.005,231.184,157.623,231.584,157.623,231.584Z" transform="translate(-113.387 -214.945)" fill="#4b57d6"/>
      <path id="Path_3530" data-name="Path 3530" d="M142.43,208.541c-1.95.7-2.937,4.3-2.854,6.149,0,.159.37,2.643.405,2.625h.041c-.159.587-.317,1.175-.482,1.85-.294,1.239-.587,2.643-.857,4.193a44.949,44.949,0,0,0-.552,5.045,32.026,32.026,0,0,0,.194,5.668.294.294,0,0,1,0,.07c-.253-.552-1.016-2.061-1.092-2.173-1.01-1.545-3.876-3.935-5.873-3.383a2.455,2.455,0,0,0-1.533,3.307,5.122,5.122,0,0,0,3.442,2.584c1.5.429,4.834-.076,5.1-.117a43.066,43.066,0,0,0,1.227,5.65c.305,1.081.646,2.161,1,3.242-.235-.47-.452-.887-.487-.94-1.016-1.545-3.876-3.935-5.873-3.383a2.443,2.443,0,0,0-1.533,3.3,5.113,5.113,0,0,0,3.442,2.59,16.754,16.754,0,0,0,4.951-.1c.141.411.276.828.417,1.239.681,1.973,1.374,3.947,1.991,5.873.217.687.405,1.374.587,2.056-.211-.417-.388-.763-.423-.81-1.01-1.545-3.876-3.935-5.873-3.383a2.443,2.443,0,0,0-1.533,3.3,5.112,5.112,0,0,0,3.442,2.59,15.127,15.127,0,0,0,4.816-.082c.176.711.352,1.415.487,2.108.088.476.2.928.258,1.415s.129.946.2,1.41c.094.9.194,1.838.264,2.725.053.587.088,1.175.129,1.762-.206-.687-.646-2.026-.693-2.132A9.555,9.555,0,0,0,142,259.185a2.869,2.869,0,0,0-.27-.47,2.455,2.455,0,0,0-3.6-.587c-1.562,1.357-1.175,5.063-.452,6.766.041.1.628,1.133,1,1.762-.282-.346-.546-.687-.84-1.045-.587-.7-1.175-1.386-1.809-2.126l-.969-1.051c-.317-.358-.693-.693-1.045-1.045-.822-.8-1.7-1.568-2.6-2.349a17.36,17.36,0,0,0,3.395-3.565,5.1,5.1,0,0,0,.411-4.287,2.443,2.443,0,0,0-3.471-1.1c-1.762,1.1-1.926,4.822-1.474,6.613.029.112.5,1.357.769,2.038-.546-.446-1.087-.9-1.65-1.339-1.639-1.263-3.33-2.49-5.016-3.724-.517-.376-1.028-.764-1.539-1.139.223-.182,2.837-2.291,3.524-3.677a5.129,5.129,0,0,0,.417-4.287,2.443,2.443,0,0,0-3.471-1.1c-1.762,1.1-1.932,4.822-1.474,6.613,0,.135.711,1.932.9,2.379-1.128-.84-2.238-1.686-3.307-2.567a43.8,43.8,0,0,1-4.111-3.806c.106-.082,2.843-2.273,3.524-3.694a5.129,5.129,0,0,0,.417-4.287,2.443,2.443,0,0,0-3.471-1.1c-1.762,1.1-1.932,4.822-1.474,6.613,0,.117.546,1.486.8,2.132l-.1.059a31.277,31.277,0,0,1-3.359-4.511c-.552-.869-1.028-1.762-1.474-2.59a16.567,16.567,0,0,0,3.835-3.218,5.038,5.038,0,0,0,.881-4.211,2.449,2.449,0,0,0-3.33-1.48c-1.862.9-2.443,4.587-2.191,6.413,0,.1.264,1.1.458,1.821-.194-.388-.4-.787-.587-1.175-.681-1.41-1.216-2.737-1.686-3.923-.258-.675-.476-1.286-.675-1.868a16.548,16.548,0,0,0,1.9-4.6,4.985,4.985,0,0,0-1.175-4.146,2.449,2.449,0,0,0-3.635.223c-1.233,1.656-.053,5.2,1.016,6.7.088.129,1.762,2,1.762,1.968v-.041c.182.587.382,1.175.587,1.809.44,1.175.951,2.543,1.6,3.97a42.94,42.94,0,0,0,2.32,4.511,32.528,32.528,0,0,0,3.289,4.628l.047.047c-.517-.317-1.985-1.175-2.108-1.21-1.7-.728-5.4-1.139-6.766.417a2.455,2.455,0,0,0,.546,3.606,5.12,5.12,0,0,0,4.293.258c1.486-.47,3.988-2.731,4.188-2.937a43.459,43.459,0,0,0,4.111,4.035c.852.734,1.733,1.451,2.625,2.15l-.922-.517c-1.7-.728-5.4-1.139-6.766.423a2.449,2.449,0,0,0,.54,3.6c1.175.846,2.984.675,4.3.258a15.975,15.975,0,0,0,4.076-2.813l1.034.8c1.662,1.269,3.324,2.531,4.916,3.818.558.452,1.092.922,1.633,1.386-.405-.229-.746-.423-.8-.446-1.691-.728-5.4-1.139-6.76.417a2.455,2.455,0,0,0,.54,3.606c1.175.84,2.984.675,4.3.258a15.116,15.116,0,0,0,3.97-2.725c.54.493,1.075.987,1.574,1.492.335.346.675.664.993,1.034l.946,1.069c.587.7,1.175,1.427,1.721,2.126.382.482.74.951,1.1,1.421-.552-.458-1.656-1.333-1.762-1.392-1.568-.981-5.168-1.95-6.748-.587a2.443,2.443,0,0,0,0,3.641,5.126,5.126,0,0,0,4.211.91c1.5-.235,4.217-2.009,4.552-2.232.587.781,1.175,1.545,1.686,2.279,1.832,2.525,3.26,4.7,4.235,6.231l.1.159,1.263-.617-.2-.3c-1.022-1.527-2.508-3.694-4.411-6.2-.587-.8-1.251-1.633-1.932-2.484a27.638,27.638,0,0,0,1.962-2.432,17.158,17.158,0,0,0,4.869.587c.065.981.117,1.932.153,2.831.129,3.113.123,5.715.088,7.535v.211l1.386-.675c0-1.809-.065-4.246-.253-7.136-.059-.993-.141-2.056-.241-3.142.388-.094,3.524-.9,4.7-1.85a5.151,5.151,0,0,0,2.173-3.718,2.449,2.449,0,0,0-2.7-2.455c-2.05.264-3.771,3.571-4.111,5.391,0,.106-.106,1.292-.153,2.038-.041-.44-.076-.875-.123-1.333-.094-.9-.211-1.8-.335-2.766l-.229-1.415c-.065-.47-.194-.957-.294-1.445-.247-1.128-.552-2.249-.887-3.383a16.062,16.062,0,0,0,4.8-1.1,5.086,5.086,0,0,0,2.708-3.348,2.443,2.443,0,0,0-2.291-2.831c-2.067-.053-4.27,2.937-4.875,4.7-.041.106-.335,1.41-.487,2.126-.206-.675-.405-1.351-.634-2.032-.67-1.956-1.4-3.911-2.132-5.873l-.652-1.8c.282-.029,3.63-.347,4.975-1.122,1.175-.687,2.525-1.9,2.708-3.342a2.449,2.449,0,0,0-2.291-2.837c-2.067-.047-4.27,2.937-4.875,4.7-.047.135-.47,2-.558,2.484-.476-1.321-.94-2.643-1.339-3.964a42.439,42.439,0,0,1-1.316-5.433c.129,0,3.624-.329,5-1.122,1.175-.687,2.525-1.9,2.708-3.348a2.449,2.449,0,0,0-2.291-2.831c-2.067-.053-4.27,2.937-4.875,4.7-.041.117-.364,1.539-.505,2.22h-.117a31.768,31.768,0,0,1-.311-5.615c0-1.034.1-2.02.194-2.978.658,0,3.659,0,4.975-.587a5.074,5.074,0,0,0,3.066-3.025,2.443,2.443,0,0,0-1.967-3.066c-2.05-.282-4.569,2.473-5.362,4.111-.047.094-.382,1.063-.623,1.762.053-.435.1-.881.153-1.292.211-1.551.5-2.937.764-4.2.159-.7.311-1.339.464-1.932a15.9,15.9,0,0,0,4.111-2.79,5.156,5.156,0,0,0,1.321-4.111A2.449,2.449,0,0,0,142.43,208.541Z" transform="translate(-94.194 -208.47)" fill="#4b57d6"/>
      <path id="Path_3531" data-name="Path 3531" d="M102.856,259.051c1.615-.065,4.845-1.721,4.851-1.721s-1.762-1.8-1.868-1.9c-1.445-1.175-4.91-2.525-6.631-1.386a2.443,2.443,0,0,0-.429,3.618A5.027,5.027,0,0,0,102.856,259.051Z" transform="translate(-92.008 -227.102)" fill="#4b57d6"/>
      <g id="Group_3323" data-name="Group 3323" transform="translate(6.16)" opacity="0.5">
        <path id="Path_3532" data-name="Path 3532" d="M157.623,231.584c.035,0-.458-2.461-.511-2.608-.587-1.762-2.7-4.822-4.769-4.816a2.449,2.449,0,0,0-2.349,2.784,5.114,5.114,0,0,0,2.637,3.4C154.005,231.184,157.623,231.584,157.623,231.584Z" transform="translate(-119.546 -214.945)" fill="#fff"/>
        <path id="Path_3533" data-name="Path 3533" d="M142.43,208.541c-1.95.7-2.937,4.3-2.854,6.149,0,.159.37,2.643.405,2.625h.041c-.159.587-.317,1.175-.482,1.85-.294,1.239-.587,2.643-.857,4.193a44.949,44.949,0,0,0-.552,5.045,32.026,32.026,0,0,0,.194,5.668.294.294,0,0,1,0,.07c-.253-.552-1.016-2.061-1.092-2.173-1.01-1.545-3.876-3.935-5.873-3.383a2.455,2.455,0,0,0-1.533,3.307,5.122,5.122,0,0,0,3.442,2.584c1.5.429,4.834-.076,5.1-.117a43.066,43.066,0,0,0,1.227,5.65c.305,1.081.646,2.161,1,3.242-.235-.47-.452-.887-.487-.94-1.016-1.545-3.876-3.935-5.873-3.383a2.443,2.443,0,0,0-1.533,3.3,5.113,5.113,0,0,0,3.442,2.59,16.754,16.754,0,0,0,4.951-.1c.141.411.276.828.417,1.239.681,1.973,1.374,3.947,1.991,5.873.217.687.405,1.374.587,2.056-.211-.417-.388-.763-.423-.81-1.01-1.545-3.876-3.935-5.873-3.383a2.443,2.443,0,0,0-1.533,3.3,5.112,5.112,0,0,0,3.442,2.59,15.127,15.127,0,0,0,4.816-.082c.176.711.352,1.415.487,2.108.088.476.2.928.258,1.415s.129.946.2,1.41c.094.9.194,1.838.264,2.725.053.587.088,1.175.129,1.762-.206-.687-.646-2.026-.693-2.132A9.555,9.555,0,0,0,142,259.185a2.869,2.869,0,0,0-.27-.47,2.455,2.455,0,0,0-3.6-.587c-1.562,1.357-1.175,5.063-.452,6.766.041.1.628,1.133,1,1.762-.282-.346-.546-.687-.84-1.045-.587-.7-1.175-1.386-1.809-2.126l-.969-1.051c-.317-.358-.693-.693-1.045-1.045-.822-.8-1.7-1.568-2.6-2.349a17.36,17.36,0,0,0,3.395-3.565,5.1,5.1,0,0,0,.411-4.287,2.443,2.443,0,0,0-3.471-1.1c-1.762,1.1-1.926,4.822-1.474,6.613.029.112.5,1.357.769,2.038-.546-.446-1.087-.9-1.65-1.339-1.639-1.263-3.33-2.49-5.016-3.724-.517-.376-1.028-.764-1.539-1.139.223-.182,2.837-2.291,3.524-3.677a5.129,5.129,0,0,0,.417-4.287,2.443,2.443,0,0,0-3.471-1.1c-1.762,1.1-1.932,4.822-1.474,6.613,0,.135.711,1.932.9,2.379-1.128-.84-2.238-1.686-3.307-2.567a43.8,43.8,0,0,1-4.111-3.806c.106-.082,2.843-2.273,3.524-3.694a5.129,5.129,0,0,0,.417-4.287,2.443,2.443,0,0,0-3.471-1.1c-1.762,1.1-1.932,4.822-1.474,6.613,0,.117.546,1.486.8,2.132l-.1.059a31.277,31.277,0,0,1-3.359-4.511c-.552-.869-1.028-1.762-1.474-2.59a16.567,16.567,0,0,0,3.835-3.218,5.038,5.038,0,0,0,.881-4.211,2.449,2.449,0,0,0-3.33-1.48c-1.862.9-2.443,4.587-2.191,6.413,0,.1.264,1.1.458,1.821-.194-.388-.4-.787-.587-1.175-.681-1.41-1.216-2.737-1.686-3.923-.258-.675-.476-1.286-.675-1.868a16.548,16.548,0,0,0,1.9-4.6,4.985,4.985,0,0,0-1.175-4.146,2.449,2.449,0,0,0-3.635.223c-1.233,1.656-.053,5.2,1.016,6.7.088.129,1.762,2,1.762,1.968v-.041c.182.587.382,1.175.587,1.809.44,1.175.951,2.543,1.6,3.97a42.94,42.94,0,0,0,2.32,4.511,32.528,32.528,0,0,0,3.289,4.628l.047.047c-.517-.317-1.985-1.175-2.108-1.21-1.7-.728-5.4-1.139-6.766.417a2.455,2.455,0,0,0,.546,3.606,5.12,5.12,0,0,0,4.293.258c1.486-.47,3.988-2.731,4.188-2.937a43.459,43.459,0,0,0,4.111,4.035c.852.734,1.733,1.451,2.625,2.15l-.922-.517c-1.7-.728-5.4-1.139-6.766.423a2.449,2.449,0,0,0,.54,3.6c1.175.846,2.984.675,4.3.258a15.975,15.975,0,0,0,4.076-2.813l1.034.8c1.662,1.269,3.324,2.531,4.916,3.818.558.452,1.092.922,1.633,1.386-.405-.229-.746-.423-.8-.446-1.691-.728-5.4-1.139-6.76.417a2.455,2.455,0,0,0,.54,3.606c1.175.84,2.984.675,4.3.258a15.116,15.116,0,0,0,3.97-2.725c.54.493,1.075.987,1.574,1.492.335.346.675.664.993,1.034l.946,1.069c.587.7,1.175,1.427,1.721,2.126.382.482.74.951,1.1,1.421-.552-.458-1.656-1.333-1.762-1.392-1.568-.981-5.168-1.95-6.748-.587a2.443,2.443,0,0,0,0,3.641,5.126,5.126,0,0,0,4.211.91c1.5-.235,4.217-2.009,4.552-2.232.587.781,1.175,1.545,1.686,2.279,1.832,2.525,3.26,4.7,4.235,6.231l.1.159,1.263-.617-.2-.3c-1.022-1.527-2.508-3.694-4.411-6.2-.587-.8-1.251-1.633-1.932-2.484a27.638,27.638,0,0,0,1.962-2.432,17.158,17.158,0,0,0,4.869.587c.065.981.117,1.932.153,2.831.129,3.113.123,5.715.088,7.535v.211l1.386-.675c0-1.809-.065-4.246-.253-7.136-.059-.993-.141-2.056-.241-3.142.388-.094,3.524-.9,4.7-1.85a5.151,5.151,0,0,0,2.173-3.718,2.449,2.449,0,0,0-2.7-2.455c-2.05.264-3.771,3.571-4.111,5.391,0,.106-.106,1.292-.153,2.038-.041-.44-.076-.875-.123-1.333-.094-.9-.211-1.8-.335-2.766l-.229-1.415c-.065-.47-.194-.957-.294-1.445-.247-1.128-.552-2.249-.887-3.383a16.062,16.062,0,0,0,4.8-1.1,5.086,5.086,0,0,0,2.708-3.348,2.443,2.443,0,0,0-2.291-2.831c-2.067-.053-4.27,2.937-4.875,4.7-.041.106-.335,1.41-.487,2.126-.206-.675-.405-1.351-.634-2.032-.67-1.956-1.4-3.911-2.132-5.873l-.652-1.8c.282-.029,3.63-.347,4.975-1.122,1.175-.687,2.525-1.9,2.708-3.342a2.449,2.449,0,0,0-2.291-2.837c-2.067-.047-4.27,2.937-4.875,4.7-.047.135-.47,2-.558,2.484-.476-1.321-.94-2.643-1.339-3.964a42.439,42.439,0,0,1-1.316-5.433c.129,0,3.624-.329,5-1.122,1.175-.687,2.525-1.9,2.708-3.348a2.449,2.449,0,0,0-2.291-2.831c-2.067-.053-4.27,2.937-4.875,4.7-.041.117-.364,1.539-.505,2.22h-.117a31.768,31.768,0,0,1-.311-5.615c0-1.034.1-2.02.194-2.978.658,0,3.659,0,4.975-.587a5.074,5.074,0,0,0,3.066-3.025,2.443,2.443,0,0,0-1.967-3.066c-2.05-.282-4.569,2.473-5.362,4.111-.047.094-.382,1.063-.623,1.762.053-.435.1-.881.153-1.292.211-1.551.5-2.937.764-4.2.159-.7.311-1.339.464-1.932a15.9,15.9,0,0,0,4.111-2.79,5.156,5.156,0,0,0,1.321-4.111A2.449,2.449,0,0,0,142.43,208.541Z" transform="translate(-100.353 -208.47)" fill="#fff"/>
        <path id="Path_3534" data-name="Path 3534" d="M102.856,259.051c1.615-.065,4.845-1.721,4.851-1.721s-1.762-1.8-1.868-1.9c-1.445-1.175-4.91-2.525-6.631-1.386a2.443,2.443,0,0,0-.429,3.618A5.027,5.027,0,0,0,102.856,259.051Z" transform="translate(-98.168 -227.102)" fill="#fff"/>
      </g>
      <path id="Path_3535" data-name="Path 3535" d="M118.267,322.479s9.808-23.639,15.3-22.612-9.4,37.688-9.4,37.688,17.255-32.549,29.025-32.549-4.317,35.973-19.217,47.966c0,0,23.528-25.354,37.253-19.869s-27.451,31.174-27.451,31.174,23.921-7.535,21.178-1.709-10.2,6.848-10.2,6.848l27.057,1.374H87.68l21.178-2.056S86.893,357.77,92.778,353.318s18.823,5.139,18.823,5.139S89.248,333.79,93.559,324.534s23.534,16.791,23.534,16.791-15.687-33.236-12.551-39.044S118.267,322.479,118.267,322.479Z" transform="translate(-87.68 -246.175)" fill="#4b57d6"/>
      <path id="Path_3536" data-name="Path 3536" d="M118.267,322.479s9.808-23.639,15.3-22.612-9.4,37.688-9.4,37.688,17.255-32.549,29.025-32.549-4.317,35.973-19.217,47.966c0,0,23.528-25.354,37.253-19.869s-27.451,31.174-27.451,31.174,23.921-7.535,21.178-1.709-10.2,6.848-10.2,6.848l27.057,1.374H87.68l21.178-2.056S86.893,357.77,92.778,353.318s18.823,5.139,18.823,5.139S89.248,333.79,93.559,324.534s23.534,16.791,23.534,16.791-15.687-33.236-12.551-39.044S118.267,322.479,118.267,322.479Z" transform="translate(-87.68 -246.175)" fill="#fff" opacity="0.5"/>
      <path id="Path_3537" data-name="Path 3537" d="M125.877,340.51c8.628,25.5,8.628,43.537,8.628,43.537s-10.2.388-20.785-7.453" transform="translate(-98.426 -262.962)" fill="none" stroke="#263238" stroke-linecap="round" stroke-linejoin="round" stroke-width="1"/>
      <path id="Path_3538" data-name="Path 3538" d="M141.77,348.179a152.907,152.907,0,0,1,7.048-22.359" transform="translate(-110.002 -256.899)" fill="none" stroke="#263238" stroke-linecap="round" stroke-linejoin="round" stroke-width="1"/>
      <path id="Path_3539" data-name="Path 3539" d="M155.683,338.51l-21.96,32.555s-14.906-12.551-20-19.61" transform="translate(-98.426 -262.136)" fill="none" stroke="#263238" stroke-linecap="round" stroke-linejoin="round" stroke-width="1"/>
      <path id="Path_3540" data-name="Path 3540" d="M148.45,395.165S171.584,384.182,181,377.91" transform="translate(-112.759 -278.396)" fill="none" stroke="#263238" stroke-linecap="round" stroke-linejoin="round" stroke-width="1"/>
      <path id="Path_3541" data-name="Path 3541" d="M310.541,322.479s-9.8-23.639-15.27-22.612,9.4,37.688,9.4,37.688-17.255-32.549-29.019-32.549,4.311,35.973,19.217,47.966c0,0-23.534-25.354-37.259-19.869s27.457,31.174,27.457,31.174-23.927-7.535-21.178-1.709,10.2,6.848,10.2,6.848L247,370.791h94.134l-21.178-2.056s21.96-10.965,16.081-15.417-18.829,5.139-18.829,5.139,22.359-24.667,18.042-33.923-23.534,16.791-23.534,16.791,15.693-33.236,12.551-39.062S310.541,322.479,310.541,322.479Z" transform="translate(-153.429 -246.175)" fill="#4b57d6"/>
      <path id="Path_3542" data-name="Path 3542" d="M310.541,322.479s-9.8-23.639-15.27-22.612,9.4,37.688,9.4,37.688-17.255-32.549-29.019-32.549,4.311,35.973,19.217,47.966c0,0-23.534-25.354-37.259-19.869s27.457,31.174,27.457,31.174-23.927-7.535-21.178-1.709,10.2,6.848,10.2,6.848L247,370.791h94.134l-21.178-2.056s21.96-10.965,16.081-15.417-18.829,5.139-18.829,5.139,22.359-24.667,18.042-33.923-23.534,16.791-23.534,16.791,15.693-33.236,12.551-39.062S310.541,322.479,310.541,322.479Z" transform="translate(-153.429 -246.175)" fill="#fff" opacity="0.5"/>
      <path id="Path_3543" data-name="Path 3543" d="M354.468,340.51c-8.628,25.5-8.628,43.537-8.628,43.537s10.2.388,20.785-7.453" transform="translate(-194.22 -262.962)" fill="none" stroke="#263238" stroke-linecap="round" stroke-linejoin="round" stroke-width="1"/>
      <path id="Path_3544" data-name="Path 3544" d="M348.238,348.179a152.916,152.916,0,0,0-7.048-22.359" transform="translate(-192.301 -256.899)" fill="none" stroke="#263238" stroke-linecap="round" stroke-linejoin="round" stroke-width="1"/>
      <path id="Path_3545" data-name="Path 3545" d="M309.78,338.51l21.965,32.555s14.9-12.551,20-19.61" transform="translate(-179.338 -262.136)" fill="none" stroke="#263238" stroke-linecap="round" stroke-linejoin="round" stroke-width="1"/>
      <path id="Path_3546" data-name="Path 3546" d="M323.635,395.165s-23.14-10.983-32.555-17.255" transform="translate(-171.621 -278.396)" fill="none" stroke="#263238" stroke-linecap="round" stroke-linejoin="round" stroke-width="1"/>
    </g>
    <g id="freepik--Device--inject-6" transform="translate(61.856 29.346)">
      <rect id="Rectangle_2954" data-name="Rectangle 2954" width="98.61" height="177.715" rx="6.75" transform="translate(0)" fill="#263238" stroke="#263238" stroke-miterlimit="10" stroke-width="1"/>
      <path id="Path_3547" data-name="Path 3547" d="M253.128,137.81H240.853a1.263,1.263,0,0,1-1.263-1.263h0a1.257,1.257,0,0,1,1.263-1.257h12.275a1.257,1.257,0,0,1,1.257,1.257h0a1.257,1.257,0,0,1-1.257,1.263Z" transform="translate(-197.004 -127.191)" fill="#4b57d6"/>
      <path id="Path_3548" data-name="Path 3548" d="M263.837,290.9H177.69V139.83h20.421l2.3,1.9a4.44,4.44,0,0,0,2.854,1.034h36.026a4.487,4.487,0,0,0,2.937-1.116l2.073-1.821h19.522Z" transform="translate(-171.459 -129.065)" fill="#fff" stroke="#263238" stroke-linecap="round" stroke-linejoin="round" stroke-width="0.939"/>
      <path id="Path_3549" data-name="Path 3549" d="M214.843,156.017l-1.175-3.947H184.35V291.88h78.588V156.017Z" transform="translate(-174.207 -134.116)" fill="#4b57d6"/>
      <rect id="Rectangle_2955" data-name="Rectangle 2955" width="73.062" height="124.404" transform="translate(12.903 29.013)" fill="#fff"/>
      <path id="Path_3550" data-name="Path 3550" d="M252.963,403.618A1.962,1.962,0,1,0,251,405.573,1.962,1.962,0,0,0,252.963,403.618Z" transform="translate(-200.904 -237.115)" fill="#4b57d6"/>
    </g>
    <g id="freepik--Message--inject-6" transform="translate(81.748 36.752)">
      <ellipse id="Ellipse_165" data-name="Ellipse 165" cx="24.056" cy="34.229" rx="24.056" ry="34.229" transform="translate(0 72.122)" fill="#4b57d6"/>
      <ellipse id="Ellipse_166" data-name="Ellipse 166" cx="24.056" cy="34.229" rx="24.056" ry="34.229" transform="translate(0 72.122)" fill="#fff" opacity="0.5"/>
      <path id="Path_3551" data-name="Path 3551" d="M229.611,248.286s-1.5-2.514-2.884-2.637-17.813,10.19-20.327,15.558a27.746,27.746,0,0,0,1.762,26.505c6.49,10.084,16.662,9.749,21.936,9.244s8.81-2.22,14.154-6.507,10.249-10.6,10.959-14.888-1.9-6.672-3.571-7.265-11.317-.476-18.348-7.635S229.611,248.286,229.611,248.286Z" transform="translate(-202.143 -180.14)" fill="#263238" stroke="#263238" stroke-linecap="round" stroke-linejoin="round" stroke-width="1"/>
      <path id="Path_3552" data-name="Path 3552" d="M243.415,244.58a20.859,20.859,0,0,0-6.9,4.516c-2.637,2.884-4.264,7.406-4.387,14.054s2.009,14.172,10.284,17.437,15.681.752,18.066-1.509,5.286-8.651,5.286-8.651-13.168,3.524-19.44-3.894S243.415,244.58,243.415,244.58Z" transform="translate(-213.814 -179.7)" fill="#fff" stroke="#263238" stroke-linecap="round" stroke-linejoin="round" stroke-width="1"/>
      <path id="Path_3553" data-name="Path 3553" d="M321.287,203.624c-3.218-4.828-10.9-6.255-16.973-8.222s-9.65-5.873-8.04-15.54,9.984-25.372,9.826-28.232-28.943-2.678-31.627-1.762-3.213.711-5.715,3.929A44.538,44.538,0,0,0,265,159.3l3.1-6.519h.229a8.223,8.223,0,0,1,1.415-2.349,18.06,18.06,0,0,0,4.376-11.359c.117-6.149-4.258-5.556-5.086-3.665s-5.673,8.4-7.095,10.172-4.376,6.625-4.376,6.625l-3.283,11.382s-.717,3.395-4.828,16.263-2.32,18.8-2.32,18.8-1.075-.534-3.577,7.148-1.427,17.508,3.036,22.153,10.366,4.469,16.979,1.791a20.327,20.327,0,0,0,9.65-8.61,38.585,38.585,0,0,0,12.151-5.715c5.18-3.953,9.109-8.04,16.627-7.682s16.081,4.646,18.941,4.464S324.505,208.446,321.287,203.624Z" transform="translate(-217.99 -134.11)" fill="#fff"/>
      <g id="Group_3324" data-name="Group 3324" transform="translate(24.251 0)" clip-path="url(#clip-path)">
        <path id="Path_3554" data-name="Path 3554" d="M274.89,223.768c-19.881,2.966-26.13,7.711-24.144,14.242a10.1,10.1,0,0,0,1.967,3.524,1.6,1.6,0,0,0,.035.4s.352.211.881.587a16.85,16.85,0,0,0,2.249,1.827c1.3,1.239,2.473,2.79,2.232,4.229-.511,3.066-7.635,8.422-11.235,8.68s-4.851-3.318-5.362.511,7.406,13.273,15.065,12.251,14.043-11.746,14.043-11.746-1.022-1.762,4.111-7.148c3.371-3.524,8.193-5.08,11.887-6.525a67.938,67.938,0,0,0,10.166-3.9c9.086-4.452,19.881-1.48,19.881-1.48S294.771,220.767,274.89,223.768Z" transform="translate(-241.931 -170.975)" fill="#4b57d6"/>
        <path id="Path_3555" data-name="Path 3555" d="M274.89,223.768c-19.881,2.966-26.13,7.711-24.144,14.242a10.1,10.1,0,0,0,1.967,3.524,1.6,1.6,0,0,0,.035.4s.352.211.881.587a16.85,16.85,0,0,0,2.249,1.827c1.3,1.239,2.473,2.79,2.232,4.229-.511,3.066-7.635,8.422-11.235,8.68s-4.851-3.318-5.362.511,7.406,13.273,15.065,12.251,14.043-11.746,14.043-11.746-1.022-1.762,4.111-7.148c3.371-3.524,8.193-5.08,11.887-6.525a67.938,67.938,0,0,0,10.166-3.9c9.086-4.452,19.881-1.48,19.881-1.48S294.771,220.767,274.89,223.768Z" transform="translate(-241.931 -170.975)" fill="#fff" opacity="0.5"/>
      </g>
      <path id="Path_3557" data-name="Path 3557" d="M321.287,203.624c-3.218-4.828-10.9-6.255-16.973-8.222s-9.65-5.873-8.04-15.54,9.984-25.372,9.826-28.232-28.943-2.678-31.627-1.762-3.213.711-5.715,3.929A44.538,44.538,0,0,0,265,159.3l3.1-6.519h.229a8.223,8.223,0,0,1,1.415-2.349,18.06,18.06,0,0,0,4.376-11.359c.117-6.149-4.258-5.556-5.086-3.665s-5.673,8.4-7.095,10.172-4.376,6.625-4.376,6.625l-3.283,11.382s-.717,3.395-4.828,16.263-2.32,18.8-2.32,18.8-1.075-.534-3.577,7.148-1.427,17.508,3.036,22.153,10.366,4.469,16.979,1.791a20.327,20.327,0,0,0,9.65-8.61,38.585,38.585,0,0,0,12.151-5.715c5.18-3.953,9.109-8.04,16.627-7.682s16.081,4.646,18.941,4.464S324.505,208.446,321.287,203.624Z" transform="translate(-217.99 -134.11)" fill="none" stroke="#263238" stroke-linecap="round" stroke-linejoin="round" stroke-width="1"/>
      <path id="Path_3558" data-name="Path 3558" d="M370.038,263.8s.376-1.5-3.888-3.524-6.02-.628-6.02.376S369.38,263.8,370.038,263.8Z" transform="translate(-266.642 -185.75)" fill="#fff" stroke="#263238" stroke-linecap="round" stroke-linejoin="round" stroke-width="1"/>
      <path id="Path_3559" data-name="Path 3559" d="M300.65,149.665l-10.76,8.281h14.43S304.32,147.774,300.65,149.665Z" transform="translate(-237.654 -140.433)" fill="#fff" stroke="#263238" stroke-linecap="round" stroke-linejoin="round" stroke-width="1"/>
      <path id="Path_3560" data-name="Path 3560" d="M285.23,248.753A15.036,15.036,0,0,1,290.8,244.8" transform="translate(-235.731 -179.79)" fill="none" stroke="#263238" stroke-linecap="round" stroke-linejoin="round" stroke-width="1"/>
      <path id="Path_3561" data-name="Path 3561" d="M281.9,256.038a7.207,7.207,0,0,1,.64-1.368" transform="translate(-234.357 -183.864)" fill="none" stroke="#263238" stroke-linecap="round" stroke-linejoin="round" stroke-width="1"/>
      <path id="Path_3562" data-name="Path 3562" d="M273.469,274.849a15.778,15.778,0,0,1-1.609-1.639" transform="translate(-230.214 -191.515)" fill="none" stroke="#263238" stroke-linecap="round" stroke-linejoin="round" stroke-width="1"/>
      <path id="Path_3563" data-name="Path 3563" d="M288.273,280.9a15.752,15.752,0,0,1-9.573-1.962" transform="translate(-233.037 -193.88)" fill="none" stroke="#263238" stroke-linecap="round" stroke-linejoin="round" stroke-width="1"/>
      <path id="Path_3564" data-name="Path 3564" d="M315.876,162.72H261.655c-7.488,0-13.555,5.8-13.555,12.921v25.548a13.106,13.106,0,0,0,10.707,12.657l-2.86,8.463,13.238-8.152h46.691c7.482,0,13.555-5.8,13.555-12.921V175.688C329.431,168.517,323.358,162.72,315.876,162.72Z" transform="translate(-220.408 -145.917)" fill="#4b57d6" stroke="#263238" stroke-miterlimit="10" stroke-width="2"/>
      <line id="Line_80" data-name="Line 80" x2="60.951" transform="translate(36.519 34.005)" fill="none" stroke="#263238" stroke-linecap="round" stroke-miterlimit="10" stroke-width="2.064"/>
      <line id="Line_81" data-name="Line 81" x2="60.951" transform="translate(36.519 40.284)" fill="none" stroke="#263238" stroke-linecap="round" stroke-miterlimit="10" stroke-width="2.064"/>
      <line id="Line_82" data-name="Line 82" x2="60.951" transform="translate(36.519 46.556)" fill="none" stroke="#263238" stroke-linecap="round" stroke-miterlimit="10" stroke-width="2.064"/>
      <line id="Line_83" data-name="Line 83" x2="60.951" transform="translate(36.519 52.829)" fill="none" stroke="#263238" stroke-linecap="round" stroke-miterlimit="10" stroke-width="2.064"/>
      <path id="Path_3566" data-name="Path 3566" d="M336.03,152.259a8.918,8.918,0,0,0,4.5,6.977c4.258,2.249,9.7,1.762,9.814-1.063s-3.2-5.8-5.439-9.585-7.218-1.65-9.344.951" transform="translate(-256.502 -139.238)" fill="#fff" stroke="#263238" stroke-linecap="round" stroke-linejoin="round" stroke-width="1"/>
      <path id="Path_3567" data-name="Path 3567" d="M348.808,161.168c-.358,1.891.946,2.937,2.126,3.524a4.382,4.382,0,0,0,4.851-1.415c.059-1.386-.7-2.8-1.762-4.317C352.543,159.148,349.084,159.688,348.808,161.168Z" transform="translate(-261.944 -144.365)" fill="#fff" stroke="#263238" stroke-linecap="round" stroke-linejoin="round" stroke-width="1"/>
      <path id="Path_3568" data-name="Path 3568" d="M320.926,152.259a8.9,8.9,0,0,0,4.493,6.977c4.258,2.249,9.7,1.762,9.82-1.063s-3.195-5.8-5.444-9.585-7.212-1.65-9.344.951" transform="translate(-250.266 -139.238)" fill="#fff" stroke="#263238" stroke-linecap="round" stroke-linejoin="round" stroke-width="1"/>
      <path id="Path_3569" data-name="Path 3569" d="M333.708,161.168c-.358,1.891.946,2.937,2.126,3.524a4.382,4.382,0,0,0,4.851-1.415,7.549,7.549,0,0,0-1.762-4.317C337.443,159.148,333.984,159.688,333.708,161.168Z" transform="translate(-255.713 -144.365)" fill="#fff" stroke="#263238" stroke-linecap="round" stroke-linejoin="round" stroke-width="1"/>
      <path id="Path_3570" data-name="Path 3570" d="M306.876,152.259a8.9,8.9,0,0,0,4.493,6.977c4.258,2.249,9.7,1.762,9.814-1.063s-3.189-5.8-5.438-9.585-7.218-1.65-9.344.951" transform="translate(-244.468 -139.238)" fill="#fff" stroke="#263238" stroke-linecap="round" stroke-linejoin="round" stroke-width="1"/>
      <path id="Path_3571" data-name="Path 3571" d="M319.649,161.168c-.352,1.891.946,2.937,2.132,3.524a4.369,4.369,0,0,0,4.845-1.415c.059-1.386-.7-2.8-1.762-4.317C323.384,159.148,319.925,159.688,319.649,161.168Z" transform="translate(-249.911 -144.365)" fill="#fff" stroke="#263238" stroke-linecap="round" stroke-linejoin="round" stroke-width="1"/>
      <path id="Path_3572" data-name="Path 3572" d="M250.58,244s.329,7.271,4.34,12.163" transform="translate(-221.432 -179.46)" fill="none" stroke="#263238" stroke-linecap="round" stroke-linejoin="round" stroke-width="1"/>
      <path id="Path_3573" data-name="Path 3573" d="M227.6,293.788a2.245,2.245,0,1,1-2.2-2.678A2.475,2.475,0,0,1,227.6,293.788Z" transform="translate(-210.132 -198.902)" fill="#fff"/>
      <path id="Path_3574" data-name="Path 3574" d="M218.275,299.464a2.246,2.246,0,1,1-2.2-2.684A2.475,2.475,0,0,1,218.275,299.464Z" transform="translate(-206.282 -201.242)" fill="none" stroke="#263238" stroke-linecap="round" stroke-linejoin="round" stroke-width="1"/>
    </g>
  </g>
</svg>
