<svg xmlns="http://www.w3.org/2000/svg" xmlns:xlink="http://www.w3.org/1999/xlink" width="222" height="222" viewBox="0 0 222 222">
  <defs>
    <clipPath id="clip-path">
      <path id="Path_3556" data-name="Path 3556" d="M312.507,195.9c-2.861-4.292-9.69-5.56-15.088-7.309s-8.578-5.221-7.147-13.814,8.875-22.554,8.734-25.1-25.728-2.381-28.114-1.566-2.856.632-5.08,3.493a39.59,39.59,0,0,0-3.336,4.892l2.757-5.8h.2a7.31,7.31,0,0,1,1.258-2.088,16.054,16.054,0,0,0,3.89-10.1c.1-5.466-3.785-4.939-4.521-3.258s-5.043,7.466-6.307,9.042-3.89,5.889-3.89,5.889l-2.918,10.118s-.637,3.018-4.292,14.456-2.062,16.712-2.062,16.712-.955-.475-3.179,6.354-1.269,15.563,2.7,19.693,9.215,3.973,15.093,1.592a18.069,18.069,0,0,0,8.578-7.654,34.3,34.3,0,0,0,10.8-5.08c4.6-3.514,8.1-7.147,14.78-6.829s14.295,4.13,16.837,3.968S315.368,200.19,312.507,195.9Z" transform="translate(-242.241 -134.11)" fill="#f0f0f5" stroke="#263238" stroke-linecap="round" stroke-linejoin="round" stroke-width="1"/>
    </clipPath>
  </defs>
  <g id="shopping_bag_black_24dp" transform="translate(-0.334 -0.334)">
    <rect id="Rectangle_71" data-name="Rectangle 71" width="222" height="222" transform="translate(0.334 0.334)" fill="none"/>
    <g id="New_message-bro" data-name="New message-bro" transform="translate(12.23 17.985)">
      <g id="freepik--background-simple--inject-6" transform="translate(10.472)">
        <path id="Path_3519" data-name="Path 3519" d="M248.384,138.342a194.584,194.584,0,0,0-4.887-19.964c-5.952-19-17.8-38.222-38.143-44.685-15.02-4.767-31.231-1.478-43.923,8.238-19.907,15.234-34.395,36.024-56.176,49.217-18.184,11.021-27.7,28.824-21.588,53.988s26.537,39.824,48.888,38.044c18.576-1.5,38,.1,54.056,9.121,14.352,8.056,39.71,1.044,60.687-20.962,12.222-12.828,11.037-29.137,7.053-44.377C251.887,157.524,250.29,147.9,248.384,138.342Z" transform="translate(-81.818 -71.534)" fill="#f7f7fa"/>
        <path id="Path_3520" data-name="Path 3520" d="M248.384,138.342a194.584,194.584,0,0,0-4.887-19.964c-5.952-19-17.8-38.222-38.143-44.685-15.02-4.767-31.231-1.478-43.923,8.238-19.907,15.234-34.395,36.024-56.176,49.217-18.184,11.021-27.7,28.824-21.588,53.988s26.537,39.824,48.888,38.044c18.576-1.5,38,.1,54.056,9.121,14.352,8.056,39.71,1.044,60.687-20.962,12.222-12.828,11.037-29.137,7.053-44.377C251.887,157.524,250.29,147.9,248.384,138.342Z" transform="translate(-81.818 -71.534)" fill="#f7f7fa" opacity="0.7"/>
      </g>
      <g id="freepik--Shadow--inject-6" transform="translate(0 180.79)">
        <path id="Path_3521" data-name="Path 3521" d="M259.968,420.775c0,1.629-44.377,2.955-99.1,2.955S61.76,422.4,61.76,420.775s44.377-2.955,99.107-2.955S259.968,419.146,259.968,420.775Z" transform="translate(-61.76 -417.82)" fill="#c2c2cc"/>
        <path id="Path_3522" data-name="Path 3522" d="M259.968,420.775c0,1.629-44.377,2.955-99.1,2.955S61.76,422.4,61.76,420.775s44.377-2.955,99.107-2.955S259.968,419.146,259.968,420.775Z" transform="translate(-61.76 -417.82)" fill="#c2c2cc" opacity="0.3"/>
      </g>
      <g id="freepik--Plants--inject-6" transform="translate(13.532 71.492)">
        <path id="Path_3523" data-name="Path 3523" d="M403.733,307.759c0,.026,1.342-1.384,1.415-1.483.851-1.138,1.827-3.842.9-5.142a1.885,1.885,0,0,0-2.793-.24,3.961,3.961,0,0,0-.971,3.174A13.568,13.568,0,0,0,403.733,307.759Z" transform="translate(-238.03 -252.398)" fill="#c2c2cc"/>
        <path id="Path_3524" data-name="Path 3524" d="M388.142,288.874c-1.305-.914-4,.083-5.132.94-.1.078-1.5,1.415-1.472,1.425h.031c-.428.157-.882.324-1.378.522-.908.365-1.932.794-3.018,1.326a35.354,35.354,0,0,0-3.414,1.9,24.546,24.546,0,0,0-3.477,2.642.245.245,0,0,0-.037.037c.23-.4.841-1.566.877-1.65.522-1.326.747-4.177-.486-5.195a1.89,1.89,0,0,0-2.762.522,3.953,3.953,0,0,0-.094,3.315,12.413,12.413,0,0,0,2.344,3.132,33.03,33.03,0,0,0-3.007,3.284c-.522.673-1.07,1.368-1.566,2.088.188-.355.355-.679.371-.726.522-1.321.747-4.177-.485-5.195a1.885,1.885,0,0,0-2.757.522,3.941,3.941,0,0,0-.1,3.31,12.652,12.652,0,0,0,2.266,3.07l-.611.8c-.94,1.31-1.869,2.61-2.824,3.874-.334.444-.679.872-1.044,1.295.167-.319.308-.585.324-.626.522-1.326.747-4.177-.485-5.221a1.885,1.885,0,0,0-2.762.522,3.933,3.933,0,0,0-.094,3.315,11.768,11.768,0,0,0,2.188,2.991c-.365.428-.731.851-1.107,1.248-.261.266-.491.522-.773.788l-.8.752c-.522.459-1.044.94-1.592,1.378-.365.308-.715.59-1.044.877.334-.433.982-1.305,1.044-1.383a7.309,7.309,0,0,0,.856-3.592,2.475,2.475,0,0,0,.177-.376,1.89,1.89,0,0,0-1.248-2.517c-1.566-.381-3.707,1.514-4.453,2.725-.042.073-.439.9-.674,1.425.089-.329.188-.653.277-.992.188-.673.355-1.352.522-2.088.073-.355.151-.715.23-1.075s.125-.747.193-1.122c.131-.877.224-1.77.3-2.673A11.631,11.631,0,0,0,355.2,305a4.02,4.02,0,0,0,2.877-1.645,1.879,1.879,0,0,0-.851-2.673c-1.472-.616-3.889.935-4.814,2.015-.057.068-.632.919-.94,1.394.042-.522.084-1.086.11-1.639.063-1.566.083-3.2.11-4.808,0-.491,0-.982.031-1.472a13.112,13.112,0,0,0,3.879.579,3.942,3.942,0,0,0,2.882-1.645,1.89,1.89,0,0,0-.856-2.673c-1.467-.611-3.889.94-4.814,2.02-.068.078-.893,1.305-1.091,1.629.026-1.081.063-2.161.141-3.221a33.855,33.855,0,0,1,.574-4.265,14.282,14.282,0,0,0,3.905.585,3.931,3.931,0,0,0,2.877-1.645,1.89,1.89,0,0,0-.851-2.673c-1.472-.611-3.895.935-4.814,2.02-.063.068-.694,1-.982,1.451l-.084-.031a24.1,24.1,0,0,1,1.342-4.119c.3-.736.632-1.42.971-2.088a12.1,12.1,0,0,0,3.728.982,3.929,3.929,0,0,0,3.044-1.321A1.89,1.89,0,0,0,361.02,279c-1.394-.767-3.973.522-5.007,1.478-.057.052-.569.653-.94,1.1.157-.292.313-.6.47-.882.585-1.044,1.18-1.984,1.718-2.8.308-.459.6-.872.872-1.258a12.635,12.635,0,0,0,3.743-.846,3.886,3.886,0,0,0,2.088-2.574,1.88,1.88,0,0,0-1.759-2.182c-1.592-.042-3.289,2.271-3.759,3.613-.042.12-.47,2-.444,2h.037q-.407.522-.861,1.19c-.559.809-1.18,1.728-1.786,2.772a33.948,33.948,0,0,0-1.8,3.467,25.059,25.059,0,0,0-1.446,4.124.158.158,0,0,1,0,.052c0-.465-.157-1.765-.178-1.864-.292-1.389-1.686-3.905-3.268-4.062a1.885,1.885,0,0,0-2.026,1.942,3.937,3.937,0,0,0,1.749,2.814,12.917,12.917,0,0,0,3.691,1.337,33.933,33.933,0,0,0-.694,4.4c-.078.861-.136,1.728-.183,2.61-.037-.4-.073-.762-.084-.809-.3-1.394-1.692-3.905-3.273-4.067a1.885,1.885,0,0,0-2.026,1.942,3.957,3.957,0,0,0,1.749,2.819,12.724,12.724,0,0,0,3.582,1.31c0,.334-.031.668-.042,1-.063,1.608-.115,3.216-.214,4.788-.037.553-.094,1.1-.146,1.645-.031-.355-.068-.658-.073-.7-.3-1.394-1.691-3.905-3.273-4.067a1.885,1.885,0,0,0-2.026,1.942,3.947,3.947,0,0,0,1.749,2.819,11.6,11.6,0,0,0,3.477,1.284c-.068.559-.141,1.117-.235,1.65-.073.365-.115.726-.209,1.086l-.251,1.044c-.188.673-.371,1.373-.569,2.026-.136.454-.272.888-.407,1.326.042-.553.1-1.634.094-1.728-.078-1.415-1.075-4.114-2.61-4.511a1.885,1.885,0,0,0-2.292,1.613,3.928,3.928,0,0,0,1.3,3.049,14.223,14.223,0,0,0,3.425,1.874c-.23.72-.454,1.415-.679,2.088-.778,2.271-1.509,4.135-2.036,5.43a.323.323,0,0,1-.057.13l.95.522c.031-.084.068-.167.1-.256.522-1.321,1.206-3.221,1.937-5.534.235-.731.47-1.514.7-2.323a20.272,20.272,0,0,0,2.4.157,13.809,13.809,0,0,0,1.791,3.32c-.585.475-1.159.934-1.707,1.357-1.9,1.467-3.54,2.61-4.7,3.4l-.136.094,1.044.574c1.128-.809,2.61-1.932,4.37-3.331.6-.48,1.227-1.008,1.864-1.566A12.99,12.99,0,0,0,358,318.972a3.942,3.942,0,0,0,3.3-.287,1.885,1.885,0,0,0,.345-2.783c-1.076-1.175-3.921-.783-5.221-.188-.073.037-.856.522-1.347.814.261-.224.522-.439.778-.673.522-.454,1.044-.929,1.6-1.441l.783-.767c.266-.256.522-.553.783-.83.6-.658,1.164-1.352,1.723-2.062a12.371,12.371,0,0,0,2.83,2.527,3.979,3.979,0,0,0,3.31.214,1.89,1.89,0,0,0,.762-2.7c-.888-1.321-3.759-1.368-5.127-.976-.089.026-1.044.418-1.566.642.329-.428.668-.856.987-1.305.935-1.29,1.838-2.61,2.746-3.947l.84-1.211a12.815,12.815,0,0,0,2.918,2.61,3.928,3.928,0,0,0,3.3.214,1.88,1.88,0,0,0,.762-2.7c-.888-1.321-3.759-1.368-5.127-.971-.1.026-1.467.6-1.806.757.616-.888,1.242-1.77,1.9-2.61a32.27,32.27,0,0,1,2.83-3.242,13.372,13.372,0,0,0,2.929,2.642,3.941,3.941,0,0,0,3.31.219,1.885,1.885,0,0,0,.762-2.7c-.888-1.326-3.759-1.368-5.127-.976-.089.026-1.128.459-1.618.674l-.052-.078a24.426,24.426,0,0,1,3.388-2.689c.663-.449,1.316-.841,1.963-1.2a12.731,12.731,0,0,0,2.569,2.871,3.871,3.871,0,0,0,3.263.579,1.885,1.885,0,0,0,1.044-2.61c-.736-1.415-3.587-1.77-4.986-1.53-.078,0-.841.23-1.389.4l.877-.48c1.07-.553,2.088-1,2.981-1.389.522-.214.982-.4,1.42-.569a12.548,12.548,0,0,0,3.587,1.357,3.912,3.912,0,0,0,3.164-.992,1.885,1.885,0,0,0-.24-2.71Z" transform="translate(-210.243 -238.368)" fill="#c2c2cc"/>
        <path id="Path_3525" data-name="Path 3525" d="M357.252,283.127a13.221,13.221,0,0,0,3.242,2.281c.005,0,.355-1.89.36-2.015.084-1.42-.6-4.208-2.088-4.782a1.885,1.885,0,0,0-2.464,1.342A4.053,4.053,0,0,0,357.252,283.127Z" transform="translate(-216.024 -241.94)" fill="#c2c2cc"/>
        <g id="Group_3322" data-name="Group 3322" transform="translate(133.888 32.661)" opacity="0.5">
          <path id="Path_3526" data-name="Path 3526" d="M403.733,307.759c0,.026,1.342-1.384,1.415-1.483.851-1.138,1.827-3.842.9-5.142a1.885,1.885,0,0,0-2.793-.24,3.961,3.961,0,0,0-.971,3.174A13.568,13.568,0,0,0,403.733,307.759Z" transform="translate(-371.918 -285.058)" fill="#c2c2cc"/>
          <path id="Path_3527" data-name="Path 3527" d="M388.142,288.874c-1.305-.914-4,.083-5.132.94-.1.078-1.5,1.415-1.472,1.425h.031c-.428.157-.882.324-1.378.522-.908.365-1.932.794-3.018,1.326a35.354,35.354,0,0,0-3.414,1.9,24.546,24.546,0,0,0-3.477,2.642.245.245,0,0,0-.037.037c.23-.4.841-1.566.877-1.65.522-1.326.747-4.177-.486-5.195a1.89,1.89,0,0,0-2.762.522,3.953,3.953,0,0,0-.094,3.315,12.413,12.413,0,0,0,2.344,3.132,33.03,33.03,0,0,0-3.007,3.284c-.522.673-1.07,1.368-1.566,2.088.188-.355.355-.679.371-.726.522-1.321.747-4.177-.485-5.195a1.885,1.885,0,0,0-2.757.522,3.941,3.941,0,0,0-.1,3.31,12.652,12.652,0,0,0,2.266,3.07l-.611.8c-.94,1.31-1.869,2.61-2.824,3.874-.334.444-.679.872-1.044,1.295.167-.319.308-.585.324-.626.522-1.326.747-4.177-.485-5.221a1.885,1.885,0,0,0-2.762.522,3.933,3.933,0,0,0-.094,3.315,11.768,11.768,0,0,0,2.188,2.991c-.365.428-.731.851-1.107,1.248-.261.266-.491.522-.773.788l-.8.752c-.522.459-1.044.94-1.592,1.378-.365.308-.715.59-1.044.877.334-.433.982-1.305,1.044-1.383a7.309,7.309,0,0,0,.856-3.592,2.475,2.475,0,0,0,.177-.376,1.89,1.89,0,0,0-1.248-2.517c-1.566-.381-3.707,1.514-4.453,2.725-.042.073-.439.9-.674,1.425.089-.329.188-.653.277-.992.188-.673.355-1.352.522-2.088.073-.355.151-.715.23-1.075s.125-.747.193-1.122c.131-.877.224-1.77.3-2.673A11.631,11.631,0,0,0,355.2,305a4.02,4.02,0,0,0,2.877-1.645,1.879,1.879,0,0,0-.851-2.673c-1.472-.616-3.889.935-4.814,2.015-.057.068-.632.919-.94,1.394.042-.522.084-1.086.11-1.639.063-1.566.083-3.2.11-4.808,0-.491,0-.982.031-1.472a13.112,13.112,0,0,0,3.879.579,3.942,3.942,0,0,0,2.882-1.645,1.89,1.89,0,0,0-.856-2.673c-1.467-.611-3.889.94-4.814,2.02-.068.078-.893,1.305-1.091,1.629.026-1.081.063-2.161.141-3.221a33.855,33.855,0,0,1,.574-4.265,14.282,14.282,0,0,0,3.905.585,3.931,3.931,0,0,0,2.877-1.645,1.89,1.89,0,0,0-.851-2.673c-1.472-.611-3.895.935-4.814,2.02-.063.068-.694,1-.982,1.451l-.084-.031a24.1,24.1,0,0,1,1.342-4.119c.3-.736.632-1.42.971-2.088a12.1,12.1,0,0,0,3.728.982,3.929,3.929,0,0,0,3.044-1.321A1.89,1.89,0,0,0,361.02,279c-1.394-.767-3.973.522-5.007,1.478-.057.052-.569.653-.94,1.1.157-.292.313-.6.47-.882.585-1.044,1.18-1.984,1.718-2.8.308-.459.6-.872.872-1.258a12.635,12.635,0,0,0,3.743-.846,3.886,3.886,0,0,0,2.088-2.574,1.88,1.88,0,0,0-1.759-2.182c-1.592-.042-3.289,2.271-3.759,3.613-.042.12-.47,2-.444,2h.037q-.407.522-.861,1.19c-.559.809-1.18,1.728-1.786,2.772a33.948,33.948,0,0,0-1.8,3.467,25.059,25.059,0,0,0-1.446,4.124.158.158,0,0,1,0,.052c0-.465-.157-1.765-.178-1.864-.292-1.389-1.686-3.905-3.268-4.062a1.885,1.885,0,0,0-2.026,1.942,3.937,3.937,0,0,0,1.749,2.814,12.917,12.917,0,0,0,3.691,1.337,33.933,33.933,0,0,0-.694,4.4c-.078.861-.136,1.728-.183,2.61-.037-.4-.073-.762-.084-.809-.3-1.394-1.692-3.905-3.273-4.067a1.885,1.885,0,0,0-2.026,1.942,3.957,3.957,0,0,0,1.749,2.819,12.724,12.724,0,0,0,3.582,1.31c0,.334-.031.668-.042,1-.063,1.608-.115,3.216-.214,4.788-.037.553-.094,1.1-.146,1.645-.031-.355-.068-.658-.073-.7-.3-1.394-1.691-3.905-3.273-4.067a1.885,1.885,0,0,0-2.026,1.942,3.947,3.947,0,0,0,1.749,2.819,11.6,11.6,0,0,0,3.477,1.284c-.068.559-.141,1.117-.235,1.65-.073.365-.115.726-.209,1.086l-.251,1.044c-.188.673-.371,1.373-.569,2.026-.136.454-.272.888-.407,1.326.042-.553.1-1.634.094-1.728-.078-1.415-1.075-4.114-2.61-4.511a1.885,1.885,0,0,0-2.292,1.613,3.928,3.928,0,0,0,1.3,3.049,14.223,14.223,0,0,0,3.425,1.874c-.23.72-.454,1.415-.679,2.088-.778,2.271-1.509,4.135-2.036,5.43a.323.323,0,0,1-.057.13l.95.522c.031-.084.068-.167.1-.256.522-1.321,1.206-3.221,1.937-5.534.235-.731.47-1.514.7-2.323a20.272,20.272,0,0,0,2.4.157,13.809,13.809,0,0,0,1.791,3.32c-.585.475-1.159.934-1.707,1.357-1.9,1.467-3.54,2.61-4.7,3.4l-.136.094,1.044.574c1.128-.809,2.61-1.932,4.37-3.331.6-.48,1.227-1.008,1.864-1.566A12.99,12.99,0,0,0,358,318.972a3.942,3.942,0,0,0,3.3-.287,1.885,1.885,0,0,0,.345-2.783c-1.076-1.175-3.921-.783-5.221-.188-.073.037-.856.522-1.347.814.261-.224.522-.439.778-.673.522-.454,1.044-.929,1.6-1.441l.783-.767c.266-.256.522-.553.783-.83.6-.658,1.164-1.352,1.723-2.062a12.371,12.371,0,0,0,2.83,2.527,3.979,3.979,0,0,0,3.31.214,1.89,1.89,0,0,0,.762-2.7c-.888-1.321-3.759-1.368-5.127-.976-.089.026-1.044.418-1.566.642.329-.428.668-.856.987-1.305.935-1.29,1.838-2.61,2.746-3.947l.84-1.211a12.815,12.815,0,0,0,2.918,2.61,3.928,3.928,0,0,0,3.3.214,1.88,1.88,0,0,0,.762-2.7c-.888-1.321-3.759-1.368-5.127-.971-.1.026-1.467.6-1.806.757.616-.888,1.242-1.77,1.9-2.61a32.27,32.27,0,0,1,2.83-3.242,13.372,13.372,0,0,0,2.929,2.642,3.941,3.941,0,0,0,3.31.219,1.885,1.885,0,0,0,.762-2.7c-.888-1.326-3.759-1.368-5.127-.976-.089.026-1.128.459-1.618.674l-.052-.078a24.426,24.426,0,0,1,3.388-2.689c.663-.449,1.316-.841,1.963-1.2a12.731,12.731,0,0,0,2.569,2.871,3.871,3.871,0,0,0,3.263.579,1.885,1.885,0,0,0,1.044-2.61c-.736-1.415-3.587-1.77-4.986-1.53-.078,0-.841.23-1.389.4l.877-.48c1.07-.553,2.088-1,2.981-1.389.522-.214.982-.4,1.42-.569a12.548,12.548,0,0,0,3.587,1.357,3.912,3.912,0,0,0,3.164-.992,1.885,1.885,0,0,0-.24-2.71Z" transform="translate(-344.131 -271.029)" fill="#c2c2cc"/>
          <path id="Path_3528" data-name="Path 3528" d="M357.252,283.127a13.221,13.221,0,0,0,3.242,2.281c.005,0,.355-1.89.36-2.015.084-1.42-.6-4.208-2.088-4.782a1.885,1.885,0,0,0-2.464,1.342A4.053,4.053,0,0,0,357.252,283.127Z" transform="translate(-349.912 -274.601)" fill="#c2c2cc"/>
        </g>
        <path id="Path_3529" data-name="Path 3529" d="M156.773,230.759c.031,0-.407-2.187-.454-2.318-.522-1.566-2.4-4.286-4.239-4.281a2.177,2.177,0,0,0-2.088,2.475,4.546,4.546,0,0,0,2.344,3.023A15.474,15.474,0,0,0,156.773,230.759Z" transform="translate(-117.45 -215.969)" fill="#c2c2cc"/>
        <path id="Path_3530" data-name="Path 3530" d="M138.1,208.533c-1.733.621-2.61,3.827-2.537,5.466,0,.141.329,2.349.36,2.334h.037c-.141.522-.282,1.044-.428,1.645-.261,1.1-.522,2.349-.762,3.728a39.961,39.961,0,0,0-.491,4.485,28.47,28.47,0,0,0,.172,5.038.261.261,0,0,1,0,.063c-.224-.491-.9-1.832-.971-1.932-.9-1.373-3.446-3.5-5.221-3.007a2.182,2.182,0,0,0-1.363,2.939,4.553,4.553,0,0,0,3.059,2.3,15.056,15.056,0,0,0,4.532-.1,38.284,38.284,0,0,0,1.091,5.022c.271.961.574,1.921.893,2.882-.209-.418-.4-.788-.433-.835-.9-1.373-3.446-3.5-5.221-3.007a2.172,2.172,0,0,0-1.363,2.934,4.545,4.545,0,0,0,3.059,2.3,14.891,14.891,0,0,0,4.4-.089c.125.365.245.736.371,1.1.606,1.754,1.222,3.508,1.77,5.221.193.611.36,1.222.522,1.827-.188-.371-.345-.679-.376-.72-.9-1.373-3.446-3.5-5.221-3.007a2.172,2.172,0,0,0-1.363,2.934,4.545,4.545,0,0,0,3.059,2.3,13.445,13.445,0,0,0,4.281-.073c.157.632.313,1.258.433,1.874.078.423.177.825.23,1.258s.115.841.178,1.253c.084.8.172,1.634.235,2.422.047.522.078,1.044.115,1.566-.183-.611-.574-1.8-.616-1.9a8.494,8.494,0,0,0-2.814-3.206,2.551,2.551,0,0,0-.24-.418,2.182,2.182,0,0,0-3.2-.522c-1.389,1.206-1.044,4.5-.4,6.014.037.089.559,1.008.893,1.566-.251-.308-.486-.611-.747-.929-.522-.621-1.044-1.232-1.608-1.89l-.861-.935c-.282-.318-.616-.616-.929-.929-.731-.71-1.514-1.394-2.313-2.088a15.432,15.432,0,0,0,3.018-3.169,4.534,4.534,0,0,0,.365-3.811,2.172,2.172,0,0,0-3.086-.976c-1.566.976-1.712,4.286-1.31,5.879.026.1.444,1.206.684,1.812-.486-.4-.966-.8-1.467-1.19-1.457-1.122-2.96-2.214-4.459-3.31-.459-.334-.914-.679-1.368-1.013a15.041,15.041,0,0,0,3.132-3.268,4.56,4.56,0,0,0,.371-3.811,2.172,2.172,0,0,0-3.085-.976c-1.566.976-1.718,4.286-1.31,5.879,0,.12.632,1.718.8,2.114-1-.747-1.989-1.5-2.939-2.281a38.93,38.93,0,0,1-3.655-3.383,14.689,14.689,0,0,0,3.132-3.284,4.56,4.56,0,0,0,.371-3.811,2.172,2.172,0,0,0-3.085-.976c-1.566.976-1.718,4.286-1.31,5.879,0,.1.486,1.321.715,1.9l-.089.052a27.8,27.8,0,0,1-2.986-4.01c-.491-.773-.914-1.566-1.31-2.3a14.728,14.728,0,0,0,3.409-2.861,4.479,4.479,0,0,0,.783-3.743,2.177,2.177,0,0,0-2.96-1.316c-1.655.8-2.172,4.077-1.947,5.7,0,.089.235.976.407,1.618-.172-.345-.355-.7-.522-1.044-.606-1.253-1.081-2.433-1.5-3.488-.23-.6-.423-1.143-.6-1.66a14.709,14.709,0,0,0,1.692-4.088,4.431,4.431,0,0,0-1.044-3.686,2.177,2.177,0,0,0-3.232.2c-1.1,1.472-.047,4.62.9,5.957.078.115,1.566,1.78,1.566,1.749v-.037c.162.522.339,1.044.522,1.608.392,1.044.846,2.261,1.425,3.529a38.175,38.175,0,0,0,2.062,4.01,28.914,28.914,0,0,0,2.924,4.114l.042.042c-.459-.282-1.765-1.044-1.874-1.076-1.509-.647-4.8-1.013-6.014.371a2.182,2.182,0,0,0,.486,3.206,4.551,4.551,0,0,0,3.816.23,14.477,14.477,0,0,0,3.722-2.61,38.638,38.638,0,0,0,3.655,3.587c.757.653,1.54,1.29,2.334,1.911l-.82-.459c-1.509-.647-4.8-1.013-6.014.376a2.177,2.177,0,0,0,.48,3.2,4.543,4.543,0,0,0,3.822.23,14.2,14.2,0,0,0,3.623-2.5l.919.715c1.477,1.128,2.955,2.25,4.37,3.393.5.4.971.82,1.451,1.232-.36-.2-.663-.376-.715-.4-1.5-.647-4.8-1.013-6.009.371a2.182,2.182,0,0,0,.48,3.206,4.562,4.562,0,0,0,3.822.23,13.438,13.438,0,0,0,3.529-2.422c.48.439.955.877,1.4,1.326.3.308.6.59.882.919l.841.95c.522.627,1.044,1.269,1.53,1.89.339.428.658.846.976,1.263-.491-.407-1.472-1.185-1.566-1.237-1.394-.872-4.594-1.733-6-.522a2.172,2.172,0,0,0,0,3.237,4.557,4.557,0,0,0,3.743.809,14.91,14.91,0,0,0,4.046-1.984c.522.694,1.044,1.373,1.5,2.026,1.629,2.245,2.9,4.177,3.764,5.539l.089.141,1.122-.548-.177-.266c-.908-1.357-2.229-3.284-3.921-5.513-.522-.71-1.112-1.451-1.718-2.208a24.565,24.565,0,0,0,1.744-2.161,15.252,15.252,0,0,0,4.328.522c.057.872.1,1.718.136,2.516.115,2.767.11,5.08.078,6.7v.188l1.232-.6c0-1.608-.057-3.775-.225-6.343-.052-.882-.125-1.827-.214-2.793a14.718,14.718,0,0,0,4.177-1.645,4.579,4.579,0,0,0,1.932-3.3,2.177,2.177,0,0,0-2.4-2.182c-1.822.235-3.352,3.174-3.655,4.793,0,.094-.094,1.149-.136,1.812-.037-.392-.068-.778-.11-1.185-.083-.8-.188-1.6-.3-2.459l-.2-1.258c-.057-.418-.172-.851-.261-1.284-.219-1-.491-2-.788-3.007a14.279,14.279,0,0,0,4.265-.976,4.521,4.521,0,0,0,2.407-2.976,2.172,2.172,0,0,0-2.036-2.516c-1.838-.047-3.8,2.61-4.333,4.177-.037.094-.3,1.253-.433,1.89-.183-.6-.36-1.2-.564-1.806-.6-1.738-1.248-3.477-1.9-5.221l-.579-1.6a15.2,15.2,0,0,0,4.422-1,4.6,4.6,0,0,0,2.407-2.971,2.177,2.177,0,0,0-2.036-2.522c-1.838-.042-3.8,2.61-4.333,4.177-.042.12-.418,1.78-.5,2.208-.423-1.175-.835-2.349-1.19-3.524a37.722,37.722,0,0,1-1.169-4.829,15.026,15.026,0,0,0,4.448-1,4.6,4.6,0,0,0,2.407-2.976,2.177,2.177,0,0,0-2.036-2.516c-1.838-.047-3.8,2.61-4.333,4.177-.037.1-.324,1.368-.449,1.973h-.1a28.241,28.241,0,0,1-.277-4.991c0-.919.089-1.8.172-2.647a14.6,14.6,0,0,0,4.422-.522,4.511,4.511,0,0,0,2.725-2.689,2.172,2.172,0,0,0-1.749-2.725c-1.822-.251-4.062,2.2-4.767,3.655-.042.084-.339.945-.553,1.566.047-.386.089-.783.136-1.149.188-1.378.444-2.61.679-3.733.141-.627.277-1.19.412-1.718a14.132,14.132,0,0,0,3.655-2.48,4.583,4.583,0,0,0,1.175-3.655A2.177,2.177,0,0,0,138.1,208.533Z" transform="translate(-95.223 -208.47)" fill="#c2c2cc"/>
        <path id="Path_3531" data-name="Path 3531" d="M102.335,258.448a15.715,15.715,0,0,0,4.312-1.53c.005,0-1.566-1.6-1.66-1.686-1.284-1.044-4.365-2.245-5.894-1.232a2.172,2.172,0,0,0-.381,3.216A4.469,4.469,0,0,0,102.335,258.448Z" transform="translate(-92.692 -230.047)" fill="#c2c2cc"/>
        <g id="Group_3323" data-name="Group 3323" transform="translate(5.476)" opacity="0.5">
          <path id="Path_3532" data-name="Path 3532" d="M156.773,230.759c.031,0-.407-2.187-.454-2.318-.522-1.566-2.4-4.286-4.239-4.281a2.177,2.177,0,0,0-2.088,2.475,4.546,4.546,0,0,0,2.344,3.023A15.474,15.474,0,0,0,156.773,230.759Z" transform="translate(-122.925 -215.969)" fill="#c2c2cc"/>
          <path id="Path_3533" data-name="Path 3533" d="M138.1,208.533c-1.733.621-2.61,3.827-2.537,5.466,0,.141.329,2.349.36,2.334h.037c-.141.522-.282,1.044-.428,1.645-.261,1.1-.522,2.349-.762,3.728a39.961,39.961,0,0,0-.491,4.485,28.47,28.47,0,0,0,.172,5.038.261.261,0,0,1,0,.063c-.224-.491-.9-1.832-.971-1.932-.9-1.373-3.446-3.5-5.221-3.007a2.182,2.182,0,0,0-1.363,2.939,4.553,4.553,0,0,0,3.059,2.3,15.056,15.056,0,0,0,4.532-.1,38.284,38.284,0,0,0,1.091,5.022c.271.961.574,1.921.893,2.882-.209-.418-.4-.788-.433-.835-.9-1.373-3.446-3.5-5.221-3.007a2.172,2.172,0,0,0-1.363,2.934,4.545,4.545,0,0,0,3.059,2.3,14.891,14.891,0,0,0,4.4-.089c.125.365.245.736.371,1.1.606,1.754,1.222,3.508,1.77,5.221.193.611.36,1.222.522,1.827-.188-.371-.345-.679-.376-.72-.9-1.373-3.446-3.5-5.221-3.007a2.172,2.172,0,0,0-1.363,2.934,4.545,4.545,0,0,0,3.059,2.3,13.445,13.445,0,0,0,4.281-.073c.157.632.313,1.258.433,1.874.078.423.177.825.23,1.258s.115.841.178,1.253c.084.8.172,1.634.235,2.422.047.522.078,1.044.115,1.566-.183-.611-.574-1.8-.616-1.9a8.494,8.494,0,0,0-2.814-3.206,2.551,2.551,0,0,0-.24-.418,2.182,2.182,0,0,0-3.2-.522c-1.389,1.206-1.044,4.5-.4,6.014.037.089.559,1.008.893,1.566-.251-.308-.486-.611-.747-.929-.522-.621-1.044-1.232-1.608-1.89l-.861-.935c-.282-.318-.616-.616-.929-.929-.731-.71-1.514-1.394-2.313-2.088a15.432,15.432,0,0,0,3.018-3.169,4.534,4.534,0,0,0,.365-3.811,2.172,2.172,0,0,0-3.086-.976c-1.566.976-1.712,4.286-1.31,5.879.026.1.444,1.206.684,1.812-.486-.4-.966-.8-1.467-1.19-1.457-1.122-2.96-2.214-4.459-3.31-.459-.334-.914-.679-1.368-1.013a15.041,15.041,0,0,0,3.132-3.268,4.56,4.56,0,0,0,.371-3.811,2.172,2.172,0,0,0-3.085-.976c-1.566.976-1.718,4.286-1.31,5.879,0,.12.632,1.718.8,2.114-1-.747-1.989-1.5-2.939-2.281a38.93,38.93,0,0,1-3.655-3.383,14.689,14.689,0,0,0,3.132-3.284,4.56,4.56,0,0,0,.371-3.811,2.172,2.172,0,0,0-3.085-.976c-1.566.976-1.718,4.286-1.31,5.879,0,.1.486,1.321.715,1.9l-.089.052a27.8,27.8,0,0,1-2.986-4.01c-.491-.773-.914-1.566-1.31-2.3a14.728,14.728,0,0,0,3.409-2.861,4.479,4.479,0,0,0,.783-3.743,2.177,2.177,0,0,0-2.96-1.316c-1.655.8-2.172,4.077-1.947,5.7,0,.089.235.976.407,1.618-.172-.345-.355-.7-.522-1.044-.606-1.253-1.081-2.433-1.5-3.488-.23-.6-.423-1.143-.6-1.66a14.709,14.709,0,0,0,1.692-4.088,4.431,4.431,0,0,0-1.044-3.686,2.177,2.177,0,0,0-3.232.2c-1.1,1.472-.047,4.62.9,5.957.078.115,1.566,1.78,1.566,1.749v-.037c.162.522.339,1.044.522,1.608.392,1.044.846,2.261,1.425,3.529a38.175,38.175,0,0,0,2.062,4.01,28.914,28.914,0,0,0,2.924,4.114l.042.042c-.459-.282-1.765-1.044-1.874-1.076-1.509-.647-4.8-1.013-6.014.371a2.182,2.182,0,0,0,.486,3.206,4.551,4.551,0,0,0,3.816.23,14.477,14.477,0,0,0,3.722-2.61,38.638,38.638,0,0,0,3.655,3.587c.757.653,1.54,1.29,2.334,1.911l-.82-.459c-1.509-.647-4.8-1.013-6.014.376a2.177,2.177,0,0,0,.48,3.2,4.543,4.543,0,0,0,3.822.23,14.2,14.2,0,0,0,3.623-2.5l.919.715c1.477,1.128,2.955,2.25,4.37,3.393.5.4.971.82,1.451,1.232-.36-.2-.663-.376-.715-.4-1.5-.647-4.8-1.013-6.009.371a2.182,2.182,0,0,0,.48,3.206,4.562,4.562,0,0,0,3.822.23,13.438,13.438,0,0,0,3.529-2.422c.48.439.955.877,1.4,1.326.3.308.6.59.882.919l.841.95c.522.627,1.044,1.269,1.53,1.89.339.428.658.846.976,1.263-.491-.407-1.472-1.185-1.566-1.237-1.394-.872-4.594-1.733-6-.522a2.172,2.172,0,0,0,0,3.237,4.557,4.557,0,0,0,3.743.809,14.91,14.91,0,0,0,4.046-1.984c.522.694,1.044,1.373,1.5,2.026,1.629,2.245,2.9,4.177,3.764,5.539l.089.141,1.122-.548-.177-.266c-.908-1.357-2.229-3.284-3.921-5.513-.522-.71-1.112-1.451-1.718-2.208a24.565,24.565,0,0,0,1.744-2.161,15.252,15.252,0,0,0,4.328.522c.057.872.1,1.718.136,2.516.115,2.767.11,5.08.078,6.7v.188l1.232-.6c0-1.608-.057-3.775-.225-6.343-.052-.882-.125-1.827-.214-2.793a14.718,14.718,0,0,0,4.177-1.645,4.579,4.579,0,0,0,1.932-3.3,2.177,2.177,0,0,0-2.4-2.182c-1.822.235-3.352,3.174-3.655,4.793,0,.094-.094,1.149-.136,1.812-.037-.392-.068-.778-.11-1.185-.083-.8-.188-1.6-.3-2.459l-.2-1.258c-.057-.418-.172-.851-.261-1.284-.219-1-.491-2-.788-3.007a14.279,14.279,0,0,0,4.265-.976,4.521,4.521,0,0,0,2.407-2.976,2.172,2.172,0,0,0-2.036-2.516c-1.838-.047-3.8,2.61-4.333,4.177-.037.094-.3,1.253-.433,1.89-.183-.6-.36-1.2-.564-1.806-.6-1.738-1.248-3.477-1.9-5.221l-.579-1.6a15.2,15.2,0,0,0,4.422-1,4.6,4.6,0,0,0,2.407-2.971,2.177,2.177,0,0,0-2.036-2.522c-1.838-.042-3.8,2.61-4.333,4.177-.042.12-.418,1.78-.5,2.208-.423-1.175-.835-2.349-1.19-3.524a37.722,37.722,0,0,1-1.169-4.829,15.026,15.026,0,0,0,4.448-1,4.6,4.6,0,0,0,2.407-2.976,2.177,2.177,0,0,0-2.036-2.516c-1.838-.047-3.8,2.61-4.333,4.177-.037.1-.324,1.368-.449,1.973h-.1a28.241,28.241,0,0,1-.277-4.991c0-.919.089-1.8.172-2.647a14.6,14.6,0,0,0,4.422-.522,4.511,4.511,0,0,0,2.725-2.689,2.172,2.172,0,0,0-1.749-2.725c-1.822-.251-4.062,2.2-4.767,3.655-.042.084-.339.945-.553,1.566.047-.386.089-.783.136-1.149.188-1.378.444-2.61.679-3.733.141-.627.277-1.19.412-1.718a14.132,14.132,0,0,0,3.655-2.48,4.583,4.583,0,0,0,1.175-3.655A2.177,2.177,0,0,0,138.1,208.533Z" transform="translate(-100.699 -208.47)" fill="#c2c2cc"/>
          <path id="Path_3534" data-name="Path 3534" d="M102.335,258.448a15.715,15.715,0,0,0,4.312-1.53c.005,0-1.566-1.6-1.66-1.686-1.284-1.044-4.365-2.245-5.894-1.232a2.172,2.172,0,0,0-.381,3.216A4.469,4.469,0,0,0,102.335,258.448Z" transform="translate(-98.168 -230.047)" fill="#c2c2cc"/>
        </g>
        <path id="Path_3535" data-name="Path 3535" d="M114.87,319.964s8.719-21.014,13.6-20.1-8.353,33.5-8.353,33.5,15.339-28.934,25.8-28.934-3.837,31.977-17.082,42.638c0,0,20.915-22.538,33.116-17.662s-24.4,27.712-24.4,27.712,21.264-6.7,18.826-1.519-9.063,6.087-9.063,6.087l24.052,1.222H87.68l18.826-1.827s-19.526-9.747-14.295-13.7,16.733,4.568,16.733,4.568-19.87-21.927-16.038-30.155,20.92,14.926,20.92,14.926-13.945-29.544-11.157-34.708S114.87,319.964,114.87,319.964Z" transform="translate(-87.68 -252.135)" fill="#f0f0f5"/>
        <path id="Path_3536" data-name="Path 3536" d="M114.87,319.964s8.719-21.014,13.6-20.1-8.353,33.5-8.353,33.5,15.339-28.934,25.8-28.934-3.837,31.977-17.082,42.638c0,0,20.915-22.538,33.116-17.662s-24.4,27.712-24.4,27.712,21.264-6.7,18.826-1.519-9.063,6.087-9.063,6.087l24.052,1.222H87.68l18.826-1.827s-19.526-9.747-14.295-13.7,16.733,4.568,16.733,4.568-19.87-21.927-16.038-30.155,20.92,14.926,20.92,14.926-13.945-29.544-11.157-34.708S114.87,319.964,114.87,319.964Z" transform="translate(-87.68 -252.135)" fill="#f0f0f5" opacity="0.5"/>
        <path id="Path_3537" data-name="Path 3537" d="M124.527,340.51c7.669,22.664,7.669,38.7,7.669,38.7s-9.063.345-18.476-6.625" transform="translate(-100.125 -271.575)" fill="none" stroke="#263238" stroke-linecap="round" stroke-linejoin="round" stroke-width="1"/>
        <path id="Path_3538" data-name="Path 3538" d="M141.77,345.7a135.925,135.925,0,0,1,6.265-19.876" transform="translate(-113.531 -264.554)" fill="none" stroke="#263238" stroke-linecap="round" stroke-linejoin="round" stroke-width="1"/>
        <path id="Path_3539" data-name="Path 3539" d="M151.023,338.51,131.5,367.449s-13.25-11.157-17.782-17.432" transform="translate(-100.125 -270.619)" fill="none" stroke="#263238" stroke-linecap="round" stroke-linejoin="round" stroke-width="1"/>
        <path id="Path_3540" data-name="Path 3540" d="M148.45,393.249s20.565-9.763,28.934-15.339" transform="translate(-116.723 -289.449)" fill="none" stroke="#263238" stroke-linecap="round" stroke-linejoin="round" stroke-width="1"/>
        <path id="Path_3541" data-name="Path 3541" d="M303.484,319.964s-8.714-21.014-13.574-20.1,8.353,33.5,8.353,33.5-15.339-28.934-25.8-28.934,3.832,31.977,17.082,42.638c0,0-20.92-22.538-33.121-17.662s24.407,27.712,24.407,27.712-21.27-6.7-18.826-1.519,9.063,6.087,9.063,6.087L247,362.91h83.679l-18.826-1.827s19.521-9.747,14.295-13.7-16.738,4.568-16.738,4.568,19.876-21.927,16.038-30.155-20.92,14.926-20.92,14.926,13.95-29.545,11.157-34.724S303.484,319.964,303.484,319.964Z" transform="translate(-163.822 -252.135)" fill="#f0f0f5"/>
        <path id="Path_3542" data-name="Path 3542" d="M303.484,319.964s-8.714-21.014-13.574-20.1,8.353,33.5,8.353,33.5-15.339-28.934-25.8-28.934,3.832,31.977,17.082,42.638c0,0-20.92-22.538-33.121-17.662s24.407,27.712,24.407,27.712-21.27-6.7-18.826-1.519,9.063,6.087,9.063,6.087L247,362.91h83.679l-18.826-1.827s19.521-9.747,14.295-13.7-16.738,4.568-16.738,4.568,19.876-21.927,16.038-30.155-20.92,14.926-20.92,14.926,13.95-29.545,11.157-34.724S303.484,319.964,303.484,319.964Z" transform="translate(-163.822 -252.135)" fill="#f0f0f5" opacity="0.5"/>
        <path id="Path_3543" data-name="Path 3543" d="M353.509,340.51c-7.669,22.664-7.669,38.7-7.669,38.7s9.063.345,18.477-6.625" transform="translate(-211.06 -271.575)" fill="none" stroke="#263238" stroke-linecap="round" stroke-linejoin="round" stroke-width="1"/>
        <path id="Path_3544" data-name="Path 3544" d="M347.455,345.7a135.937,135.937,0,0,0-6.265-19.876" transform="translate(-208.837 -264.554)" fill="none" stroke="#263238" stroke-linecap="round" stroke-linejoin="round" stroke-width="1"/>
        <path id="Path_3545" data-name="Path 3545" d="M309.78,338.51l19.526,28.939s13.245-11.157,17.777-17.432" transform="translate(-193.826 -270.619)" fill="none" stroke="#263238" stroke-linecap="round" stroke-linejoin="round" stroke-width="1"/>
        <path id="Path_3546" data-name="Path 3546" d="M320.019,393.249s-20.57-9.763-28.939-15.339" transform="translate(-184.889 -289.449)" fill="none" stroke="#263238" stroke-linecap="round" stroke-linejoin="round" stroke-width="1"/>
      </g>
      <g id="freepik--Device--inject-6" transform="translate(54.986 26.086)">
        <rect id="Rectangle_2954" data-name="Rectangle 2954" width="87.657" height="157.977" rx="6.75" transform="translate(0)" fill="#c2c2cc" stroke="#263238" stroke-miterlimit="10" stroke-width="1"/>
        <path id="Path_3547" data-name="Path 3547" d="M251.624,137.53H240.712a1.122,1.122,0,0,1-1.122-1.122h0a1.117,1.117,0,0,1,1.122-1.117h10.911a1.117,1.117,0,0,1,1.117,1.117h0a1.117,1.117,0,0,1-1.117,1.122Z" transform="translate(-201.734 -128.09)" fill="#aaaab3"/>
        <path id="Path_3548" data-name="Path 3548" d="M254.269,274.12H177.69V139.83h18.153l2.041,1.692a3.947,3.947,0,0,0,2.537.919h32.024a3.989,3.989,0,0,0,2.61-.992l1.843-1.618h17.354Z" transform="translate(-172.151 -130.26)" fill="#fff" stroke="#263238" stroke-linecap="round" stroke-linejoin="round" stroke-width="0.939"/>
        <path id="Path_3549" data-name="Path 3549" d="M211.456,155.578l-1.044-3.508H184.35V276.351h69.86V155.578Z" transform="translate(-175.334 -136.11)" fill="#f0f0f5"/>
        <rect id="Rectangle_2955" data-name="Rectangle 2955" width="64.947" height="110.587" transform="translate(11.47 25.791)" fill="#fff"/>
        <path id="Path_3550" data-name="Path 3550" d="M252.528,403.4a1.744,1.744,0,1,0-1.744,1.739A1.744,1.744,0,0,0,252.528,403.4Z" transform="translate(-206.25 -255.389)" fill="#aaaab3"/>
      </g>
      <g id="freepik--Message--inject-6" transform="translate(72.668 32.67)">
        <ellipse id="Ellipse_165" data-name="Ellipse 165" cx="21.384" cy="30.427" rx="21.384" ry="30.427" transform="translate(0 64.112)" fill="#f0f0f5"/>
        <ellipse id="Ellipse_166" data-name="Ellipse 166" cx="21.384" cy="30.427" rx="21.384" ry="30.427" transform="translate(0 64.112)" fill="#f7f7fa" opacity="0.5"/>
        <path id="Path_3551" data-name="Path 3551" d="M226.749,247.993s-1.337-2.234-2.563-2.344-15.835,9.058-18.069,13.83a24.665,24.665,0,0,0,1.566,23.562c5.769,8.964,14.811,8.667,19.5,8.218s7.831-1.973,12.582-5.785,9.11-9.423,9.742-13.235-1.692-5.931-3.174-6.458-10.06-.423-16.31-6.787S226.749,247.993,226.749,247.993Z" transform="translate(-202.331 -187.416)" fill="#c2c2cc" stroke="#c2c2cc" stroke-linecap="round" stroke-linejoin="round" stroke-width="1"/>
        <path id="Path_3552" data-name="Path 3552" d="M242.16,244.58a18.543,18.543,0,0,0-6.134,4.015c-2.344,2.563-3.79,6.583-3.9,12.493s1.785,12.6,9.142,15.5,13.94.668,16.059-1.342,4.7-7.69,4.7-7.69-11.705,3.133-17.281-3.461S242.16,244.58,242.16,244.58Z" transform="translate(-215.847 -186.906)" fill="#fff" stroke="#263238" stroke-linecap="round" stroke-linejoin="round" stroke-width="1"/>
        <path id="Path_3553" data-name="Path 3553" d="M312.507,195.9c-2.861-4.292-9.69-5.56-15.088-7.309s-8.578-5.221-7.147-13.814,8.875-22.554,8.734-25.1-25.728-2.381-28.114-1.566-2.856.632-5.08,3.493a39.59,39.59,0,0,0-3.336,4.892l2.757-5.8h.2a7.31,7.31,0,0,1,1.258-2.088,16.054,16.054,0,0,0,3.89-10.1c.1-5.466-3.785-4.939-4.521-3.258s-5.043,7.466-6.307,9.042-3.89,5.889-3.89,5.889l-2.918,10.118s-.637,3.018-4.292,14.456-2.062,16.712-2.062,16.712-.955-.475-3.179,6.354-1.269,15.563,2.7,19.693,9.215,3.973,15.093,1.592a18.069,18.069,0,0,0,8.578-7.654,34.3,34.3,0,0,0,10.8-5.08c4.6-3.514,8.1-7.147,14.78-6.829s14.295,4.13,16.837,3.968S315.368,200.19,312.507,195.9Z" transform="translate(-220.684 -134.11)" fill="#fff"/>
        <g id="Group_3324" data-name="Group 3324" transform="translate(21.557 0)" clip-path="url(#clip-path)">
          <path id="Path_3554" data-name="Path 3554" d="M271.181,223.731c-17.673,2.637-23.227,6.855-21.463,12.66a8.976,8.976,0,0,0,1.749,3.132,1.423,1.423,0,0,0,.031.355s.313.188.783.522a14.983,14.983,0,0,0,2,1.624c1.159,1.1,2.2,2.48,1.984,3.759-.454,2.725-6.787,7.487-9.987,7.716s-4.312-2.95-4.767.454,6.583,11.8,13.391,10.891S267.385,254.4,267.385,254.4s-.908-1.566,3.655-6.354c3-3.133,7.283-4.516,10.567-5.8a60.388,60.388,0,0,0,9.037-3.467c8.077-3.957,17.672-1.316,17.672-1.316S288.853,221.064,271.181,223.731Z" transform="translate(-241.882 -176.801)" fill="#f0f0f5"/>
          <path id="Path_3555" data-name="Path 3555" d="M271.181,223.731c-17.673,2.637-23.227,6.855-21.463,12.66a8.976,8.976,0,0,0,1.749,3.132,1.423,1.423,0,0,0,.031.355s.313.188.783.522a14.983,14.983,0,0,0,2,1.624c1.159,1.1,2.2,2.48,1.984,3.759-.454,2.725-6.787,7.487-9.987,7.716s-4.312-2.95-4.767.454,6.583,11.8,13.391,10.891S267.385,254.4,267.385,254.4s-.908-1.566,3.655-6.354c3-3.133,7.283-4.516,10.567-5.8a60.388,60.388,0,0,0,9.037-3.467c8.077-3.957,17.672-1.316,17.672-1.316S288.853,221.064,271.181,223.731Z" transform="translate(-241.882 -176.801)" fill="#f0f0f5" opacity="0.5"/>
        </g>
        <path id="Path_3557" data-name="Path 3557" d="M312.507,195.9c-2.861-4.292-9.69-5.56-15.088-7.309s-8.578-5.221-7.147-13.814,8.875-22.554,8.734-25.1-25.728-2.381-28.114-1.566-2.856.632-5.08,3.493a39.59,39.59,0,0,0-3.336,4.892l2.757-5.8h.2a7.31,7.31,0,0,1,1.258-2.088,16.054,16.054,0,0,0,3.89-10.1c.1-5.466-3.785-4.939-4.521-3.258s-5.043,7.466-6.307,9.042-3.89,5.889-3.89,5.889l-2.918,10.118s-.637,3.018-4.292,14.456-2.062,16.712-2.062,16.712-.955-.475-3.179,6.354-1.269,15.563,2.7,19.693,9.215,3.973,15.093,1.592a18.069,18.069,0,0,0,8.578-7.654,34.3,34.3,0,0,0,10.8-5.08c4.6-3.514,8.1-7.147,14.78-6.829s14.295,4.13,16.837,3.968S315.368,200.19,312.507,195.9Z" transform="translate(-220.684 -134.11)" fill="none" stroke="#263238" stroke-linecap="round" stroke-linejoin="round" stroke-width="1"/>
        <path id="Path_3558" data-name="Path 3558" d="M368.938,263.291s.334-1.337-3.456-3.133-5.351-.559-5.351.334S368.353,263.291,368.938,263.291Z" transform="translate(-277.025 -193.912)" fill="#fff" stroke="#263238" stroke-linecap="round" stroke-linejoin="round" stroke-width="1"/>
        <path id="Path_3559" data-name="Path 3559" d="M299.455,149.639,289.89,157h12.828S302.718,147.958,299.455,149.639Z" transform="translate(-243.456 -141.432)" fill="#fff" stroke="#263238" stroke-linecap="round" stroke-linejoin="round" stroke-width="1"/>
        <path id="Path_3560" data-name="Path 3560" d="M285.23,248.314a13.366,13.366,0,0,1,4.949-3.514" transform="translate(-241.229 -187.011)" fill="none" stroke="#263238" stroke-linecap="round" stroke-linejoin="round" stroke-width="1"/>
        <path id="Path_3561" data-name="Path 3561" d="M281.9,255.886a6.412,6.412,0,0,1,.569-1.216" transform="translate(-239.637 -191.728)" fill="none" stroke="#263238" stroke-linecap="round" stroke-linejoin="round" stroke-width="1"/>
        <path id="Path_3562" data-name="Path 3562" d="M273.29,274.667a14.036,14.036,0,0,1-1.431-1.457" transform="translate(-234.839 -200.589)" fill="none" stroke="#263238" stroke-linecap="round" stroke-linejoin="round" stroke-width="1"/>
        <path id="Path_3563" data-name="Path 3563" d="M287.21,280.684a14,14,0,0,1-8.51-1.744" transform="translate(-238.108 -203.327)" fill="none" stroke="#263238" stroke-linecap="round" stroke-linejoin="round" stroke-width="1"/>
        <path id="Path_3564" data-name="Path 3564" d="M308.348,162.72h-48.2c-6.656,0-12.05,5.153-12.05,11.486v22.711a11.65,11.65,0,0,0,9.518,11.251l-2.543,7.523,11.768-7.246h41.505c6.651,0,12.05-5.153,12.05-11.486V174.248A11.794,11.794,0,0,0,308.348,162.72Z" transform="translate(-223.484 -147.783)" fill="#f0f0f5" stroke="#263238" stroke-miterlimit="10" stroke-width="1"/>
        <line id="Line_80" data-name="Line 80" x2="54.182" transform="translate(32.463 30.229)" fill="none" stroke="#c2c2cc" stroke-linecap="round" stroke-miterlimit="10" stroke-width="2.064"/>
        <line id="Line_81" data-name="Line 81" x2="54.182" transform="translate(32.463 35.81)" fill="none" stroke="#c2c2cc" stroke-linecap="round" stroke-miterlimit="10" stroke-width="2.064"/>
        <line id="Line_82" data-name="Line 82" x2="54.182" transform="translate(32.463 41.385)" fill="none" stroke="#c2c2cc" stroke-linecap="round" stroke-miterlimit="10" stroke-width="2.064"/>
        <line id="Line_83" data-name="Line 83" x2="54.182" transform="translate(32.463 46.961)" fill="none" stroke="#c2c2cc" stroke-linecap="round" stroke-miterlimit="10" stroke-width="2.064"/>
        <path id="Path_3566" data-name="Path 3566" d="M335.978,151.623a7.928,7.928,0,0,0,4,6.2c3.785,2,8.62,1.566,8.724-.945s-2.84-5.153-4.835-8.52-6.416-1.467-8.306.846" transform="translate(-265.283 -140.049)" fill="#fff" stroke="#263238" stroke-linecap="round" stroke-linejoin="round" stroke-width="1"/>
        <path id="Path_3567" data-name="Path 3567" d="M348.8,160.923a2.846,2.846,0,0,0,1.89,3.132A3.9,3.9,0,0,0,355,162.8a6.639,6.639,0,0,0-1.566-3.837C352.121,159.127,349.046,159.607,348.8,160.923Z" transform="translate(-271.585 -145.986)" fill="#fff" stroke="#263238" stroke-linecap="round" stroke-linejoin="round" stroke-width="1"/>
        <path id="Path_3568" data-name="Path 3568" d="M320.873,151.623a7.915,7.915,0,0,0,3.994,6.2c3.785,2,8.625,1.566,8.729-.945s-2.84-5.153-4.84-8.52-6.411-1.467-8.306.846" transform="translate(-258.061 -140.049)" fill="#fff" stroke="#263238" stroke-linecap="round" stroke-linejoin="round" stroke-width="1"/>
        <path id="Path_3569" data-name="Path 3569" d="M333.7,160.923a2.846,2.846,0,0,0,1.89,3.132A3.9,3.9,0,0,0,339.9,162.8a6.711,6.711,0,0,0-1.566-3.837C337.021,159.127,333.946,159.607,333.7,160.923Z" transform="translate(-264.368 -145.986)" fill="#fff" stroke="#263238" stroke-linecap="round" stroke-linejoin="round" stroke-width="1"/>
        <path id="Path_3570" data-name="Path 3570" d="M306.823,151.623a7.915,7.915,0,0,0,3.994,6.2c3.785,2,8.62,1.566,8.724-.945s-2.835-5.153-4.835-8.52-6.416-1.467-8.306.846" transform="translate(-251.347 -140.049)" fill="#fff" stroke="#263238" stroke-linecap="round" stroke-linejoin="round" stroke-width="1"/>
        <path id="Path_3571" data-name="Path 3571" d="M319.642,160.923a2.849,2.849,0,0,0,1.9,3.132,3.884,3.884,0,0,0,4.307-1.258,6.639,6.639,0,0,0-1.566-3.837C322.963,159.127,319.888,159.607,319.642,160.923Z" transform="translate(-257.65 -145.986)" fill="#fff" stroke="#263238" stroke-linecap="round" stroke-linejoin="round" stroke-width="1"/>
        <path id="Path_3572" data-name="Path 3572" d="M250.58,244s.292,6.463,3.858,10.812" transform="translate(-224.669 -186.628)" fill="none" stroke="#263238" stroke-linecap="round" stroke-linejoin="round" stroke-width="1"/>
        <path id="Path_3573" data-name="Path 3573" d="M227.116,293.491a2,2,0,1,1-1.958-2.381A2.2,2.2,0,0,1,227.116,293.491Z" transform="translate(-211.584 -209.143)" fill="#fff"/>
        <path id="Path_3574" data-name="Path 3574" d="M217.786,299.166a2,2,0,1,1-1.958-2.386A2.2,2.2,0,0,1,217.786,299.166Z" transform="translate(-207.125 -211.853)" fill="none" stroke="#263238" stroke-linecap="round" stroke-linejoin="round" stroke-width="1"/>
      </g>
    </g>
  </g>
</svg>
