<svg xmlns="http://www.w3.org/2000/svg" width="148.898" height="148" viewBox="0 0 148.898 148">
  <g id="Self_confidence-bro" data-name="Self confidence-bro" transform="translate(-8.062 -18.818)">
    <rect id="Rectangle_3307" data-name="Rectangle 3307" width="148" height="148" transform="translate(8.511 18.818)" fill="none"/>
    <g id="Empty-rafiki" transform="translate(-5.37 -27.664)">
      <g id="freepik--background-complete--inject-3" transform="translate(0 55)">
        <rect id="Rectangle_3825" data-name="Rectangle 3825" width="148.898" height="0.088" transform="translate(13.432 115.089)" fill="#ebebeb"/>
        <rect id="Rectangle_3826" data-name="Rectangle 3826" width="11.642" height="0.088" transform="translate(146.508 120.745)" fill="#ebebeb"/>
        <rect id="Rectangle_3827" data-name="Rectangle 3827" width="3.055" height="0.088" transform="translate(113.377 121.701)" fill="#ebebeb"/>
        <rect id="Rectangle_3828" data-name="Rectangle 3828" width="6.746" height="0.088" transform="translate(139.411 117.483)" fill="#ebebeb"/>
        <rect id="Rectangle_3829" data-name="Rectangle 3829" width="15.182" height="0.088" transform="translate(18.441 118.073)" fill="#ebebeb"/>
        <rect id="Rectangle_3830" data-name="Rectangle 3830" width="2.225" height="0.088" transform="translate(36.755 118.073)" fill="#ebebeb"/>
        <rect id="Rectangle_3831" data-name="Rectangle 3831" width="32.931" height="0.088" transform="translate(46.215 119.557)" fill="#ebebeb"/>
        <path id="Path_4589" data-name="Path 4589" d="M108.089,154.411H40.214a2.007,2.007,0,0,1-2-2.007V56.99a2.007,2.007,0,0,1,2-1.99h67.876a2.007,2.007,0,0,1,2.007,2.007v95.4A2.007,2.007,0,0,1,108.089,154.411ZM40.214,55.07A1.919,1.919,0,0,0,38.3,56.99V152.4a1.919,1.919,0,0,0,1.916,1.919h67.876a1.923,1.923,0,0,0,1.919-1.919V56.99a1.923,1.923,0,0,0-1.919-1.919Z" transform="translate(-24.778 -55)" fill="#ebebeb"/>
        <path id="Path_4590" data-name="Path 4590" d="M324.386,154.411H256.507A2.011,2.011,0,0,1,254.5,152.4V56.99A2.011,2.011,0,0,1,256.507,55h67.879a2.007,2.007,0,0,1,2,1.99V152.4A2.007,2.007,0,0,1,324.386,154.411ZM256.507,55.07a1.923,1.923,0,0,0-1.919,1.919V152.4a1.923,1.923,0,0,0,1.919,1.919h67.879a1.923,1.923,0,0,0,1.919-1.919V56.99a1.923,1.923,0,0,0-1.919-1.919Z" transform="translate(-165.037 -55)" fill="#ebebeb"/>
        <rect id="Rectangle_3832" data-name="Rectangle 3832" width="44.44" height="3.136" transform="translate(32.351 81.156)" fill="#ebebeb"/>
        <rect id="Rectangle_3833" data-name="Rectangle 3833" width="19.323" height="3.136" transform="translate(57.467 81.156)" fill="#e0e0e0"/>
        <rect id="Rectangle_3834" data-name="Rectangle 3834" width="6.566" height="30.797" transform="translate(32.351 84.292)" fill="#ebebeb"/>
        <path id="Path_4591" data-name="Path 4591" d="M98.6,297.968l-6.566-2.236v-.942H98.6Z" transform="translate(-59.679 -210.498)" fill="#e0e0e0"/>
        <rect id="Rectangle_3835" data-name="Rectangle 3835" width="6.566" height="30.797" transform="translate(70.224 84.292)" fill="#e0e0e0"/>
        <rect id="Rectangle_3836" data-name="Rectangle 3836" width="6.566" height="30.797" transform="translate(57.467 84.292)" fill="#ebebeb"/>
        <path id="Path_4592" data-name="Path 4592" d="M170.043,297.968l-6.563-2.236v-.942h6.563Z" transform="translate(-106.013 -210.498)" fill="#e0e0e0"/>
        <rect id="Rectangle_3837" data-name="Rectangle 3837" width="6.566" height="30.797" transform="translate(45.107 84.292)" fill="#e0e0e0"/>
        <rect id="Rectangle_3838" data-name="Rectangle 3838" width="56.008" height="47.691" transform="translate(24.958 11.309)" fill="#ebebeb"/>
        <rect id="Rectangle_3839" data-name="Rectangle 3839" width="0.626" height="47.691" transform="translate(81.592 58.996) rotate(180)" fill="#e0e0e0"/>
        <rect id="Rectangle_3840" data-name="Rectangle 3840" width="43.473" height="51.79" transform="translate(78.861 13.414) rotate(90)" fill="#f5f5f5"/>
        <path id="Path_4593" data-name="Path 4593" d="M148.89,153.5c3.164-10.546,4.043-26.1,10.771-23.956s-2.085,25.144-2.085,25.144Z" transform="translate(-96.552 -103.208)" fill="#fff"/>
        <path id="Path_4594" data-name="Path 4594" d="M133.25,134.766c-3.22-15.284-2.408-35.574-12.412-35.11s0,35.775,0,35.775Z" transform="translate(-75.477 -83.953)" fill="#fff"/>
        <path id="Path_4595" data-name="Path 4595" d="M140.678,194.668h-21.9a1.7,1.7,0,0,0-1.758,1.621,90.8,90.8,0,0,0,4.282,30.438H138.07a90.862,90.862,0,0,0,4.282-30.438A1.687,1.687,0,0,0,140.678,194.668Z" transform="translate(-75.836 -145.571)" fill="#ebebeb"/>
        <rect id="Rectangle_3841" data-name="Rectangle 3841" width="1.234" height="98.462" transform="translate(113.433 16.627)" fill="#e0e0e0"/>
        <rect id="Rectangle_3842" data-name="Rectangle 3842" width="1.234" height="98.462" transform="translate(142.43 16.627)" fill="#e0e0e0"/>
        <rect id="Rectangle_3843" data-name="Rectangle 3843" width="1.234" height="98.462" transform="translate(104.684 16.627)" fill="#ebebeb"/>
        <rect id="Rectangle_3844" data-name="Rectangle 3844" width="1.234" height="98.462" transform="translate(133.681 16.627)" fill="#ebebeb"/>
        <rect id="Rectangle_3845" data-name="Rectangle 3845" width="38.98" height="1.346" transform="translate(104.684 15.952)" fill="#ebebeb"/>
        <rect id="Rectangle_3846" data-name="Rectangle 3846" width="38.98" height="1.346" transform="translate(104.684 40.063)" fill="#ebebeb"/>
        <rect id="Rectangle_3847" data-name="Rectangle 3847" width="38.98" height="1.346" transform="translate(104.684 64.174)" fill="#ebebeb"/>
        <rect id="Rectangle_3848" data-name="Rectangle 3848" width="38.98" height="1.346" transform="translate(104.684 88.285)" fill="#ebebeb"/>
        <rect id="Rectangle_3849" data-name="Rectangle 3849" width="38.98" height="1.346" transform="translate(104.684 112.396)" fill="#ebebeb"/>
        <rect id="Rectangle_3850" data-name="Rectangle 3850" width="8.749" height="1.346" transform="translate(134.915 15.952)" fill="#e0e0e0"/>
        <rect id="Rectangle_3851" data-name="Rectangle 3851" width="8.749" height="1.346" transform="translate(134.915 40.063)" fill="#e0e0e0"/>
        <rect id="Rectangle_3852" data-name="Rectangle 3852" width="8.749" height="1.346" transform="translate(134.915 64.174)" fill="#e0e0e0"/>
        <rect id="Rectangle_3853" data-name="Rectangle 3853" width="8.749" height="1.346" transform="translate(134.915 88.285)" fill="#e0e0e0"/>
        <rect id="Rectangle_3854" data-name="Rectangle 3854" width="8.749" height="1.346" transform="translate(134.915 112.396)" fill="#e0e0e0"/>
        <path id="Path_4596" data-name="Path 4596" d="M325.6,120.208v-1.9h-4.686v1.9a2.246,2.246,0,0,1-2.243,2.246h0a2.246,2.246,0,0,0-2.246,2.243v11.432H330.1V124.7a2.246,2.246,0,0,0-2.246-2.243h0A2.246,2.246,0,0,1,325.6,120.208Z" transform="translate(-205.197 -96.055)" fill="#f0f0f0"/>
        <rect id="Rectangle_3855" data-name="Rectangle 3855" width="20.536" height="7.842" transform="translate(109.57 56.335)" fill="#f0f0f0"/>
        <rect id="Rectangle_3856" data-name="Rectangle 3856" width="3.575" height="7.842" transform="translate(133.681 64.174) rotate(180)" fill="#e6e6e6"/>
        <rect id="Rectangle_3857" data-name="Rectangle 3857" width="3.575" height="0.865" transform="translate(133.681 60.687) rotate(180)" fill="#ebebeb"/>
        <rect id="Rectangle_3858" data-name="Rectangle 3858" width="20.536" height="0.865" transform="translate(109.57 59.822)" fill="#f5f5f5"/>
        <rect id="Rectangle_3859" data-name="Rectangle 3859" width="16.04" height="13.864" transform="translate(108.564 98.532)" fill="#f0f0f0"/>
        <rect id="Rectangle_3860" data-name="Rectangle 3860" width="2.791" height="13.864" transform="translate(127.396 112.4) rotate(180)" fill="#e6e6e6"/>
        <rect id="Rectangle_3861" data-name="Rectangle 3861" width="2.791" height="1.529" transform="translate(127.396 106.23) rotate(180)" fill="#ebebeb"/>
        <rect id="Rectangle_3862" data-name="Rectangle 3862" width="16.04" height="1.529" transform="translate(108.564 104.701)" fill="#f5f5f5"/>
        <rect id="Rectangle_3863" data-name="Rectangle 3863" width="2.791" height="0.545" transform="translate(127.396 103.629) rotate(180)" fill="#ebebeb"/>
        <rect id="Rectangle_3864" data-name="Rectangle 3864" width="16.04" height="0.545" transform="translate(108.564 103.084)" fill="#f5f5f5"/>
        <rect id="Rectangle_3865" data-name="Rectangle 3865" width="2.904" height="14.096" transform="translate(109.57 74.189)" fill="#f0f0f0"/>
        <rect id="Rectangle_3866" data-name="Rectangle 3866" width="2.904" height="4.05" transform="translate(109.57 79.212)" fill="#fafafa"/>
        <rect id="Rectangle_3867" data-name="Rectangle 3867" width="9.878" height="14.096" transform="translate(122.351 88.289) rotate(180)" fill="#e6e6e6"/>
        <rect id="Rectangle_3868" data-name="Rectangle 3868" width="3.28" height="15.917" transform="translate(113.679 72.368)" fill="#ebebeb"/>
        <rect id="Rectangle_3869" data-name="Rectangle 3869" width="3.28" height="2.45" transform="translate(113.679 77.427)" fill="#fafafa"/>
        <rect id="Rectangle_3870" data-name="Rectangle 3870" width="3.28" height="2.45" transform="translate(113.679 81.518)" fill="#fafafa"/>
        <rect id="Rectangle_3871" data-name="Rectangle 3871" width="11.154" height="15.917" transform="translate(128.116 88.285) rotate(180)" fill="#e0e0e0"/>
        <rect id="Rectangle_3872" data-name="Rectangle 3872" width="1.768" height="14.096" transform="translate(118.843 74.189)" fill="#f0f0f0"/>
        <rect id="Rectangle_3873" data-name="Rectangle 3873" width="1.16" height="10.525" transform="translate(119.145 75.975)" fill="#fafafa"/>
        <rect id="Rectangle_3874" data-name="Rectangle 3874" width="6.008" height="14.096" transform="translate(126.615 88.289) rotate(180)" fill="#e6e6e6"/>
        <rect id="Rectangle_3875" data-name="Rectangle 3875" width="1.997" height="14.838" transform="translate(123.336 73.447)" fill="#ebebeb"/>
        <rect id="Rectangle_3876" data-name="Rectangle 3876" width="1.997" height="2.285" transform="translate(123.336 78.161)" fill="#fafafa"/>
        <rect id="Rectangle_3877" data-name="Rectangle 3877" width="1.997" height="2.285" transform="translate(123.336 81.979)" fill="#fafafa"/>
        <rect id="Rectangle_3878" data-name="Rectangle 3878" width="6.784" height="14.838" transform="translate(132.117 88.285) rotate(180)" fill="#e0e0e0"/>
        <circle id="Ellipse_272" data-name="Ellipse 272" cx="4.373" cy="4.373" r="4.373" transform="translate(115.148 51.962) rotate(-45)" fill="#f5f5f5"/>
        <circle id="Ellipse_273" data-name="Ellipse 273" cx="3.03" cy="3.03" r="3.03" transform="translate(122.696 50.789) rotate(-9.22)" fill="#ebebeb"/>
      </g>
      <g id="freepik--Shadow--inject-3" transform="translate(19.724 178.005)">
        <ellipse id="freepik--path--inject-3" cx="68.157" cy="3.979" rx="68.157" ry="3.979" fill="#f5f5f5"/>
      </g>
      <g id="freepik--Box--inject-3" transform="translate(40.22 148.695)">
        <path id="Path_4597" data-name="Path 4597" d="M126.11,338.69h45.15V362a2.274,2.274,0,0,1-2.274,2.274h-40.6A2.274,2.274,0,0,1,126.11,362Z" transform="translate(-122 -332.661)" fill="#c2c2cc"/>
        <path id="Path_4598" data-name="Path 4598" d="M118.527,327.569h31.95l-3.93-5.03a3.381,3.381,0,0,0-2.39-1H115.423c-.886,0-1.258.446-.826,1Z" transform="translate(-114.417 -321.54)" fill="#c2c2cc"/>
        <path id="Path_4599" data-name="Path 4599" d="M118.527,327.569h31.95l-3.93-5.03a3.381,3.381,0,0,0-2.39-1H115.423c-.886,0-1.258.446-.826,1Z" transform="translate(-114.417 -321.54)" opacity="0.2"/>
        <path id="Path_4600" data-name="Path 4600" d="M195.616,331.44H163.67l3.93-3.28a4.493,4.493,0,0,1,2.39-.65h28.73c.889,0,1.258.292.826.65Z" transform="translate(-146.356 -325.411)" fill="#c2c2cc"/>
        <path id="Path_4601" data-name="Path 4601" d="M163.67,338.69h31.946V362a2.274,2.274,0,0,1-2.274,2.274h-27.4A2.274,2.274,0,0,1,163.67,362Z" transform="translate(-146.356 -332.661)" fill="#fff" opacity="0.2"/>
        <path id="Path_4602" data-name="Path 4602" d="M137.39,338.69v15.987l1.1-.872.777.872.675-.97.693.97.963-.728,1.062.728V338.69Z" transform="translate(-129.314 -332.661)" fill="#fff" opacity="0.5"/>
      </g>
      <g id="freepik--Character--inject-3" transform="translate(45.695 65.567)">
        <line id="Line_235" data-name="Line 235" x1="5.677" y1="4.767" transform="translate(4.071 49.516)" fill="none" stroke="#c2c2cc" stroke-miterlimit="10" stroke-width="1"/>
        <line id="Line_236" data-name="Line 236" x1="1.729" y1="1.455" transform="translate(10.96 55.298)" fill="none" stroke="#c2c2cc" stroke-miterlimit="10" stroke-width="1"/>
        <path id="Path_4603" data-name="Path 4603" d="M167.368,193.085,186.1,169.677,161.16,148.74,144.638,167.7l-2.461,4.742a1.322,1.322,0,0,0,.165,1.93l22.5,18.891A1.863,1.863,0,0,0,167.368,193.085Z" transform="translate(-137.671 -126.355)" fill="#c2c2cc"/>
        <path id="Path_4604" data-name="Path 4604" d="M172.956,225.78l-2.7,4.341,1.086.236.369,1.005.721.042.334.861.882.257.678,1.079,2.7-4.341Z" transform="translate(-156.104 -176.314)" fill="#fff" opacity="0.5"/>
        <path id="Path_4605" data-name="Path 4605" d="M190.434,168.991l-16.8,18.736L149.78,167.7l16.532-18.958Z" transform="translate(-142.823 -126.355)" opacity="0.1"/>
        <path id="Path_4606" data-name="Path 4606" d="M234.446,206.35l-16.8,18.736,6.953.513,16.536-18.958Z" transform="translate(-186.835 -163.714)" fill="#c2c2cc"/>
        <path id="Path_4607" data-name="Path 4607" d="M234.446,206.35l-16.8,18.736,6.953.513,16.536-18.958Z" transform="translate(-186.835 -163.714)" opacity="0.3"/>
        <path id="Path_4608" data-name="Path 4608" d="M146.789,147.9l-16.8,18.74,6.957.513L153.479,148.2Z" transform="translate(-129.99 -125.81)" fill="#c2c2cc"/>
        <path id="Path_4609" data-name="Path 4609" d="M146.789,147.9l-16.8,18.74,6.957.513L153.479,148.2Z" transform="translate(-129.99 -125.81)" opacity="0.4"/>
        <path id="Path_4610" data-name="Path 4610" d="M210.067,174.76l5.171-5.768L191.116,148.74l-3.086,7.438Z" transform="translate(-167.628 -126.355)" opacity="0.1"/>
        <path id="Path_4611" data-name="Path 4611" d="M149.78,167.7l16.532-18.958-3.086,7.438-11.642,13.034Z" transform="translate(-142.823 -126.355)" opacity="0.2"/>
        <path id="Path_4612" data-name="Path 4612" d="M280.966,105.369c.067.225,0,.446-.148.489s-.32-.105-.387-.33,0-.446.148-.492S280.9,105.144,280.966,105.369Z" transform="translate(-227.531 -98.008)" fill="#263238"/>
        <path id="Path_4613" data-name="Path 4613" d="M281.123,107.26a8.435,8.435,0,0,1-.513,2.26,1.367,1.367,0,0,0,1.146-.116Z" transform="translate(-227.664 -99.456)" fill="#ed847e"/>
        <path id="Path_4614" data-name="Path 4614" d="M280.895,101.1a.141.141,0,0,0,.063-.077.134.134,0,0,0-.084-.176,1.371,1.371,0,0,0-1.258.144.141.141,0,0,0,.169.221h0a1.1,1.1,0,0,1,1-.105A.141.141,0,0,0,280.895,101.1Z" transform="translate(-226.992 -95.236)" fill="#263238"/>
        <path id="Path_4615" data-name="Path 4615" d="M294.409,109.594c.155,1.863.615,5.273,1.715,6.06,0,0-.26,2.239-4.218,2.812-4.338.64-2.39-1.849-2.39-1.849,2.281-.914,1.961-2.661,1.308-4.25l1.673-1.919C293.14,109.738,294.325,108.642,294.409,109.594Z" transform="translate(-233.156 -100.729)" fill="#ffc3bd"/>
        <path id="Path_4616" data-name="Path 4616" d="M297.382,126.5c.352-.32-.352-1.6-.784-1.779-1.132-.475-5.761,0-7.5,1.494a1.919,1.919,0,0,0-.137,1.649Z" transform="translate(-232.997 -110.666)" fill="#fff"/>
        <path id="Path_4617" data-name="Path 4617" d="M353.539,396.311a.942.942,0,0,1-.731.021.288.288,0,0,1-.095-.316.32.32,0,0,1,.162-.218c.38-.221,1.318.07,1.357.084a.067.067,0,0,1,.049.056.07.07,0,0,1-.035.07,3.78,3.78,0,0,1-.707.3Zm-.513-.429-.081.035a.19.19,0,0,0-.095.127c-.025.127.025.165.039.176.169.12.742-.053,1.139-.253A2.3,2.3,0,0,0,353.026,395.882Z" transform="translate(-274.411 -286.512)" fill="#c2c2cc"/>
        <path id="Path_4618" data-name="Path 4618" d="M354.918,394.508a.06.06,0,0,1-.035,0c-.352-.07-1.086-.51-1.125-.84a.225.225,0,0,1,.158-.239.38.38,0,0,1,.309,0c.408.169.724.956.735.988a.063.063,0,0,1,0,.07A.053.053,0,0,1,354.918,394.508Zm-.914-.96a.056.056,0,0,0-.032,0c-.081.035-.077.077-.074.095.021.2.52.552.875.682a1.735,1.735,0,0,0-.6-.777A.235.235,0,0,0,354,393.549Z" transform="translate(-275.097 -285.009)" fill="#c2c2cc"/>
        <path id="Path_4619" data-name="Path 4619" d="M294.8,406.844c-.376,0-.738-.053-.861-.221a.26.26,0,0,1,0-.3.352.352,0,0,1,.218-.165c.489-.13,1.515.453,1.557.478a.067.067,0,0,1-.021.127A4.971,4.971,0,0,1,294.8,406.844Zm-.464-.569a.4.4,0,0,0-.134.018.221.221,0,0,0-.137.095c-.049.088-.032.13,0,.155.137.19.879.193,1.406.116A3.122,3.122,0,0,0,294.338,406.275Z" transform="translate(-236.277 -293.27)" fill="#c2c2cc"/>
        <path id="Path_4620" data-name="Path 4620" d="M297.095,405.483h-.028c-.352-.158-1.055-.794-1-1.125,0-.077.07-.176.26-.193a.5.5,0,0,1,.383.12,1.969,1.969,0,0,1,.457,1.128.063.063,0,0,1-.028.063A.067.067,0,0,1,297.095,405.483Zm-.7-1.188h-.042c-.127,0-.134.063-.137.077-.032.2.446.7.8.917a1.607,1.607,0,0,0-.387-.907A.351.351,0,0,0,296.392,404.294Z" transform="translate(-237.684 -291.99)" fill="#c2c2cc"/>
        <path id="Path_4621" data-name="Path 4621" d="M302.227,395.191h-2.935L299,388.4h2.935Z" transform="translate(-239.589 -281.769)" fill="#ffc3bd"/>
        <path id="Path_4622" data-name="Path 4622" d="M356.668,382.721l-2.7.932-2.805-6.4,2.7-.932Z" transform="translate(-273.414 -273.935)" fill="#ffc3bd"/>
        <path id="Path_4623" data-name="Path 4623" d="M349.812,393.466l3.164-.967a.257.257,0,0,1,.3.12l1.318,2.32a.432.432,0,0,1-.257.626c-1.107.32-1.659.418-3.044.844-.854.26-3.005,1.076-4.218,1.318s-1.6-.917-1.132-1.125a7.04,7.04,0,0,0,3.477-2.812A.724.724,0,0,1,349.812,393.466Z" transform="translate(-269.904 -284.42)" fill="#263238"/>
        <path id="Path_4624" data-name="Path 4624" d="M288.21,406.75h3.2a.26.26,0,0,1,.25.2l.58,2.608a.425.425,0,0,1-.422.52c-1.156-.018-2.812-.088-4.278-.088-1.7,0-2.411.095-4.4.095-1.2,0-1.536-1.216-1.033-1.329,2.3-.5,3.417-.555,5.4-1.779A1.381,1.381,0,0,1,288.21,406.75Z" transform="translate(-228.486 -293.668)" fill="#263238"/>
        <path id="Path_4625" data-name="Path 4625" d="M314.05,132.84c.854.784,1.592,1.568,2.359,2.387a33.184,33.184,0,0,1,2.165,2.57,24.512,24.512,0,0,1,1.954,2.9,12.638,12.638,0,0,1,.823,1.737c.06.165.12.323.169.5a5.47,5.47,0,0,1,.144.552l.06.292.042.323a3.392,3.392,0,0,1,0,.893,3.73,3.73,0,0,1-.6,1.561,5.185,5.185,0,0,1-.809.932,9.38,9.38,0,0,1-1.6,1.171,20.82,20.82,0,0,1-3.164,1.473,38.123,38.123,0,0,1-6.391,1.758l-.615-2.109c1.909-.826,3.842-1.719,5.624-2.672a21.285,21.285,0,0,0,2.5-1.54,5.623,5.623,0,0,0,.91-.809,1.275,1.275,0,0,0,.207-.3c.028-.06,0-.053-.035.074-.025.236-.021.053-.077-.074-.018-.06-.049-.141-.081-.218s-.07-.165-.109-.25a11.125,11.125,0,0,0-.636-1.114,26.569,26.569,0,0,0-1.758-2.324c-.647-.766-1.329-1.529-2.028-2.278s-1.434-1.5-2.109-2.2Z" transform="translate(-245.801 -116.044)" fill="#ffc3bd"/>
        <path id="Path_4626" data-name="Path 4626" d="M305.766,180.07l-2.766.837,1.779,2.925a3.644,3.644,0,0,0,2-2.063Z" transform="translate(-242.183 -146.672)" fill="#ffc3bd"/>
        <path id="Path_4627" data-name="Path 4627" d="M299.82,183.487l1.09,2.411,1.789-.52-1.779-2.928Z" transform="translate(-240.121 -148.215)" fill="#ffc3bd"/>
        <path id="Path_4628" data-name="Path 4628" d="M305.684,130.051c-.264,2.812,5.684,7.164,5.684,7.164l5.726-3.919a12.05,12.05,0,0,0-4.218-4.482C309.593,126.711,306.015,126.557,305.684,130.051Z" transform="translate(-243.918 -112.46)" fill="#c2c2cc"/>
        <g id="Group_3764" data-name="Group 3764" transform="translate(61.758 14.853)" opacity="0.3">
          <path id="Path_4629" data-name="Path 4629" d="M305.684,130.051c-.264,2.812,5.684,7.164,5.684,7.164l5.726-3.919a12.05,12.05,0,0,0-4.218-4.482C309.593,126.711,306.015,126.557,305.684,130.051Z" transform="translate(-305.676 -127.314)" fill="#fff"/>
        </g>
        <path id="Path_4630" data-name="Path 4630" d="M277.009,129.762s-2.57,3.944,3.533,25.1l15.516-2.292c-.218-2.144-2.812-11.5-2.9-21.724a3.656,3.656,0,0,0-3.846-3.624c-.45.025-.914.056-1.374.1a57.825,57.825,0,0,0-6.595.974,29.751,29.751,0,0,0-4.334,1.466Z" transform="translate(-224.98 -112.397)" fill="#c2c2cc"/>
        <g id="Group_3765" data-name="Group 3765" transform="translate(51.492 14.819)" opacity="0.3">
          <path id="Path_4631" data-name="Path 4631" d="M277.009,129.762s-2.57,3.944,3.533,25.1l15.516-2.292c-.218-2.144-2.812-11.5-2.9-21.724a3.656,3.656,0,0,0-3.846-3.624c-.45.025-.914.056-1.374.1a57.825,57.825,0,0,0-6.595.974,29.751,29.751,0,0,0-4.334,1.466Z" transform="translate(-276.472 -127.216)" fill="#fff"/>
        </g>
        <path id="Path_4632" data-name="Path 4632" d="M276.92,153.69l.053-.06,3.649.323c.555,2.355-1.476,5.568-2.549,7.059A68.554,68.554,0,0,1,276.92,153.69Z" transform="translate(-225.271 -129.526)" opacity="0.2"/>
        <path id="Path_4633" data-name="Path 4633" d="M299,388.41l.151,3.5h2.935l-.151-3.5Z" transform="translate(-239.589 -281.775)" opacity="0.2"/>
        <path id="Path_4634" data-name="Path 4634" d="M353.863,376.32l-2.7.932,1.448,3.3,2.7-.932Z" transform="translate(-273.414 -273.935)" opacity="0.2"/>
        <path id="Path_4635" data-name="Path 4635" d="M288.587,92.569c.647,2.837,1.167,4.464.179,6.327a3.865,3.865,0,0,1-6.781-.081c-1.332-2.331-2.169-6.577.236-8.489a3.972,3.972,0,0,1,6.366,2.243Z" transform="translate(-227.718 -87.908)" fill="#ffc3bd"/>
        <path id="Path_4636" data-name="Path 4636" d="M281.532,94.843l-1.079.661.1-3.691a3.188,3.188,0,0,1-1.954-.566c.39-.373,6.465-2.5,8.359-2.13.2-.081.436-.446.436-.446s.074.46-.246.636a1.037,1.037,0,0,1,.974.408,1.269,1.269,0,0,0-.8.046s2.109.32,1.36,3.245a14.011,14.011,0,0,0-.562,5.076,4.632,4.632,0,0,1-2.932.988C283.729,97.465,281.627,95.539,281.532,94.843Z" transform="translate(-226.36 -87.401)" fill="#263238"/>
        <path id="Path_4637" data-name="Path 4637" d="M275.956,90.334a2.865,2.865,0,0,1-2.766-1.54c1.23-.13,3.793-.921,5.695-1.055s3.986.221,3.357,1.055S275.956,90.334,275.956,90.334Z" transform="translate(-222.852 -86.78)" fill="#263238"/>
        <path id="Path_4638" data-name="Path 4638" d="M278.263,87.851c-1.406-.2-2.777-1.522-1.722-2.791.39.932,3.023.823,4.893.432,2.461-.513,4.166.316,3.294,1.993C284.25,88.4,278.263,87.851,278.263,87.851Z" transform="translate(-224.783 -85.06)" fill="#263238"/>
        <path id="Path_4639" data-name="Path 4639" d="M287.56,102.2a3.3,3.3,0,0,1-.091,2.109c-.352.882-1.132.7-1.54-.06-.352-.7-.619-1.979-.021-2.615S287.307,101.369,287.56,102.2Z" transform="translate(-230.87 -95.601)" fill="#ffc3bd"/>
        <path id="Path_4640" data-name="Path 4640" d="M303.71,200.82s2.517,21.425,4.345,29.82c2,9.2,11.867,34.267,11.867,34.267l4.921-1.7s-6.327-18.877-8.008-31.732c-1.29-9.871-3.129-32.133-3.129-32.133Z" transform="translate(-242.643 -159.168)" fill="#263238"/>
        <path id="Path_4641" data-name="Path 4641" d="M346.249,378.663c-.025,0,1.009,2.109,1.009,2.109l5.747-1.867-.675-1.715Z" transform="translate(-270.229 -274.499)" fill="#c2c2cc"/>
        <path id="Path_4642" data-name="Path 4642" d="M307.66,234.82c.787,5.955,1.8,13.006,2.682,17.509C311.646,245.429,311.952,236.715,307.66,234.82Z" transform="translate(-245.205 -182.176)" opacity="0.3"/>
        <path id="Path_4643" data-name="Path 4643" d="M284.742,202.819s-2.088,20.128-1.758,29.071c.33,9.3,4.675,37.922,4.675,37.922h4.967s-.914-28.08-.7-37.212c.243-9.959,3.976-31.43,3.976-31.43Z" transform="translate(-229.18 -160.355)" fill="#263238"/>
        <path id="Path_4644" data-name="Path 4644" d="M293.6,390.81c-.021,0,.281,2.06.281,2.06h6.043l.165-1.839Z" transform="translate(-236.085 -283.332)" fill="#c2c2cc"/>
        <path id="Path_4645" data-name="Path 4645" d="M248.36,144.1c-.548.872-1.1,1.656-1.68,2.461s-1.181,1.582-1.8,2.355a44.493,44.493,0,0,1-4.067,4.436c-.394.352-.756.7-1.181,1.023l-.309.25-.155.123c-.056.046-.081.07-.2.155a4.421,4.421,0,0,1-1.135.584,6.6,6.6,0,0,1-1.944.352,10.832,10.832,0,0,1-1.677-.074,21.116,21.116,0,0,1-5.888-1.666l.608-2.109a38.718,38.718,0,0,0,5.42.26,10.728,10.728,0,0,0,1.2-.13,2.875,2.875,0,0,0,.858-.267c.084-.046.13-.091.12-.1s.046-.046.077-.077l.12-.109.236-.221c.316-.281.615-.622.924-.932.608-.654,1.213-1.325,1.786-2.039s1.153-1.431,1.715-2.169,1.107-1.487,1.656-2.236,1.083-1.536,1.589-2.264Z" transform="translate(-193.761 -121.79)" fill="#ffc3bd"/>
        <path id="Path_4646" data-name="Path 4646" d="M272.424,138.268c1.181,3.867-5.677,8.152-5.677,8.152l-4.457-5.677a24.864,24.864,0,0,1,3.691-5.164C269.015,132.278,271.525,135.326,272.424,138.268Z" transform="translate(-215.783 -116.892)" fill="#c2c2cc"/>
        <g id="Group_3766" data-name="Group 3766" transform="translate(46.507 17.255)" opacity="0.3">
          <path id="Path_4647" data-name="Path 4647" d="M272.424,138.268c1.181,3.867-5.677,8.152-5.677,8.152l-4.457-5.677a24.864,24.864,0,0,1,3.691-5.164C269.015,132.278,271.525,135.326,272.424,138.268Z" transform="translate(-262.29 -134.147)" fill="#fff"/>
        </g>
        <path id="Path_4648" data-name="Path 4648" d="M226.34,170.111l-3.61-.661.38,3.122a2.592,2.592,0,0,0,3.238-.594Z" transform="translate(-190.13 -139.785)" fill="#ffc3bd"/>
        <path id="Path_4649" data-name="Path 4649" d="M218.77,170.153l.78,2.253.984.165-.38-3.122Z" transform="translate(-187.562 -139.785)" fill="#ffc3bd"/>
      </g>
    </g>
  </g>
</svg>
