<svg version="1.1" id="Layer_1" xmlns="http://www.w3.org/2000/svg" xmlns:xlink="http://www.w3.org/1999/xlink" x="0px" y="0px"
	 width="100%" viewBox="0 0 1024 1024" enable-background="new 0 0 1024 1024" xml:space="preserve">
<path fill="#ED1F24" opacity="1.000000" stroke="none" 
	d="
M597.000000,1025.000000 
	C398.000000,1025.000000 199.500000,1025.000000 1.000000,1025.000000 
	C1.000000,683.666687 1.000000,342.333344 1.000000,1.000000 
	C342.333344,1.000000 683.666687,1.000000 1025.000000,1.000000 
	C1025.000000,342.333344 1025.000000,683.666687 1025.000000,1025.000000 
	C882.500000,1025.000000 740.000000,1025.000000 597.000000,1025.000000 
M698.500000,106.213501 
	C505.679291,106.213478 312.858582,106.213181 120.037865,106.214439 
	C112.890175,106.214485 112.882370,106.221535 112.882339,113.106522 
	C112.881004,375.423035 112.881195,637.739563 112.881218,900.056091 
	C112.881218,902.019897 112.881226,903.983704 112.881226,906.339600 
	C379.809143,906.339600 646.171082,906.339600 913.118774,906.339600 
	C913.118774,904.001892 913.118835,902.041260 913.118835,900.080688 
	C913.118896,637.764160 913.119080,375.447662 913.117737,113.131134 
	C913.117737,106.221779 913.110168,106.214706 905.986755,106.214523 
	C837.157837,106.212784 768.328918,106.213608 698.500000,106.213501 
z"/>
<path fill="#672C90" opacity="1.000000" stroke="none" 
	d="
M699.000000,106.213608 
	C768.328918,106.213608 837.157837,106.212784 905.986755,106.214523 
	C913.110168,106.214706 913.117737,106.221779 913.117737,113.131134 
	C913.119080,375.447662 913.118896,637.764160 913.118835,900.080688 
	C913.118835,902.041260 913.118774,904.001892 913.118774,906.339600 
	C646.171082,906.339600 379.809143,906.339600 112.881226,906.339600 
	C112.881226,903.983704 112.881218,902.019897 112.881218,900.056091 
	C112.881195,637.739563 112.881004,375.423035 112.882339,113.106522 
	C112.882370,106.221535 112.890175,106.214485 120.037865,106.214439 
	C312.858582,106.213181 505.679291,106.213478 699.000000,106.213608 
M331.067322,260.432648 
	C308.385834,239.415024 284.094238,220.526505 257.176025,205.203674 
	C241.373276,196.208191 225.178558,187.954056 206.984711,184.886307 
	C189.897583,182.005157 181.824265,188.852829 181.378586,206.215027 
	C181.340256,207.708557 181.452774,209.212631 181.590698,210.702988 
	C183.392822,230.175812 190.963745,247.766861 199.968872,264.719391 
	C228.537369,318.500793 266.168701,365.374725 310.315826,407.062256 
	C336.458191,431.748138 364.876709,453.459930 397.438629,469.233582 
	C408.867371,474.769897 420.637146,479.327728 433.461700,480.468048 
	C445.421906,481.531525 454.437897,476.572479 457.737915,465.066833 
	C459.690735,458.258392 460.136353,450.535553 459.229218,443.485168 
	C457.071869,426.718414 449.630615,411.656067 441.091827,397.305176 
	C410.995239,346.722717 373.531250,302.007935 331.067322,260.432648 
M390.299927,699.800781 
	C398.956726,688.596741 407.873749,677.582458 416.213623,666.147278 
	C431.350098,645.393005 445.435211,623.967041 454.659393,599.778809 
	C458.665771,589.273010 461.357269,578.495300 460.068604,567.073853 
	C458.261658,551.058716 447.244537,542.323303 431.387939,544.694641 
	C426.143188,545.479004 420.862976,546.553467 415.844025,548.229248 
	C393.820526,555.582581 374.212219,567.530457 355.456421,580.928345 
	C303.684723,617.910461 262.143341,664.689575 226.238312,716.754272 
	C210.511246,739.559509 196.509048,763.375244 187.305374,789.684937 
	C183.603256,800.267883 180.938934,811.089355 181.937317,822.473083 
	C183.119064,835.947754 190.857147,842.415710 204.131363,840.328735 
	C210.829941,839.275574 217.570511,837.724060 223.928772,835.402710 
	C253.209656,824.712585 278.718353,807.518799 303.144104,788.558838 
	C336.005310,763.051270 363.723511,732.479797 390.299927,699.800781 
M792.398010,706.101074 
	C778.695740,688.913086 765.588318,671.207336 751.169861,654.642700 
	C719.141541,617.846985 682.965698,585.771240 640.210510,561.717834 
	C625.653748,553.528381 610.541016,546.595764 593.683899,544.457764 
	C580.445984,542.778809 570.300293,548.762207 567.298767,561.709656 
	C565.728516,568.483398 565.662109,576.008850 566.735291,582.912109 
	C569.328369,599.592407 576.765137,614.640503 585.424011,628.908020 
	C617.168335,681.214050 655.702881,728.079529 700.566284,769.618408 
	C726.095093,793.255371 754.240173,813.420715 785.696838,828.617981 
	C797.261353,834.204956 809.166138,838.908630 822.082153,840.484741 
	C834.938293,842.053528 842.729614,836.144836 843.890686,823.223511 
	C844.333252,818.297852 844.359741,813.119324 843.328491,808.324341 
	C841.516296,799.897705 839.327148,791.455688 836.267578,783.411194 
	C825.709717,755.651489 809.795227,730.849548 792.398010,706.101074 
M789.884277,194.343140 
	C763.546265,206.505554 739.773071,222.672592 717.344421,240.914978 
	C675.504211,274.945709 641.534058,316.176422 609.635193,359.240143 
	C595.441345,378.401917 582.543335,398.430298 573.350952,420.576385 
	C568.664062,431.867706 565.099976,443.452179 565.961182,455.944305 
	C567.121460,472.773712 578.004761,482.251923 594.537659,480.095581 
	C601.079712,479.242340 607.629700,477.561951 613.859070,475.360870 
	C634.768372,467.972717 653.425476,456.346527 671.353027,443.534363 
	C718.083923,410.137634 756.397034,368.443970 790.049744,322.257416 
	C808.821167,296.494659 825.897583,269.689697 837.265015,239.683456 
	C841.883057,227.493530 845.735168,215.063538 844.181641,201.734650 
	C842.612732,188.273087 834.815735,181.848022 821.504761,184.618195 
	C811.000610,186.804230 800.881714,190.841385 789.884277,194.343140 
M477.774567,229.306671 
	C477.021118,230.404343 476.220703,231.472946 475.521301,232.604050 
	C465.655670,248.559891 466.977600,268.947418 478.806122,283.492737 
	C490.562744,297.949646 509.851685,303.437012 527.464111,297.335022 
	C545.169495,291.200836 556.999634,274.564392 557.015381,255.777802 
	C557.030945,237.221802 545.339966,220.492905 528.020874,214.288986 
	C510.011780,207.837906 491.114960,213.315506 477.774567,229.306671 
M544.271912,739.231384 
	C543.545959,738.545044 542.844543,737.830444 542.090515,737.176453 
	C526.045044,723.259338 503.099670,722.435547 486.360748,735.167969 
	C469.805481,747.760864 464.281097,770.172119 473.101685,788.957214 
	C481.992798,807.892395 502.917053,817.897766 523.447693,813.031311 
	C556.329590,805.237183 567.821533,765.728882 544.271912,739.231384 
M291.682831,533.041504 
	C293.250122,526.969238 295.825562,520.959900 296.209290,514.813782 
	C297.823425,488.959320 276.441528,468.031769 250.072174,469.015228 
	C225.093765,469.946808 205.745132,492.886047 208.743362,518.013611 
	C211.008179,536.994507 224.962997,552.377625 243.248596,556.050537 
	C262.978027,560.013489 280.951111,551.646484 291.682831,533.041504 
M802.598145,546.119873 
	C818.571411,530.928284 822.204956,509.201996 811.800049,491.097717 
	C801.711731,473.544250 781.014282,465.102234 761.603455,470.623718 
	C744.757263,475.415680 731.885193,490.156525 729.959839,506.861298 
	C727.796753,525.628662 736.212952,542.582581 752.106812,551.475525 
	C768.075989,560.410583 786.897583,558.569641 802.598145,546.119873 
M500.645416,488.018433 
	C499.233246,488.894073 497.752777,489.677124 496.419708,490.660034 
	C486.175751,498.213074 482.454681,511.933167 487.410095,523.716980 
	C492.282837,535.304321 504.794830,542.477661 516.848328,540.493286 
	C528.444946,538.584045 536.355530,532.014343 539.716187,520.805908 
	C543.024170,509.772919 540.167664,499.855072 531.576294,492.227112 
	C522.671814,484.321198 512.361938,482.947540 500.645416,488.018433 
M549.717651,494.258118 
	C547.098938,495.965942 544.480225,497.673798 541.925110,499.340149 
	C543.219543,503.671204 544.395874,507.607361 545.938293,512.768066 
	C553.361328,511.869049 561.188416,511.622040 568.634033,509.808594 
	C575.182434,508.213684 577.493835,501.566040 574.911011,495.382416 
	C572.183167,488.851196 566.116272,486.020905 559.998779,488.712402 
	C556.668274,490.177704 553.562073,492.153046 549.717651,494.258118 
M450.815735,523.371521 
	C449.535950,528.914734 451.750732,533.144836 456.003021,536.414062 
	C460.148224,539.600952 464.421356,538.639526 468.582672,536.265320 
	C471.607025,534.539856 474.544250,532.647339 477.642334,531.068665 
	C482.486115,528.600403 486.085693,525.911865 482.204773,519.819031 
	C481.215393,518.265686 481.211212,516.084778 480.610596,513.596497 
	C473.956360,514.038696 467.488037,514.164551 461.111420,514.994629 
	C456.553711,515.588013 452.490753,517.612549 450.815735,523.371521 
M571.994202,534.535278 
	C578.857544,525.155884 575.934753,516.856201 564.506714,514.797668 
	C558.237244,513.668335 551.714294,513.946472 545.510742,513.601440 
	C544.105530,518.327820 542.933350,522.270569 541.595093,526.771729 
	C547.258972,530.083679 552.897156,533.519775 558.670227,536.712097 
	C563.230225,539.233643 567.602356,538.768250 571.994202,534.535278 
M476.254700,512.152100 
	C477.709595,512.053589 479.164459,511.955048 480.358307,511.874176 
	C481.652893,507.549500 482.827393,503.625793 484.141174,499.236908 
	C478.551514,495.954285 473.135651,492.442657 467.424896,489.504120 
	C460.347260,485.862244 453.794769,488.592194 450.961884,495.900024 
	C448.311615,502.736786 451.608063,509.077087 459.519379,510.811707 
	C464.634399,511.933228 470.035278,511.751068 476.254700,512.152100 
M482.202728,558.845642 
	C486.665955,552.556885 491.129150,546.268127 495.217010,540.508240 
	C491.524414,536.648743 488.571472,533.562378 484.861877,529.685120 
	C479.044128,533.359619 472.524933,536.682800 466.986755,541.206848 
	C461.830750,545.418762 462.564423,552.476868 467.733917,556.758240 
	C471.812927,560.136475 476.396027,561.564087 482.202728,558.845642 
M473.239838,466.382721 
	C467.633270,468.312836 463.553253,471.772186 463.222290,478.015564 
	C462.924896,483.625458 467.013611,486.652740 471.307098,488.969666 
	C476.078156,491.544281 481.126068,493.605835 485.972992,495.853424 
	C489.198334,492.296600 492.060577,489.140198 495.266418,485.604828 
	C491.785675,480.623474 488.342316,475.594910 484.789734,470.644775 
	C482.153717,466.971771 478.633606,465.194305 473.239838,466.382721 
M528.457336,542.589417 
	C524.023560,543.179321 519.589783,543.769226 515.238159,544.348145 
	C515.238159,551.728394 514.761841,558.551758 515.378357,565.274841 
	C515.942688,571.428894 522.634399,575.042236 529.462341,573.725830 
	C536.247253,572.417664 540.418091,566.976746 538.109009,560.735596 
	C535.838684,554.598999 532.051025,549.023865 528.457336,542.589417 
M556.207642,538.253479 
	C551.015259,535.404663 545.822815,532.555786 540.868958,529.837830 
	C537.454590,533.376465 534.491516,536.447388 531.017639,540.047791 
	C534.248779,545.114258 537.700378,550.721252 541.355225,556.192444 
	C544.025330,560.189575 548.067261,560.929871 552.384460,559.725403 
	C557.094299,558.411438 560.712097,555.641602 562.036804,550.629700 
	C563.451904,545.275574 560.536438,541.790283 556.207642,538.253479 
M487.266846,562.710083 
	C487.567657,569.642212 491.665527,573.782959 498.455048,574.015442 
	C505.895935,574.270264 510.507507,570.621948 510.911163,563.524780 
	C511.258514,557.418274 510.983185,551.276306 510.983185,545.132385 
	C507.313477,544.110352 503.850342,542.987000 500.305695,542.261597 
	C499.325073,542.060852 497.530334,542.726318 497.081696,543.534363 
	C493.720337,549.588135 490.602814,555.777344 487.266846,562.710083 
M558.718994,485.113251 
	C564.150024,480.668640 562.725525,472.706879 557.404236,468.673553 
	C551.388184,464.113647 544.621948,464.626740 540.419312,470.579376 
	C536.820435,475.676880 533.777466,481.166840 531.229858,485.285004 
	C534.714172,489.347534 537.503357,492.599670 540.417664,495.997650 
	C544.871521,493.667206 549.182495,491.511597 553.386108,489.163574 
	C555.110596,488.200287 556.603333,486.821960 558.718994,485.113251 
M510.347931,460.494873 
	C510.005127,453.599426 500.367157,450.891205 495.060181,452.555603 
	C488.302124,454.675110 485.158630,460.000153 487.998962,466.958191 
	C490.295776,472.584839 493.851379,477.710785 497.031738,482.947632 
	C497.448669,483.634125 499.054596,484.108643 499.938934,483.912170 
	C503.608673,483.097015 507.212830,481.986755 510.540680,481.067810 
	C510.540680,474.262817 510.540680,467.792664 510.347931,460.494873 
M524.961487,452.076843 
	C517.597046,454.124786 515.548279,456.340210 515.153442,463.822144 
	C514.856445,469.449646 515.094788,475.105377 515.094788,480.811279 
	C518.923767,481.869293 522.553711,483.034241 526.267395,483.783661 
	C527.187500,483.969330 528.803894,483.086700 529.374207,482.218262 
	C532.106445,478.057953 534.948914,473.905884 537.088257,469.433289 
	C541.997375,459.170593 537.298401,452.120911 524.961487,452.076843 
z"/>
<path fill="#F6EB13" opacity="1.000000" stroke="none" 
	d="
M331.325256,260.674530 
	C373.531250,302.007935 410.995239,346.722717 441.091827,397.305176 
	C449.630615,411.656067 457.071869,426.718414 459.229218,443.485168 
	C460.136353,450.535553 459.690735,458.258392 457.737915,465.066833 
	C454.437897,476.572479 445.421906,481.531525 433.461700,480.468048 
	C420.637146,479.327728 408.867371,474.769897 397.438629,469.233582 
	C364.876709,453.459930 336.458191,431.748138 310.315826,407.062256 
	C266.168701,365.374725 228.537369,318.500793 199.968872,264.719391 
	C190.963745,247.766861 183.392822,230.175812 181.590698,210.702988 
	C181.452774,209.212631 181.340256,207.708557 181.378586,206.215027 
	C181.824265,188.852829 189.897583,182.005157 206.984711,184.886307 
	C225.178558,187.954056 241.373276,196.208191 257.176025,205.203674 
	C284.094238,220.526505 308.385834,239.415024 331.325256,260.674530 
z"/>
<path fill="#F5EB13" opacity="1.000000" stroke="none" 
	d="
M390.083282,700.081787 
	C363.723511,732.479797 336.005310,763.051270 303.144104,788.558838 
	C278.718353,807.518799 253.209656,824.712585 223.928772,835.402710 
	C217.570511,837.724060 210.829941,839.275574 204.131363,840.328735 
	C190.857147,842.415710 183.119064,835.947754 181.937317,822.473083 
	C180.938934,811.089355 183.603256,800.267883 187.305374,789.684937 
	C196.509048,763.375244 210.511246,739.559509 226.238312,716.754272 
	C262.143341,664.689575 303.684723,617.910461 355.456421,580.928345 
	C374.212219,567.530457 393.820526,555.582581 415.844025,548.229248 
	C420.862976,546.553467 426.143188,545.479004 431.387939,544.694641 
	C447.244537,542.323303 458.261658,551.058716 460.068604,567.073853 
	C461.357269,578.495300 458.665771,589.273010 454.659393,599.778809 
	C445.435211,623.967041 431.350098,645.393005 416.213623,666.147278 
	C407.873749,677.582458 398.956726,688.596741 390.083282,700.081787 
z"/>
<path fill="#F5EB13" opacity="1.000000" stroke="none" 
	d="
M792.614807,706.388062 
	C809.795227,730.849548 825.709717,755.651489 836.267578,783.411194 
	C839.327148,791.455688 841.516296,799.897705 843.328491,808.324341 
	C844.359741,813.119324 844.333252,818.297852 843.890686,823.223511 
	C842.729614,836.144836 834.938293,842.053528 822.082153,840.484741 
	C809.166138,838.908630 797.261353,834.204956 785.696838,828.617981 
	C754.240173,813.420715 726.095093,793.255371 700.566284,769.618408 
	C655.702881,728.079529 617.168335,681.214050 585.424011,628.908020 
	C576.765137,614.640503 569.328369,599.592407 566.735291,582.912109 
	C565.662109,576.008850 565.728516,568.483398 567.298767,561.709656 
	C570.300293,548.762207 580.445984,542.778809 593.683899,544.457764 
	C610.541016,546.595764 625.653748,553.528381 640.210510,561.717834 
	C682.965698,585.771240 719.141541,617.846985 751.169861,654.642700 
	C765.588318,671.207336 778.695740,688.913086 792.614807,706.388062 
z"/>
<path fill="#F6EB13" opacity="1.000000" stroke="none" 
	d="
M790.237976,194.199768 
	C800.881714,190.841385 811.000610,186.804230 821.504761,184.618195 
	C834.815735,181.848022 842.612732,188.273087 844.181641,201.734650 
	C845.735168,215.063538 841.883057,227.493530 837.265015,239.683456 
	C825.897583,269.689697 808.821167,296.494659 790.049744,322.257416 
	C756.397034,368.443970 718.083923,410.137634 671.353027,443.534363 
	C653.425476,456.346527 634.768372,467.972717 613.859070,475.360870 
	C607.629700,477.561951 601.079712,479.242340 594.537659,480.095581 
	C578.004761,482.251923 567.121460,472.773712 565.961182,455.944305 
	C565.099976,443.452179 568.664062,431.867706 573.350952,420.576385 
	C582.543335,398.430298 595.441345,378.401917 609.635193,359.240143 
	C641.534058,316.176422 675.504211,274.945709 717.344421,240.914978 
	C739.773071,222.672592 763.546265,206.505554 790.237976,194.199768 
z"/>
<path fill="#F5EB14" opacity="1.000000" stroke="none" 
	d="
M477.985840,229.019012 
	C491.114960,213.315506 510.011780,207.837906 528.020874,214.288986 
	C545.339966,220.492905 557.030945,237.221802 557.015381,255.777802 
	C556.999634,274.564392 545.169495,291.200836 527.464111,297.335022 
	C509.851685,303.437012 490.562744,297.949646 478.806122,283.492737 
	C466.977600,268.947418 465.655670,248.559891 475.521301,232.604050 
	C476.220703,231.472946 477.021118,230.404343 477.985840,229.019012 
z"/>
<path fill="#F5EB14" opacity="1.000000" stroke="none" 
	d="
M544.519653,739.483887 
	C567.821533,765.728882 556.329590,805.237183 523.447693,813.031311 
	C502.917053,817.897766 481.992798,807.892395 473.101685,788.957214 
	C464.281097,770.172119 469.805481,747.760864 486.360748,735.167969 
	C503.099670,722.435547 526.045044,723.259338 542.090515,737.176453 
	C542.844543,737.830444 543.545959,738.545044 544.519653,739.483887 
z"/>
<path fill="#F5EB14" opacity="1.000000" stroke="none" 
	d="
M291.491516,533.361328 
	C280.951111,551.646484 262.978027,560.013489 243.248596,556.050537 
	C224.962997,552.377625 211.008179,536.994507 208.743362,518.013611 
	C205.745132,492.886047 225.093765,469.946808 250.072174,469.015228 
	C276.441528,468.031769 297.823425,488.959320 296.209290,514.813782 
	C295.825562,520.959900 293.250122,526.969238 291.491516,533.361328 
z"/>
<path fill="#F5EB14" opacity="1.000000" stroke="none" 
	d="
M802.329224,546.354614 
	C786.897583,558.569641 768.075989,560.410583 752.106812,551.475525 
	C736.212952,542.582581 727.796753,525.628662 729.959839,506.861298 
	C731.885193,490.156525 744.757263,475.415680 761.603455,470.623718 
	C781.014282,465.102234 801.711731,473.544250 811.800049,491.097717 
	C822.204956,509.201996 818.571411,530.928284 802.329224,546.354614 
z"/>
<path fill="#F4EA14" opacity="1.000000" stroke="none" 
	d="
M500.997314,487.867188 
	C512.361938,482.947540 522.671814,484.321198 531.576294,492.227112 
	C540.167664,499.855072 543.024170,509.772919 539.716187,520.805908 
	C536.355530,532.014343 528.444946,538.584045 516.848328,540.493286 
	C504.794830,542.477661 492.282837,535.304321 487.410095,523.716980 
	C482.454681,511.933167 486.175751,498.213074 496.419708,490.660034 
	C497.752777,489.677124 499.233246,488.894073 500.997314,487.867188 
z"/>
<path fill="#F3E815" opacity="1.000000" stroke="none" 
	d="
M550.036194,494.078247 
	C553.562073,492.153046 556.668274,490.177704 559.998779,488.712402 
	C566.116272,486.020905 572.183167,488.851196 574.911011,495.382416 
	C577.493835,501.566040 575.182434,508.213684 568.634033,509.808594 
	C561.188416,511.622040 553.361328,511.869049 545.938293,512.768066 
	C544.395874,507.607361 543.219543,503.671204 541.925110,499.340149 
	C544.480225,497.673798 547.098938,495.965942 550.036194,494.078247 
z"/>
<path fill="#F3E815" opacity="1.000000" stroke="none" 
	d="
M450.897644,522.998901 
	C452.490753,517.612549 456.553711,515.588013 461.111420,514.994629 
	C467.488037,514.164551 473.956360,514.038696 480.610596,513.596497 
	C481.211212,516.084778 481.215393,518.265686 482.204773,519.819031 
	C486.085693,525.911865 482.486115,528.600403 477.642334,531.068665 
	C474.544250,532.647339 471.607025,534.539856 468.582672,536.265320 
	C464.421356,538.639526 460.148224,539.600952 456.003021,536.414062 
	C451.750732,533.144836 449.535950,528.914734 450.897644,522.998901 
z"/>
<path fill="#F3E815" opacity="1.000000" stroke="none" 
	d="
M571.725586,534.798096 
	C567.602356,538.768250 563.230225,539.233643 558.670227,536.712097 
	C552.897156,533.519775 547.258972,530.083679 541.595093,526.771729 
	C542.933350,522.270569 544.105530,518.327820 545.510742,513.601440 
	C551.714294,513.946472 558.237244,513.668335 564.506714,514.797668 
	C575.934753,516.856201 578.857544,525.155884 571.725586,534.798096 
z"/>
<path fill="#F3E815" opacity="1.000000" stroke="none" 
	d="
M475.781372,512.152588 
	C470.035278,511.751068 464.634399,511.933228 459.519379,510.811707 
	C451.608063,509.077087 448.311615,502.736786 450.961884,495.900024 
	C453.794769,488.592194 460.347260,485.862244 467.424896,489.504120 
	C473.135651,492.442657 478.551514,495.954285 484.141174,499.236908 
	C482.827393,503.625793 481.652893,507.549500 480.358307,511.874176 
	C479.164459,511.955048 477.709595,512.053589 475.781372,512.152588 
z"/>
<path fill="#F3E816" opacity="1.000000" stroke="none" 
	d="
M481.886047,559.031250 
	C476.396027,561.564087 471.812927,560.136475 467.733917,556.758240 
	C462.564423,552.476868 461.830750,545.418762 466.986755,541.206848 
	C472.524933,536.682800 479.044128,533.359619 484.861877,529.685120 
	C488.571472,533.562378 491.524414,536.648743 495.217010,540.508240 
	C491.129150,546.268127 486.665955,552.556885 481.886047,559.031250 
z"/>
<path fill="#F3E716" opacity="1.000000" stroke="none" 
	d="
M473.629211,466.276611 
	C478.633606,465.194305 482.153717,466.971771 484.789734,470.644775 
	C488.342316,475.594910 491.785675,480.623474 495.266418,485.604828 
	C492.060577,489.140198 489.198334,492.296600 485.972992,495.853424 
	C481.126068,493.605835 476.078156,491.544281 471.307098,488.969666 
	C467.013611,486.652740 462.924896,483.625458 463.222290,478.015564 
	C463.553253,471.772186 467.633270,468.312836 473.629211,466.276611 
z"/>
<path fill="#F3E815" opacity="1.000000" stroke="none" 
	d="
M528.693237,542.895874 
	C532.051025,549.023865 535.838684,554.598999 538.109009,560.735596 
	C540.418091,566.976746 536.247253,572.417664 529.462341,573.725830 
	C522.634399,575.042236 515.942688,571.428894 515.378357,565.274841 
	C514.761841,558.551758 515.238159,551.728394 515.238159,544.348145 
	C519.589783,543.769226 524.023560,543.179321 528.693237,542.895874 
z"/>
<path fill="#F3E915" opacity="1.000000" stroke="none" 
	d="
M556.488220,538.477905 
	C560.536438,541.790283 563.451904,545.275574 562.036804,550.629700 
	C560.712097,555.641602 557.094299,558.411438 552.384460,559.725403 
	C548.067261,560.929871 544.025330,560.189575 541.355225,556.192444 
	C537.700378,550.721252 534.248779,545.114258 531.017639,540.047791 
	C534.491516,536.447388 537.454590,533.376465 540.868958,529.837830 
	C545.822815,532.555786 551.015259,535.404663 556.488220,538.477905 
z"/>
<path fill="#F3E915" opacity="1.000000" stroke="none" 
	d="
M487.337891,562.317078 
	C490.602814,555.777344 493.720337,549.588135 497.081696,543.534363 
	C497.530334,542.726318 499.325073,542.060852 500.305695,542.261597 
	C503.850342,542.987000 507.313477,544.110352 510.983185,545.132385 
	C510.983185,551.276306 511.258514,557.418274 510.911163,563.524780 
	C510.507507,570.621948 505.895935,574.270264 498.455048,574.015442 
	C491.665527,573.782959 487.567657,569.642212 487.337891,562.317078 
z"/>
<path fill="#F4E915" opacity="1.000000" stroke="none" 
	d="
M558.460266,485.372864 
	C556.603333,486.821960 555.110596,488.200287 553.386108,489.163574 
	C549.182495,491.511597 544.871521,493.667206 540.417664,495.997650 
	C537.503357,492.599670 534.714172,489.347534 531.229858,485.285004 
	C533.777466,481.166840 536.820435,475.676880 540.419312,470.579376 
	C544.621948,464.626740 551.388184,464.113647 557.404236,468.673553 
	C562.725525,472.706879 564.150024,480.668640 558.460266,485.372864 
z"/>
<path fill="#F3E815" opacity="1.000000" stroke="none" 
	d="
M510.444305,460.908691 
	C510.540680,467.792664 510.540680,474.262817 510.540680,481.067810 
	C507.212830,481.986755 503.608673,483.097015 499.938934,483.912170 
	C499.054596,484.108643 497.448669,483.634125 497.031738,482.947632 
	C493.851379,477.710785 490.295776,472.584839 487.998962,466.958191 
	C485.158630,460.000153 488.302124,454.675110 495.060181,452.555603 
	C500.367157,450.891205 510.005127,453.599426 510.444305,460.908691 
z"/>
<path fill="#F3E815" opacity="1.000000" stroke="none" 
	d="
M525.377075,452.044495 
	C537.298401,452.120911 541.997375,459.170593 537.088257,469.433289 
	C534.948914,473.905884 532.106445,478.057953 529.374207,482.218262 
	C528.803894,483.086700 527.187500,483.969330 526.267395,483.783661 
	C522.553711,483.034241 518.923767,481.869293 515.094788,480.811279 
	C515.094788,475.105377 514.856445,469.449646 515.153442,463.822144 
	C515.548279,456.340210 517.597046,454.124786 525.377075,452.044495 
z"/>
</svg>