<svg id="shopping_bag_black_24dp" xmlns="http://www.w3.org/2000/svg" width="256" height="256" viewBox="0 0 256 256">
  <rect id="Rectangle_71" data-name="Rectangle 71" width="256" height="256" fill="none"/>
  <g id="Search_engines-bro" data-name="Search engines-bro" transform="translate(13.837 34.554)">
    <g id="freepik--background-simple--inject-1" transform="translate(16.13 14.738)">
      <path id="Path_3600" data-name="Path 3600" d="M87.6,222.707c25.9,29.681,52.042,33.439,88.8,40.472s63.741,2.173,83.627-15.753c22.961-20.721,22.053-68.188-13.082-85.089-10.976-5.292-24.047-6.894-33.663-14.336-18.363-14.2-33.215-36.3-62.694-40.45s-49.354,15.624-49.354,15.624C77.02,149.686,61.7,193,87.6,222.707Z" transform="translate(-74.142 -106.978)" fill="#4b57d6"/>
      <path id="Path_3601" data-name="Path 3601" d="M87.6,222.707c25.9,29.681,52.042,33.439,88.8,40.472s63.741,2.173,83.627-15.753c22.961-20.721,22.053-68.188-13.082-85.089-10.976-5.292-24.047-6.894-33.663-14.336-18.363-14.2-33.215-36.3-62.694-40.45s-49.354,15.624-49.354,15.624C77.02,149.686,61.7,193,87.6,222.707Z" transform="translate(-74.142 -106.978)" fill="#fff" opacity="0.7"/>
    </g>
    <g id="freepik--Shadow--inject-1" transform="translate(8.742 177.929)">
      <rect id="Rectangle_3088" data-name="Rectangle 3088" width="218.407" height="8.96" transform="translate(0)" fill="#4b57d6"/>
      <rect id="Rectangle_3089" data-name="Rectangle 3089" width="218.407" height="8.96" transform="translate(0)" fill="#fff" opacity="0.5"/>
    </g>
    <g id="freepik--Plants--inject-1" transform="translate(0 49.758)">
      <path id="Path_3602" data-name="Path 3602" d="M105.587,201.308a31.357,31.357,0,0,0-3.142,1.215c.56-.409,1.12-.834,1.68-1.266a81.464,81.464,0,0,0,7.107-6.44,77.316,77.316,0,0,1-8.4,7.073,17.841,17.841,0,0,0,1.075-2.206c.56-1.394.661-2.8-.666-3.545-1.641-.918-3.623.454-3.1,2.8a8.658,8.658,0,0,0,1.809,3.556,53.65,53.65,0,0,1-6.048,3.623l-.2.1a19.943,19.943,0,0,0,1.17-2.38c.526-1.389.661-2.8-.672-3.539-1.641-.924-3.623.454-3.1,2.8a8.674,8.674,0,0,0,1.77,3.517c-2.514,1.238-5.113,2.29-7.7,3.433l-.375.168A17.25,17.25,0,0,0,88.2,208.5c.84-1.232,1.294-2.565.174-3.6-1.378-1.277-3.635-.4-3.668,2.016a8.652,8.652,0,0,0,.907,3.847,39.59,39.59,0,0,0-6.866,4.1l-.067.056a15.362,15.362,0,0,0,.8-1.422c.633-1.35.868-2.738-.409-3.584a2.083,2.083,0,0,0-3.125.969,1.966,1.966,0,0,0-.666-.638c-1.282-.739-2.542.062-3.623,1.193-.28.3-.56.616-.8.93a39.5,39.5,0,0,1,3.131-6.664,9.582,9.582,0,0,0,3.769.8c2.554,0,3.629-2.128,2.374-3.45-1.019-1.07-2.453-.661-3.808.123a14.309,14.309,0,0,0-1.294.851,38.72,38.72,0,0,1,4.4-5.477,9.594,9.594,0,0,0,3.64,1.831c2.481.61,4.038-1.187,3.142-2.772-.728-1.288-2.24-1.238-3.724-.806a17.215,17.215,0,0,0-2.083.773c.678-.661,1.378-1.294,2.089-1.921.93-.8,1.893-1.562,2.873-2.313a9.571,9.571,0,0,0,3.578,1.786c2.481.61,4.038-1.187,3.142-2.772-.728-1.288-2.24-1.238-3.73-.806-.347.1-.7.224-1.042.353,1.294-.924,2.6-1.826,3.92-2.722l1.215-.834a9.622,9.622,0,0,0,3.763,1.938c2.481.61,4.043-1.187,3.147-2.772-.734-1.288-2.24-1.238-3.73-.806q-.879.269-1.73.622h0l.75-.56c.459-.33.918-.666,1.366-1.019.56-.42,1.092-.885,1.635-1.333.314-.246.61-.51.907-.778a9.593,9.593,0,0,0,3.786,1.954c2.481.61,4.038-1.187,3.142-2.772-.728-1.288-2.24-1.238-3.724-.806a21.02,21.02,0,0,0-2.442.924h0c1.014-.941,1.994-1.921,2.923-2.94.062-.073.118-.146.185-.213.4-.442.79-.89,1.17-1.355s.874-1.075,1.288-1.635a32.05,32.05,0,0,0,4.167-7.28,31.92,31.92,0,0,1-4.307,7.168A45.063,45.063,0,0,1,99,182.754l-.23.2a21.281,21.281,0,0,0,1.266-2.526c.532-1.389.661-2.8-.672-3.539-1.635-.924-3.623.454-3.1,2.8a8.708,8.708,0,0,0,1.966,3.741l-.493.426-.56.482c-.325.263-.661.515-1,.767-.179.134-.353.274-.56.409-.476.353-.958.694-1.445,1.03l-.7.476-.8.56a19.444,19.444,0,0,0,1.221-2.47c.532-1.394.661-2.8-.666-3.539-1.641-.924-3.629.454-3.1,2.8a8.664,8.664,0,0,0,1.876,3.646l-.56.381-2.178,1.428-.431.28-1.215.812-.526.353c-.56.386-1.12.778-1.68,1.182a19.767,19.767,0,0,0,1.176-2.5c.56-1.389.661-2.8-.666-3.539-1.641-.924-3.623.454-3.1,2.8a8.63,8.63,0,0,0,1.915,3.685c-.952.7-1.893,1.417-2.8,2.167-.666.56-1.322,1.12-1.966,1.725a15.422,15.422,0,0,0,.75-1.6c.526-1.394.661-2.8-.672-3.539-1.641-.924-3.623.454-3.1,2.8a8.675,8.675,0,0,0,1.77,3.517,39.326,39.326,0,0,0-4.878,5.9A14.962,14.962,0,0,0,74.22,202c.179-1.478-.034-2.867-1.506-3.271-1.814-.5-3.4,1.316-2.324,3.478a8.675,8.675,0,0,0,2.6,3.007,40.759,40.759,0,0,0-3.517,7.28,15.029,15.029,0,0,0-.157-1.585c-.252-1.473-.846-2.744-2.374-2.716-1.882.039-2.9,2.24-1.243,4a8.534,8.534,0,0,0,3.147,2.078,51.156,51.156,0,0,0-1.551,5.975c-.067.319-.118.638-.179.958-.067.062-.134.123-.2.19-.067-.274-.146-.56-.235-.823-.47-1.411-1.254-2.582-2.761-2.313-1.848.325-2.514,2.643-.61,4.139a8.474,8.474,0,0,0,3.271,1.529c0,.056.045.106.073.162-.207,1.518-.364,3.047-.459,4.581-.073,1.12-.112,2.29-.134,3.438-1.6,0-2.733,1.758-1.63,3.663a8.075,8.075,0,0,0,1.764,2.083c.134,2.156.347,4.312.633,6.451a1.775,1.775,0,0,0-1.714-.4,2.3,2.3,0,0,0-1.624,2.083,1.994,1.994,0,0,0-.56,1.383c-.75-1.12-1.462-2.24-2.15-3.422a9.519,9.519,0,0,0,2.559-2.985c1.2-2.24-.157-4.206-1.91-3.73-1.434.392-1.747,1.848-1.68,3.411a15.631,15.631,0,0,0,.168,1.77l-.739-1.3c-.616-1.12-1.12-2.24-1.725-3.36-.146-.274-.274-.56-.392-.84a9.52,9.52,0,0,0,3.063-2.447c1.607-1.982.638-4.161-1.176-4.021-1.478.118-2.066,1.49-2.313,3.035a19.043,19.043,0,0,0-.179,2.033L55.93,234.3a62.44,62.44,0,0,1-2.761-8.479,9.52,9.52,0,0,0,3.551-2.24c1.8-1.82,1.053-4.077-.767-4.122-1.478-.034-2.2,1.271-2.6,2.8a20.465,20.465,0,0,0-.442,2.464q-.588-2.486-1.008-5.04c-.19-1.042-.314-2.1-.442-3.153a9.655,9.655,0,0,0,3.954-1.775c2.016-1.568,1.574-3.92-.23-4.183-1.462-.23-2.346.974-2.94,2.425a24.2,24.2,0,0,0-.874,2.8c-.112-1.221-.241-2.447-.3-3.674a57.438,57.438,0,0,1,0-7.605,57.64,57.64,0,0,0-.263,7.616c0,1.17.1,2.335.174,3.506a18.721,18.721,0,0,0-1.12-2.313c-.762-1.282-1.781-2.24-3.192-1.68-1.742.717-1.893,3.125.291,4.178a8.669,8.669,0,0,0,4.094.778c.1,1.047.19,2.089.347,3.125.218,1.68.5,3.293.829,4.923a16.666,16.666,0,0,0-1.193-1.8c-.924-1.17-2.055-2-3.36-1.243-1.63.935-1.473,3.36.829,4.1a8.681,8.681,0,0,0,4.027.269,64.813,64.813,0,0,0,2.514,8.6l.33.84a12.173,12.173,0,0,0-.958-1.12c-1.036-1.075-2.24-1.786-3.489-.9-1.529,1.12-1.12,3.472,1.232,4a8.664,8.664,0,0,0,3.92-.112c.118.286.235.56.375.851.56,1.154,1.058,2.335,1.646,3.466l.487.98c-.291-.252-.594-.493-.907-.717-1.221-.857-2.542-1.327-3.6-.224-1.3,1.361-.459,3.623,1.96,3.7a8.574,8.574,0,0,0,3.663-.728c.694,1.254,1.406,2.492,2.178,3.707.286.465.56.924.885,1.383a14.387,14.387,0,0,0-1.389-1.12c-1.221-.857-2.542-1.327-3.6-.224-1.294,1.361-.454,3.623,1.966,3.7a8.708,8.708,0,0,0,3.987-.913q.6.84,1.243,1.68c-.9,1.047-.6,2.8,1.226,3.6a8.172,8.172,0,0,0,2.8.622c.112.09.224.179.347.263l.056.045q1.736,6.485,4.116,12.78c.672,1.786,1.394,3.556,2.139,5.315h-6.72v26.5H89.481V275.426H78.549c-.935-2.044-1.837-4.111-2.677-6.2-1.372-3.427-2.615-6.911-3.7-10.444h0a4.76,4.76,0,0,0,.56.129,2.443,2.443,0,0,0,.756.034L73.2,257.1h-.2a3.444,3.444,0,0,1-.347-.067,5.346,5.346,0,0,1-.756-.28l-.291-.134a9.482,9.482,0,0,0,2.962-1.68c1.943-1.68,1.394-3.976-.42-4.172-1.467-.162-2.3,1.081-2.8,2.554-.151.42-.274.857-.381,1.282-.106-.392-.213-.784-.314-1.176-.3-1.159-.56-2.33-.829-3.5a9.426,9.426,0,0,0,3.209-1.742c1.943-1.68,1.389-3.97-.42-4.167-1.473-.162-2.3,1.081-2.8,2.554-.151.426-.28.868-.392,1.3-.168-.851-.33-1.708-.482-2.565-.106-.633-.207-1.271-.3-1.91-.034-.907-.05-1.814-.039-2.727,0-.5,0-1,.045-1.5a9.575,9.575,0,0,0,3.4.431c2.554-.168,3.495-2.352,2.162-3.59-1.086-1.014-2.492-.51-3.8.353a17.858,17.858,0,0,0-1.68,1.294,40.935,40.935,0,0,1,.969-6.328,32.309,32.309,0,0,1,1.07-3.618,9.593,9.593,0,0,0,3.646.51c2.554-.162,3.494-2.346,2.162-3.59-1.081-1.008-2.492-.51-3.8.358a14.738,14.738,0,0,0-1.31,1.014,27.084,27.084,0,0,1,1.714-3.36,24.691,24.691,0,0,1,4.783-5.83,9.47,9.47,0,0,0,3.388,2.01c2.43.8,4.116-.885,3.36-2.531-.633-1.338-2.122-1.4-3.657-1.081a15.49,15.49,0,0,0-1.747.482l.039-.034a38.639,38.639,0,0,1,6.72-4.211,9.638,9.638,0,0,0,3.125,2.654c2.274,1.17,4.206-.218,3.7-1.966-.409-1.422-1.87-1.719-3.433-1.68a16.642,16.642,0,0,0-1.831.2c2.526-1.193,5.1-2.318,7.588-3.635h.056a9.521,9.521,0,0,0,3.859,2.016c2.481.616,4.038-1.187,3.142-2.8-.728-1.288-2.24-1.232-3.724-.806-.42.123-.84.274-1.249.431a55.628,55.628,0,0,0,4.822-3.147l.129.14V202.8a9.722,9.722,0,0,0,3.892,2.044c2.475.61,4.038-1.187,3.142-2.8C108.583,200.826,107.093,200.877,105.587,201.308ZM66.43,252.051c-.51-.594-.991-1.215-1.462-1.842.112-.1.235-.213.358-.336a8.809,8.809,0,0,0,2.156.386v.118l.342-.073c.179.885.364,1.764.56,2.643A2.291,2.291,0,0,0,66.43,252.051Zm1.826-21.085c-.174.661-.319,1.322-.459,1.988l-.084-.118q0-2.05.062-4.088c.039-.952.106-1.9.19-2.85a9.868,9.868,0,0,0,1.512,1.26,36.676,36.676,0,0,0-1.215,3.808Zm2.3-6.272c.034-.246.062-.5.073-.745v-.375c.2-.062.409-.134.61-.218-.224.442-.459.89-.678,1.339Zm2.918-4.732A1.787,1.787,0,0,0,72.445,219c-1.383-.56-2.5.448-3.394,1.736l-.045.062h-.09a1.678,1.678,0,0,0-.286-.039.465.465,0,0,1,.039-.23,50.039,50.039,0,0,1,1.434-5.987,9.52,9.52,0,0,0,3.836-.3,3.265,3.265,0,0,0,1.882-1.338,8.646,8.646,0,0,0,1.383,3.142,25.7,25.7,0,0,0-3.73,3.92Z" transform="translate(-45.34 -169.51)" fill="#4b57d6"/>
      <path id="Path_3603" data-name="Path 3603" d="M105.587,201.308a31.357,31.357,0,0,0-3.142,1.215c.56-.409,1.12-.834,1.68-1.266a81.464,81.464,0,0,0,7.107-6.44,77.316,77.316,0,0,1-8.4,7.073,17.841,17.841,0,0,0,1.075-2.206c.56-1.394.661-2.8-.666-3.545-1.641-.918-3.623.454-3.1,2.8a8.658,8.658,0,0,0,1.809,3.556,53.65,53.65,0,0,1-6.048,3.623l-.2.1a19.943,19.943,0,0,0,1.17-2.38c.526-1.389.661-2.8-.672-3.539-1.641-.924-3.623.454-3.1,2.8a8.674,8.674,0,0,0,1.77,3.517c-2.514,1.238-5.113,2.29-7.7,3.433l-.375.168A17.25,17.25,0,0,0,88.2,208.5c.84-1.232,1.294-2.565.174-3.6-1.378-1.277-3.635-.4-3.668,2.016a8.652,8.652,0,0,0,.907,3.847,39.59,39.59,0,0,0-6.866,4.1l-.067.056a15.362,15.362,0,0,0,.8-1.422c.633-1.35.868-2.738-.409-3.584a2.083,2.083,0,0,0-3.125.969,1.966,1.966,0,0,0-.666-.638c-1.282-.739-2.542.062-3.623,1.193-.28.3-.56.616-.8.93a39.5,39.5,0,0,1,3.131-6.664,9.582,9.582,0,0,0,3.769.8c2.554,0,3.629-2.128,2.374-3.45-1.019-1.07-2.453-.661-3.808.123a14.309,14.309,0,0,0-1.294.851,38.72,38.72,0,0,1,4.4-5.477,9.594,9.594,0,0,0,3.64,1.831c2.481.61,4.038-1.187,3.142-2.772-.728-1.288-2.24-1.238-3.724-.806a17.215,17.215,0,0,0-2.083.773c.678-.661,1.378-1.294,2.089-1.921.93-.8,1.893-1.562,2.873-2.313a9.571,9.571,0,0,0,3.578,1.786c2.481.61,4.038-1.187,3.142-2.772-.728-1.288-2.24-1.238-3.73-.806-.347.1-.7.224-1.042.353,1.294-.924,2.6-1.826,3.92-2.722l1.215-.834a9.622,9.622,0,0,0,3.763,1.938c2.481.61,4.043-1.187,3.147-2.772-.734-1.288-2.24-1.238-3.73-.806q-.879.269-1.73.622h0l.75-.56c.459-.33.918-.666,1.366-1.019.56-.42,1.092-.885,1.635-1.333.314-.246.61-.51.907-.778a9.593,9.593,0,0,0,3.786,1.954c2.481.61,4.038-1.187,3.142-2.772-.728-1.288-2.24-1.238-3.724-.806a21.02,21.02,0,0,0-2.442.924h0c1.014-.941,1.994-1.921,2.923-2.94.062-.073.118-.146.185-.213.4-.442.79-.89,1.17-1.355s.874-1.075,1.288-1.635a32.05,32.05,0,0,0,4.167-7.28,31.92,31.92,0,0,1-4.307,7.168A45.063,45.063,0,0,1,99,182.754l-.23.2a21.281,21.281,0,0,0,1.266-2.526c.532-1.389.661-2.8-.672-3.539-1.635-.924-3.623.454-3.1,2.8a8.708,8.708,0,0,0,1.966,3.741l-.493.426-.56.482c-.325.263-.661.515-1,.767-.179.134-.353.274-.56.409-.476.353-.958.694-1.445,1.03l-.7.476-.8.56a19.444,19.444,0,0,0,1.221-2.47c.532-1.394.661-2.8-.666-3.539-1.641-.924-3.629.454-3.1,2.8a8.664,8.664,0,0,0,1.876,3.646l-.56.381-2.178,1.428-.431.28-1.215.812-.526.353c-.56.386-1.12.778-1.68,1.182a19.767,19.767,0,0,0,1.176-2.5c.56-1.389.661-2.8-.666-3.539-1.641-.924-3.623.454-3.1,2.8a8.63,8.63,0,0,0,1.915,3.685c-.952.7-1.893,1.417-2.8,2.167-.666.56-1.322,1.12-1.966,1.725a15.422,15.422,0,0,0,.75-1.6c.526-1.394.661-2.8-.672-3.539-1.641-.924-3.623.454-3.1,2.8a8.675,8.675,0,0,0,1.77,3.517,39.326,39.326,0,0,0-4.878,5.9A14.962,14.962,0,0,0,74.22,202c.179-1.478-.034-2.867-1.506-3.271-1.814-.5-3.4,1.316-2.324,3.478a8.675,8.675,0,0,0,2.6,3.007,40.759,40.759,0,0,0-3.517,7.28,15.029,15.029,0,0,0-.157-1.585c-.252-1.473-.846-2.744-2.374-2.716-1.882.039-2.9,2.24-1.243,4a8.534,8.534,0,0,0,3.147,2.078,51.156,51.156,0,0,0-1.551,5.975c-.067.319-.118.638-.179.958-.067.062-.134.123-.2.19-.067-.274-.146-.56-.235-.823-.47-1.411-1.254-2.582-2.761-2.313-1.848.325-2.514,2.643-.61,4.139a8.474,8.474,0,0,0,3.271,1.529c0,.056.045.106.073.162-.207,1.518-.364,3.047-.459,4.581-.073,1.12-.112,2.29-.134,3.438-1.6,0-2.733,1.758-1.63,3.663a8.075,8.075,0,0,0,1.764,2.083c.134,2.156.347,4.312.633,6.451a1.775,1.775,0,0,0-1.714-.4,2.3,2.3,0,0,0-1.624,2.083,1.994,1.994,0,0,0-.56,1.383c-.75-1.12-1.462-2.24-2.15-3.422a9.519,9.519,0,0,0,2.559-2.985c1.2-2.24-.157-4.206-1.91-3.73-1.434.392-1.747,1.848-1.68,3.411a15.631,15.631,0,0,0,.168,1.77l-.739-1.3c-.616-1.12-1.12-2.24-1.725-3.36-.146-.274-.274-.56-.392-.84a9.52,9.52,0,0,0,3.063-2.447c1.607-1.982.638-4.161-1.176-4.021-1.478.118-2.066,1.49-2.313,3.035a19.043,19.043,0,0,0-.179,2.033L55.93,234.3a62.44,62.44,0,0,1-2.761-8.479,9.52,9.52,0,0,0,3.551-2.24c1.8-1.82,1.053-4.077-.767-4.122-1.478-.034-2.2,1.271-2.6,2.8a20.465,20.465,0,0,0-.442,2.464q-.588-2.486-1.008-5.04c-.19-1.042-.314-2.1-.442-3.153a9.655,9.655,0,0,0,3.954-1.775c2.016-1.568,1.574-3.92-.23-4.183-1.462-.23-2.346.974-2.94,2.425a24.2,24.2,0,0,0-.874,2.8c-.112-1.221-.241-2.447-.3-3.674a57.438,57.438,0,0,1,0-7.605,57.64,57.64,0,0,0-.263,7.616c0,1.17.1,2.335.174,3.506a18.721,18.721,0,0,0-1.12-2.313c-.762-1.282-1.781-2.24-3.192-1.68-1.742.717-1.893,3.125.291,4.178a8.669,8.669,0,0,0,4.094.778c.1,1.047.19,2.089.347,3.125.218,1.68.5,3.293.829,4.923a16.666,16.666,0,0,0-1.193-1.8c-.924-1.17-2.055-2-3.36-1.243-1.63.935-1.473,3.36.829,4.1a8.681,8.681,0,0,0,4.027.269,64.813,64.813,0,0,0,2.514,8.6l.33.84a12.173,12.173,0,0,0-.958-1.12c-1.036-1.075-2.24-1.786-3.489-.9-1.529,1.12-1.12,3.472,1.232,4a8.664,8.664,0,0,0,3.92-.112c.118.286.235.56.375.851.56,1.154,1.058,2.335,1.646,3.466l.487.98c-.291-.252-.594-.493-.907-.717-1.221-.857-2.542-1.327-3.6-.224-1.3,1.361-.459,3.623,1.96,3.7a8.574,8.574,0,0,0,3.663-.728c.694,1.254,1.406,2.492,2.178,3.707.286.465.56.924.885,1.383a14.387,14.387,0,0,0-1.389-1.12c-1.221-.857-2.542-1.327-3.6-.224-1.294,1.361-.454,3.623,1.966,3.7a8.708,8.708,0,0,0,3.987-.913q.6.84,1.243,1.68c-.9,1.047-.6,2.8,1.226,3.6a8.172,8.172,0,0,0,2.8.622c.112.09.224.179.347.263l.056.045q1.736,6.485,4.116,12.78c.672,1.786,1.394,3.556,2.139,5.315h-6.72v26.5H89.481V275.426H78.549c-.935-2.044-1.837-4.111-2.677-6.2-1.372-3.427-2.615-6.911-3.7-10.444h0a4.76,4.76,0,0,0,.56.129,2.443,2.443,0,0,0,.756.034L73.2,257.1h-.2a3.444,3.444,0,0,1-.347-.067,5.346,5.346,0,0,1-.756-.28l-.291-.134a9.482,9.482,0,0,0,2.962-1.68c1.943-1.68,1.394-3.976-.42-4.172-1.467-.162-2.3,1.081-2.8,2.554-.151.42-.274.857-.381,1.282-.106-.392-.213-.784-.314-1.176-.3-1.159-.56-2.33-.829-3.5a9.426,9.426,0,0,0,3.209-1.742c1.943-1.68,1.389-3.97-.42-4.167-1.473-.162-2.3,1.081-2.8,2.554-.151.426-.28.868-.392,1.3-.168-.851-.33-1.708-.482-2.565-.106-.633-.207-1.271-.3-1.91-.034-.907-.05-1.814-.039-2.727,0-.5,0-1,.045-1.5a9.575,9.575,0,0,0,3.4.431c2.554-.168,3.495-2.352,2.162-3.59-1.086-1.014-2.492-.51-3.8.353a17.858,17.858,0,0,0-1.68,1.294,40.935,40.935,0,0,1,.969-6.328,32.309,32.309,0,0,1,1.07-3.618,9.593,9.593,0,0,0,3.646.51c2.554-.162,3.494-2.346,2.162-3.59-1.081-1.008-2.492-.51-3.8.358a14.738,14.738,0,0,0-1.31,1.014,27.084,27.084,0,0,1,1.714-3.36,24.691,24.691,0,0,1,4.783-5.83,9.47,9.47,0,0,0,3.388,2.01c2.43.8,4.116-.885,3.36-2.531-.633-1.338-2.122-1.4-3.657-1.081a15.49,15.49,0,0,0-1.747.482l.039-.034a38.639,38.639,0,0,1,6.72-4.211,9.638,9.638,0,0,0,3.125,2.654c2.274,1.17,4.206-.218,3.7-1.966-.409-1.422-1.87-1.719-3.433-1.68a16.642,16.642,0,0,0-1.831.2c2.526-1.193,5.1-2.318,7.588-3.635h.056a9.521,9.521,0,0,0,3.859,2.016c2.481.616,4.038-1.187,3.142-2.8-.728-1.288-2.24-1.232-3.724-.806-.42.123-.84.274-1.249.431a55.628,55.628,0,0,0,4.822-3.147l.129.14V202.8a9.722,9.722,0,0,0,3.892,2.044c2.475.61,4.038-1.187,3.142-2.8C108.583,200.826,107.093,200.877,105.587,201.308ZM66.43,252.051c-.51-.594-.991-1.215-1.462-1.842.112-.1.235-.213.358-.336a8.809,8.809,0,0,0,2.156.386v.118l.342-.073c.179.885.364,1.764.56,2.643A2.291,2.291,0,0,0,66.43,252.051Zm1.826-21.085c-.174.661-.319,1.322-.459,1.988l-.084-.118q0-2.05.062-4.088c.039-.952.106-1.9.19-2.85a9.868,9.868,0,0,0,1.512,1.26,36.676,36.676,0,0,0-1.215,3.808Zm2.3-6.272c.034-.246.062-.5.073-.745v-.375c.2-.062.409-.134.61-.218-.224.442-.459.89-.678,1.339Zm2.918-4.732A1.787,1.787,0,0,0,72.445,219c-1.383-.56-2.5.448-3.394,1.736l-.045.062h-.09a1.678,1.678,0,0,0-.286-.039.465.465,0,0,1,.039-.23,50.039,50.039,0,0,1,1.434-5.987,9.52,9.52,0,0,0,3.836-.3,3.265,3.265,0,0,0,1.882-1.338,8.646,8.646,0,0,0,1.383,3.142,25.7,25.7,0,0,0-3.73,3.92Z" transform="translate(-45.34 -169.51)" fill="#fff" opacity="0.3"/>
      <path id="Path_3604" data-name="Path 3604" d="M389.744,328.886s-2.71-6.054-3.36-6.675-5.841-2.5-7.28-7.28-4.172-17.529,2.716-16.694,5.214,14.191,7.717,13.771-2.083-21.7,2.3-24.641,11.475-.207,10.64,11.06-2.5,17.73-1.042,17.108,5.634-2.923,5.634,1.876-3.965,8.137-6.261,8.344-3.36.42-3.36.42V329.3Z" transform="translate(-191.414 -220.881)" fill="#2e353a"/>
      <path id="Path_3604_-_Outline" data-name="Path 3604 - Outline" d="M397.224,329.36h-.015l-7.7-.414a.28.28,0,0,1-.24-.165,54.9,54.9,0,0,0-3.3-6.588,6.2,6.2,0,0,0-.833-.507c-1.734-.968-5.342-2.981-6.521-6.894a46.4,46.4,0,0,1-1.631-7.943c-.381-3.664-.018-6.269,1.079-7.745a3.438,3.438,0,0,1,2.914-1.406,5.5,5.5,0,0,1,.656.041,4.984,4.984,0,0,1,2.778,1.255,7.485,7.485,0,0,1,1.749,2.486,26.386,26.386,0,0,1,1.68,6.165c.356,1.9.723,3.873,1.363,3.873a.4.4,0,0,0,.067-.006c.115-.019.5-.255.557-2.473.044-1.6-.08-3.8-.211-6.135a93.131,93.131,0,0,1-.216-9.651,17.8,17.8,0,0,1,.567-3.906,4.183,4.183,0,0,1,1.49-2.433,6.609,6.609,0,0,1,3.7-1.147,6.461,6.461,0,0,1,4.757,2.138,9.6,9.6,0,0,1,2.14,4.044,18.606,18.606,0,0,1,.484,6.279c-.323,4.366-.781,8.085-1.115,10.8-.229,1.865-.411,3.339-.477,4.395a7.906,7.906,0,0,0-.007,1.23.855.855,0,0,0,.109.422.235.235,0,0,0,.059-.018c.115-.049.253-.111.4-.176a8.552,8.552,0,0,1,3.216-.944,2.137,2.137,0,0,1,1.715.72,3.872,3.872,0,0,1,.695,2.534,9.257,9.257,0,0,1-2.339,6.079,7.143,7.143,0,0,1-4.177,2.544c-1.665.15-2.684.3-3.105.376v2.89a.28.28,0,0,1-.28.28Zm-7.515-.965,7.235.389v-2.829a.28.28,0,0,1,.225-.275c.044-.009,1.1-.218,3.39-.424a6.577,6.577,0,0,0,3.806-2.356,8.7,8.7,0,0,0,2.2-5.71A3.362,3.362,0,0,0,406,315.02a1.584,1.584,0,0,0-1.288-.523,8.136,8.136,0,0,0-2.986.894c-.148.067-.288.13-.409.181a.576.576,0,0,1-.7-.124c-.474-.536-.283-2.27.236-6.489.352-2.861.79-6.422,1.112-10.774.41-5.538-1.12-8.44-2.476-9.9a5.907,5.907,0,0,0-4.346-1.959,6.051,6.051,0,0,0-3.383,1.052A3.725,3.725,0,0,0,390.5,289.5a17.269,17.269,0,0,0-.546,3.781,92.723,92.723,0,0,0,.216,9.589c.332,5.895.446,8.98-.812,9.191a.951.951,0,0,1-.16.014c-.707,0-1.052-.787-1.25-1.379a24.236,24.236,0,0,1-.663-2.951,25.974,25.974,0,0,0-1.638-6.032c-.969-2.086-2.306-3.2-4.087-3.421a4.934,4.934,0,0,0-.589-.037,2.869,2.869,0,0,0-2.464,1.18,6.425,6.425,0,0,0-1.028,3.125,20.257,20.257,0,0,0,.057,4.228,45.825,45.825,0,0,0,1.61,7.84c1.114,3.7,4.588,5.635,6.258,6.567a5.561,5.561,0,0,1,.948.592c.11.1.443.424,1.983,3.653C388.951,326.723,389.516,327.967,389.709,328.4Z" transform="translate(-191.194 -220.661)" fill="#2e353a"/>
      <path id="Path_3605" data-name="Path 3605" d="M390.723,330.182a.139.139,0,0,1-.1-.038,18.414,18.414,0,0,1-3.714-4.3c-1.317-2.64-2.291-9.82-2.332-10.125a.14.14,0,0,1,.278-.037c.01.074,1.009,7.439,2.3,10.036a18.229,18.229,0,0,0,3.656,4.222.14.14,0,0,1-.1.242Z" transform="translate(-194.6 -233.77)" fill="#fff"/>
      <path id="Path_3606" data-name="Path 3606" d="M394.979,346.16h-.009l-2.487-.168a.14.14,0,0,1-.13-.126,66.216,66.216,0,0,0-1-6.606c-.266-.96-1.73-1.927-3.28-2.951a15.384,15.384,0,0,1-3.318-2.622c-2.576-3.116-3.163-5.9-3.844-9.128-.159-.752-.323-1.53-.518-2.346a.14.14,0,1,1,.272-.065c.2.82.361,1.6.52,2.354.673,3.19,1.254,5.945,3.786,9.009a15.224,15.224,0,0,0,3.256,2.566c1.6,1.055,3.105,2.052,3.4,3.115l0,.009c.437,2.147.771,4.34.993,6.521l2.233.151a19.424,19.424,0,0,0,.06-2.391,13.031,13.031,0,0,0-.98-4.788.14.14,0,1,1,.254-.118,13.312,13.312,0,0,1,1.006,4.9,18.926,18.926,0,0,1-.075,2.562A.14.14,0,0,1,394.979,346.16Z" transform="translate(-192.757 -236.621)" fill="#fff"/>
      <path id="Path_3607" data-name="Path 3607" d="M379.519,314.835a.14.14,0,0,1-.138-.114,6.184,6.184,0,0,1,.363-3.878,3.478,3.478,0,0,1,.888-1.2.14.14,0,1,1,.171.222,3.294,3.294,0,0,0-.814,1.119,5.922,5.922,0,0,0-.333,3.689.14.14,0,0,1-.112.163Z" transform="translate(-192.25 -231.152)" fill="#fff"/>
      <path id="Line_97" data-name="Line 97" d="M-.11,1.626a.139.139,0,0,1-.073-.021.14.14,0,0,1-.046-.193l.986-1.6A.14.14,0,0,1,.949-.229a.14.14,0,0,1,.046.193L.009,1.56A.14.14,0,0,1-.11,1.626Z" transform="translate(199.504 91.516)" fill="#fff"/>
      <path id="Line_98" data-name="Line 98" d="M-.11.584A.139.139,0,0,1-.183.564.14.14,0,0,1-.229.371L.112-.183A.14.14,0,0,1,.305-.229a.14.14,0,0,1,.046.193L.009.518A.14.14,0,0,1-.11.584Z" transform="translate(200.489 90.962)" fill="#fff"/>
      <path id="Path_3608" data-name="Path 3608" d="M403.5,311.035h-.006a.14.14,0,0,1-.134-.146c.124-2.964-.191-8.16-.445-12.335-.158-2.6-.295-4.852-.295-6.028a3.41,3.41,0,0,1,.979-2.573,4.436,4.436,0,0,1,2.975-1.045.14.14,0,0,1-.012.28h0a4.227,4.227,0,0,0-2.771.969,3.142,3.142,0,0,0-.892,2.369c0,1.167.136,3.412.294,6.011.254,4.182.57,9.386.445,12.364A.14.14,0,0,1,403.5,311.035Z" transform="translate(-202.537 -222.043)" fill="#fff"/>
      <path id="Path_3609" data-name="Path 3609" d="M411.37,350.964h-.01a.14.14,0,0,1-.13-.149,15.5,15.5,0,0,1,.5-3.006.128.128,0,0,1,.005-.015c.216-.542.807-.5,1.556-.451a6.344,6.344,0,0,0,2.183-.131,8.116,8.116,0,0,0,5.69-6.182c.4-1.943.074-2.827-.275-3.227a1.162,1.162,0,0,0-.9-.413c-1.068.08-2.854,2-4.289,3.54-1.382,1.485-2.063,2.191-2.445,2.042-.135-.053-.2-.2-.2-.423,0-.308.045-1.073.146-2.48a.14.14,0,1,1,.279.02c-.1,1.4-.145,2.159-.145,2.46,0,.134.029.164.029.164s.148.027.717-.5c.394-.368.891-.9,1.418-1.469,1.544-1.659,3.295-3.54,4.473-3.628a1.445,1.445,0,0,1,1.126.5c.572.651.688,1.819.343,3.474a8.417,8.417,0,0,1-5.888,6.395,6.579,6.579,0,0,1-2.278.141c-.741-.05-1.137-.061-1.274.268a15.225,15.225,0,0,0-.492,2.944A.14.14,0,0,1,411.37,350.964Z" transform="translate(-206.326 -243.25)" fill="#fff"/>
      <path id="Path_3610" data-name="Path 3610" d="M415.34,318.214h-.011a.14.14,0,0,1-.128-.151l.042-.53c.5-6.282,1.189-14.885,1.189-18.645a14.58,14.58,0,0,0-.4-3.635.14.14,0,0,1,.272-.065,14.856,14.856,0,0,1,.407,3.7c0,3.769-.688,12.378-1.19,18.665l-.042.53A.14.14,0,0,1,415.34,318.214Z" transform="translate(-208.072 -224.759)" fill="#fff"/>
      <path id="Path_3611" data-name="Path 3611" d="M414.559,291.011a.14.14,0,0,1-.125-.077,2.787,2.787,0,0,0-1.1-1.163.14.14,0,1,1,.139-.243,3.065,3.065,0,0,1,1.215,1.279.14.14,0,0,1-.125.2Z" transform="translate(-207.219 -222.308)" fill="#fff"/>
      <path id="Line_99" data-name="Line 99" d="M-.11,2.348H-.117A.14.14,0,0,1-.25,2.2L-.132-.117A.14.14,0,0,1,.015-.25.14.14,0,0,1,.147-.1L.03,2.216A.14.14,0,0,1-.11,2.348Z" transform="translate(203.48 95.929)" fill="#fff"/>
      <path id="Path_3612" data-name="Path 3612" d="M408.74,317.512h0a.14.14,0,0,1-.136-.144c.151-5.219.393-17.588.129-20.35a7.508,7.508,0,0,1,.216-3.273c.224-.561.508-.67.54-.681l.089.266h0c-.009,0-.88.4-.57,3.664.291,3.049-.033,17.076-.128,20.385A.14.14,0,0,1,408.74,317.512Z" transform="translate(-205.168 -223.871)" fill="#fff"/>
      <path id="Path_3613" data-name="Path 3613" d="M408.67,353.06h-.007a.14.14,0,0,1-.133-.147c0-.033.168-3.344.168-5.128,0-1.29.112-1.356,1.584-1.814.67-.208,1.682-.523,3.139-1.115a13.312,13.312,0,0,0,6.388-5.9.14.14,0,1,1,.247.132,13.537,13.537,0,0,1-6.524,6.026h0c-1.469.6-2.488.914-3.163,1.124a3.128,3.128,0,0,0-1.211.509c-.159.174-.176.45-.176,1.037,0,1.792-.166,5.109-.168,5.142A.14.14,0,0,1,408.67,353.06Z" transform="translate(-205.138 -244.03)" fill="#fff"/>
      <path id="Path_3614" data-name="Path 3614" d="M404,389.5H389.527l-3.1-20.961h20.665Z" transform="translate(-195.414 -257.08)" fill="#4b57d6"/>
      <path id="Path_3614_-_Outline" data-name="Path 3614 - Outline" d="M403.778,389.561H389.307a.28.28,0,0,1-.277-.239l-3.1-20.961a.28.28,0,0,1,.277-.321h20.665a.28.28,0,0,1,.277.321l-3.1,20.961A.28.28,0,0,1,403.778,389.561ZM389.549,389h13.987l3.014-20.4H386.534Z" transform="translate(-195.194 -256.86)" fill="#2e353a"/>
      <rect id="Rectangle_3090" data-name="Rectangle 3090" width="24.215" height="5.611" transform="translate(189.241 108.156)" fill="#4b57d6"/>
      <path id="Rectangle_3090_-_Outline" data-name="Rectangle 3090 - Outline" d="M-.22-.5H24a.28.28,0,0,1,.28.28V5.391a.28.28,0,0,1-.28.28H-.22a.28.28,0,0,1-.28-.28V-.22A.28.28,0,0,1-.22-.5ZM23.715.06H.06V5.111H23.715Z" transform="translate(189.461 108.376)" fill="#2e353a"/>
    </g>
    <g id="freepik--Device--inject-1" transform="translate(44.745 58.975)">
      <path id="Path_3615" data-name="Path 3615" d="M245.64,371.83V360.45H212.129v11.38a16.481,16.481,0,0,1-3.562,10.209l-1.467,1.848h43.569l-1.467-1.848A16.481,16.481,0,0,1,245.64,371.83Z" transform="translate(-161.257 -262.738)" fill="#fff"/>
      <path id="Path_3615_-_Outline" data-name="Path 3615 - Outline" d="M211.909,359.95H245.42a.28.28,0,0,1,.28.28v11.38a16.268,16.268,0,0,0,3.5,10.035l1.467,1.848a.28.28,0,0,1-.219.454H206.88a.28.28,0,0,1-.219-.454l1.467-1.848a16.269,16.269,0,0,0,3.5-10.035V360.23A.28.28,0,0,1,211.909,359.95Zm33.231.56H212.189v11.1a16.761,16.761,0,0,1-3.622,10.383l-1.107,1.394h42.41l-1.107-1.394a16.76,16.76,0,0,1-3.622-10.383Z" transform="translate(-161.037 -262.518)" fill="#2e353a"/>
      <path id="Path_3616" data-name="Path 3616" d="M212.4,379.8h37.633a16.453,16.453,0,0,1-2.061-7.969V360.45H214.461v11.38A16.45,16.45,0,0,1,212.4,379.8Z" transform="translate(-163.589 -262.738)" fill="#4b57d6"/>
      <rect id="Rectangle_3091" data-name="Rectangle 3091" width="134.69" height="101.021" rx="8.48" transform="translate(0.28 0.28)" fill="#2e353a"/>
      <path id="Rectangle_3091_-_Outline" data-name="Rectangle 3091 - Outline" d="M4.529-.5H129.721a5.035,5.035,0,0,1,5.029,5.029V96.053a5.035,5.035,0,0,1-5.029,5.029H4.529A5.035,5.035,0,0,1-.5,96.053V4.529A5.035,5.035,0,0,1,4.529-.5ZM129.721,100.521a4.474,4.474,0,0,0,4.469-4.469V4.529A4.474,4.474,0,0,0,129.721.06H4.529A4.474,4.474,0,0,0,.06,4.529V96.053a4.474,4.474,0,0,0,4.469,4.469Z" transform="translate(0.5 0.5)" fill="#2e353a"/>
      <path id="Path_3617" data-name="Path 3617" d="M125.74,338.82h134.7v10.948a4.749,4.749,0,0,1-4.749,4.749H130.495a4.749,4.749,0,0,1-4.749-4.749h0V338.82Z" transform="translate(-125.46 -253.221)" fill="#fff"/>
      <path id="Path_3617_-_Outline" data-name="Path 3617 - Outline" d="M125.52,338.32h134.7a.28.28,0,0,1,.28.28v10.948a5.035,5.035,0,0,1-5.029,5.029H130.275a5.035,5.035,0,0,1-5.029-5.029V338.656a.284.284,0,0,1-.006-.056A.28.28,0,0,1,125.52,338.32Zm134.415.56H125.806v10.668a4.474,4.474,0,0,0,4.469,4.469H255.466a4.474,4.474,0,0,0,4.469-4.469Z" transform="translate(-125.24 -253.001)" fill="#2e353a"/>
      <rect id="Rectangle_3092" data-name="Rectangle 3092" width="121.143" height="71.369" transform="translate(7.056 6.569)" fill="#fff"/>
      <path id="Rectangle_3092_-_Outline" data-name="Rectangle 3092 - Outline" d="M-.22-.5H120.923a.28.28,0,0,1,.28.28V71.149a.28.28,0,0,1-.28.28H-.22a.28.28,0,0,1-.28-.28V-.22A.28.28,0,0,1-.22-.5ZM120.643.06H.06V70.869H120.643Z" transform="translate(7.276 6.789)" fill="#2e353a"/>
      <path id="Path_3618" data-name="Path 3618" d="M246.533,350.886a2.487,2.487,0,1,0-2.487,2.486A2.487,2.487,0,0,0,246.533,350.886Z" transform="translate(-176.419 -257.436)" fill="#2e353a"/>
      <path id="Path_3618_-_Outline" data-name="Path 3618 - Outline" d="M243.827,347.9a2.767,2.767,0,1,1-2.767,2.767A2.748,2.748,0,0,1,243.827,347.9Zm0,4.973a2.206,2.206,0,1,0-2.206-2.206A2.209,2.209,0,0,0,243.827,352.873Z" transform="translate(-176.199 -257.216)" fill="#2e353a"/>
      <rect id="Rectangle_3093" data-name="Rectangle 3093" width="43.575" height="2.033" transform="translate(45.843 121.171)" fill="#fff"/>
      <path id="Rectangle_3093_-_Outline" data-name="Rectangle 3093 - Outline" d="M-.22-.5H43.355a.28.28,0,0,1,.28.28V1.813a.28.28,0,0,1-.28.28H-.22a.28.28,0,0,1-.28-.28V-.22A.28.28,0,0,1-.22-.5ZM43.075.06H.06V1.533H43.075Z" transform="translate(46.063 121.391)" fill="#2e353a"/>
      <rect id="Rectangle_3094" data-name="Rectangle 3094" width="119.054" height="6.255" transform="translate(8.008 11.598)" fill="#fff"/>
      <path id="Rectangle_3094_-_Outline" data-name="Rectangle 3094 - Outline" d="M-.22-.5H118.834a.28.28,0,0,1,.28.28V6.035a.28.28,0,0,1-.28.28H-.22a.28.28,0,0,1-.28-.28V-.22A.28.28,0,0,1-.22-.5ZM118.554.06H.06v5.7H118.554Z" transform="translate(8.228 11.818)" fill="#2e353a"/>
      <path id="Path_3619" data-name="Path 3619" d="M159.185,214.814l-1.428-3.864H139.54v60.907H258.594V214.814Z" transform="translate(-131.532 -196.961)" fill="#4b57d6"/>
      <path id="Path_3619_-_Outline" data-name="Path 3619 - Outline" d="M139.32,210.45h18.217a.28.28,0,0,1,.263.183l1.36,3.681h99.214a.28.28,0,0,1,.28.28v57.043a.28.28,0,0,1-.28.28H139.32a.28.28,0,0,1-.28-.28V210.73A.28.28,0,0,1,139.32,210.45Zm18.022.56H139.6v60.347H258.094V214.874H158.965a.28.28,0,0,1-.263-.183Z" transform="translate(-131.312 -196.741)" fill="#2e353a"/>
      <path id="Line_100" data-name="Line 100" d="M55.382.12H-.44A.56.56,0,0,1-1-.44.56.56,0,0,1-.44-1H55.382a.56.56,0,0,1,.56.56A.56.56,0,0,1,55.382.12Z" transform="translate(40.492 46.58)" fill="#2e353a"/>
      <path id="Line_101" data-name="Line 101" d="M55.382.12H-.44A.56.56,0,0,1-1-.44.56.56,0,0,1-.44-1H55.382a.56.56,0,0,1,.56.56A.56.56,0,0,1,55.382.12Z" transform="translate(40.492 52.068)" fill="#2e353a"/>
      <path id="Line_102" data-name="Line 102" d="M55.382.12H-.44A.56.56,0,0,1-1-.44.56.56,0,0,1-.44-1H55.382a.56.56,0,0,1,.56.56A.56.56,0,0,1,55.382.12Z" transform="translate(40.492 57.556)" fill="#2e353a"/>
      <path id="Line_103" data-name="Line 103" d="M55.382.12H-.44A.56.56,0,0,1-1-.44.56.56,0,0,1-.44-1H55.382a.56.56,0,0,1,.56.56A.56.56,0,0,1,55.382.12Z" transform="translate(40.492 63.05)" fill="#2e353a"/>
      <path id="Path_3620" data-name="Path 3620" d="M248.307,236H197.72a3.965,3.965,0,0,1-3.971-3.959h0a3.965,3.965,0,0,1,3.959-3.971h50.6a3.965,3.965,0,0,1,3.971,3.971h0A3.965,3.965,0,0,1,248.307,236Z" transform="translate(-155.383 -204.493)" fill="#fff"/>
      <path id="Path_3620_-_Outline" data-name="Path 3620 - Outline" d="M197.495,236.06a4.245,4.245,0,0,1-.006-8.49h50.6a4.245,4.245,0,0,1,0,8.49h-50.6Zm50.6-7.93h-50.6a3.685,3.685,0,0,0,.005,7.37h50.6a3.685,3.685,0,1,0,0-7.37Z" transform="translate(-155.163 -204.273)" fill="#2e353a"/>
      <path id="Path_3621" data-name="Path 3621" d="M285.741,235.991H278.83V228.05h6.911a3.965,3.965,0,0,1,3.971,3.971h0a3.965,3.965,0,0,1-3.971,3.97Z" transform="translate(-192.817 -204.484)" fill="#2e353a"/>
      <path id="Path_3621_-_Outline" data-name="Path 3621 - Outline" d="M285.521,236.051H278.61a.28.28,0,0,1-.28-.28V227.83a.28.28,0,0,1,.28-.28h6.916a4.251,4.251,0,0,1,0,8.5Zm-6.631-.56h6.636a3.691,3.691,0,0,0,0-7.381H278.89Z" transform="translate(-192.597 -204.264)" fill="#2e353a"/>
      <path id="Path_3622" data-name="Path 3622" d="M285.4,229.366a2.279,2.279,0,1,0,.106,3.22h0a2.268,2.268,0,0,0-.1-3.214Zm-.224,2.912a1.826,1.826,0,1,1-.084-2.587,1.826,1.826,0,0,1,.084,2.587Z" transform="translate(-194.021 -204.793)" fill="#fff"/>
      <path id="Path_3623" data-name="Path 3623" d="M290.177,236.361a.364.364,0,0,0-.386-.078l-.823-.773a.224.224,0,0,0-.314,0l-.073.078a.235.235,0,0,0,0,.319l.812.762a.386.386,0,0,0,.1.4l1.4,1.372a.493.493,0,0,0,.694,0h0a.493.493,0,0,0,0-.694Z" transform="translate(-197.08 -207.738)" fill="#fff"/>
    </g>
    <g id="freepik--search-engines--inject-1" transform="translate(9.453)">
      <path id="Path_3624" data-name="Path 3624" d="M313.516,268.9a3.265,3.265,0,0,0,1.8,1.8,12.139,12.139,0,0,1,2.453.75c2.2,1.238,7.695.134,11.676.56s9.347-3.982,9.347-3.982l15.8.868V253.217s-16.487.689-20.06-.689-7.555-4.256-9.341-4.122-16.487,1.786-16.487,1.786l4.811,18.7Z" transform="translate(-170.667 -154.464)" fill="#fff"/>
      <path id="Path_3624_-_Outline" data-name="Path 3624 - Outline" d="M321.342,272.121a8.283,8.283,0,0,1-3.932-.645,4.849,4.849,0,0,0-1.561-.512,4.609,4.609,0,0,1-.86-.224,3.564,3.564,0,0,1-1.931-1.908.278.278,0,0,1-.038-.085l-4.811-18.7a.28.28,0,0,1,.24-.348c.147-.017,14.726-1.654,16.5-1.787.047,0,.1-.005.146-.005,1.138,0,2.892.935,4.922,2.017a41.379,41.379,0,0,0,4.395,2.129c1.429.551,5.326.842,11.269.842,4.51,0,8.637-.17,8.678-.172a.28.28,0,0,1,.292.28v15.68a.28.28,0,0,1-.3.28l-15.691-.862a25.848,25.848,0,0,1-2.88,1.961,12.454,12.454,0,0,1-6,2.044,5.558,5.558,0,0,1-.588-.031,21.212,21.212,0,0,0-2.244-.1c-.951,0-1.943.04-2.9.079S322.2,272.121,321.342,272.121Zm-7.793-3.565.007.017a3,3,0,0,0,1.643,1.649,4.154,4.154,0,0,0,.756.193,5.392,5.392,0,0,1,1.729.573,7.84,7.84,0,0,0,3.658.573c.844,0,1.737-.036,2.683-.074.965-.039,1.962-.079,2.925-.079a21.755,21.755,0,0,1,2.3.105,5,5,0,0,0,.529.027c3.762,0,8.563-3.908,8.611-3.947a.28.28,0,0,1,.193-.063l15.5.852V253.288c-1.021.038-4.578.161-8.41.161-6.1,0-9.956-.3-11.47-.88a41.767,41.767,0,0,1-4.457-2.157c-1.882-1-3.66-1.951-4.659-1.951-.036,0-.071,0-.1,0-1.615.121-14,1.507-16.156,1.75Z" transform="translate(-170.447 -154.244)" fill="#2e353a"/>
      <path id="Path_3625" data-name="Path 3625" d="M298.4,172.02a16.593,16.593,0,1,0,18.318,14.667h0A16.582,16.582,0,0,0,298.4,172.02Zm3.293,29.726a13.312,13.312,0,1,1,11.76-14.7A13.312,13.312,0,0,1,301.689,201.746Z" transform="translate(-159.635 -120.812)" fill="#fff"/>
      <path id="Path_3625_-_Outline" data-name="Path 3625 - Outline" d="M300.011,171.418h0a16.873,16.873,0,0,1,1.846,33.645,17.126,17.126,0,0,1-1.877.1,16.875,16.875,0,0,1,.03-33.749Zm-.03,33.189a16.564,16.564,0,0,0,1.815-.1,16.314,16.314,0,0,0-1.784-32.529h0a16.315,16.315,0,0,0-.03,32.629Zm.036-29.9a13.592,13.592,0,0,1,1.483,27.1h0a13.791,13.791,0,0,1-1.517.084,13.592,13.592,0,0,1-1.485-27.1,13.807,13.807,0,0,1,1.517-.084Zm1.421,26.545a13.032,13.032,0,0,0-1.421-25.985h0a13.236,13.236,0,0,0-1.456.081,13.032,13.032,0,0,0,1.423,25.985,13.225,13.225,0,0,0,1.455-.081Z" transform="translate(-159.415 -120.592)" fill="#2e353a"/>
      <path id="Path_3626" data-name="Path 3626" d="M298.236,170.33A16.593,16.593,0,1,0,316.555,185h0A16.6,16.6,0,0,0,298.236,170.33Zm3.293,29.726a13.312,13.312,0,1,1,11.76-14.7A13.312,13.312,0,0,1,301.529,200.056Z" transform="translate(-159.565 -120.069)" fill="#fff"/>
      <path id="Path_3626_-_Outline" data-name="Path 3626 - Outline" d="M299.857,169.729h0a16.873,16.873,0,0,1,1.841,33.645,17.129,17.129,0,0,1-1.877.1,16.873,16.873,0,0,1-1.836-33.646A17.136,17.136,0,0,1,299.857,169.729Zm-.035,33.189a16.571,16.571,0,0,0,1.815-.1,16.314,16.314,0,0,0-1.779-32.528h0a16.568,16.568,0,0,0-1.81.1,16.314,16.314,0,0,0,1.774,32.529Zm.036-29.9a13.592,13.592,0,0,1,1.483,27.1h0a13.789,13.789,0,0,1-1.517.084,13.592,13.592,0,0,1-1.485-27.1,13.8,13.8,0,0,1,1.517-.084Zm1.421,26.545a13.032,13.032,0,0,0-1.421-25.985h0a13.227,13.227,0,0,0-1.456.081,13.032,13.032,0,0,0,1.423,25.985,13.24,13.24,0,0,0,1.455-.081Z" transform="translate(-159.345 -119.849)" fill="#2e353a"/>
      <rect id="Rectangle_3095" data-name="Rectangle 3095" width="4.015" height="14.796" rx="2.008" transform="translate(140.481 83.819) rotate(-6.32)" fill="#4b57d6"/>
      <path id="Rectangle_3095_-_Outline" data-name="Rectangle 3095 - Outline" d="M1.893,0h.79A1.9,1.9,0,0,1,4.575,1.893v11.57a1.9,1.9,0,0,1-1.893,1.893h-.79A1.9,1.9,0,0,1,0,13.463V1.893A1.9,1.9,0,0,1,1.893,0Zm.79,14.8a1.334,1.334,0,0,0,1.333-1.333V1.893A1.334,1.334,0,0,0,2.682.56h-.79A1.334,1.334,0,0,0,.56,1.893v11.57A1.334,1.334,0,0,0,1.893,14.8Z" transform="translate(140.172 83.572) rotate(-6.32)" fill="#2e353a"/>
      <path id="Path_3627" data-name="Path 3627" d="M314.974,246.847l1.68-.179a2.761,2.761,0,0,1,3.035,2.419l2.514,22.742a3.528,3.528,0,0,1-3.119,3.892h-.112a3.522,3.522,0,0,1-3.892-3.119l-2.514-22.737A2.755,2.755,0,0,1,315,246.819Z" transform="translate(-172.361 -153.694)" fill="#2e353a"/>
      <path id="Path_3627_-_Outline" data-name="Path 3627 - Outline" d="M316.731,246.152a3.04,3.04,0,0,1,3.016,2.682l2.515,22.745a3.813,3.813,0,0,1-3.367,4.2l-.031,0h-.1a3.8,3.8,0,0,1-2.784-.814,3.778,3.778,0,0,1-1.4-2.555l-2.514-22.736a3.036,3.036,0,0,1,2.684-3.356.279.279,0,0,1,.118.012l1.535-.164A3.087,3.087,0,0,1,316.731,246.152Zm2.118,29.07a3.252,3.252,0,0,0,2.857-3.581L319.191,248.9a2.48,2.48,0,0,0-2.46-2.186,2.541,2.541,0,0,0-.267.014l-1.68.179a.281.281,0,0,1-.107-.009,2.476,2.476,0,0,0-2.052,2.718l2.514,22.737a3.242,3.242,0,0,0,3.583,2.872l.031,0Z" transform="translate(-172.14 -153.473)" fill="#2e353a"/>
      <path id="Path_3628" data-name="Path 3628" d="M317.409,280.84s-3.982.146-4.542.834-.459,3.086.622,3.36c2.755.723,8.613.3,8.843-.19s.7-3.36-.51-3.668A29.126,29.126,0,0,0,317.409,280.84Z" transform="translate(-172.353 -168.736)" fill="#fff"/>
      <path id="Path_3628_-_Outline" data-name="Path 3628 - Outline" d="M317.189,280.34h0a29.488,29.488,0,0,1,4.453.339l.027.005a1.16,1.16,0,0,1,.757.671,5.547,5.547,0,0,1-.063,3.387c-.077.164-.267.272-.657.371a9.215,9.215,0,0,1-1.114.191,28.511,28.511,0,0,1-3.252.177,17.652,17.652,0,0,1-4.145-.4,1.5,1.5,0,0,1-.987-1.1,3.987,3.987,0,0,1-.168-1.478,2.361,2.361,0,0,1,.387-1.232c.181-.223.655-.546,2.666-.777,1.064-.122,2.073-.16,2.083-.161Zm4.356.89a28.942,28.942,0,0,0-4.35-.33c-.077,0-1.032.042-2.037.157-1.917.221-2.246.517-2.292.574a2.878,2.878,0,0,0-.122,2.18c.078.237.26.647.6.732a17.118,17.118,0,0,0,4.005.379,28.23,28.23,0,0,0,3.029-.155,5.366,5.366,0,0,0,1.5-.3,5.13,5.13,0,0,0,.049-2.874A.612.612,0,0,0,321.544,281.23Z" transform="translate(-172.133 -168.516)" fill="#2e353a"/>
      <path id="Path_3629" data-name="Path 3629" d="M314.55,270.908s-4.631-.174-5.354.661-.862,3.954.358,4.424c3.114,1.193,10.12.728,10.439.112s1.014-3.814-.358-4.329A30.672,30.672,0,0,0,314.55,270.908Z" transform="translate(-170.643 -164.359)" fill="#fff"/>
      <path id="Path_3629_-_Outline" data-name="Path 3629 - Outline" d="M313.346,270.393c.582,0,.977.015.993.015h.016a30.3,30.3,0,0,1,5.157.885,1.394,1.394,0,0,1,.806.864,6.345,6.345,0,0,1-.3,3.856c-.084.163-.279.277-.652.381a8.276,8.276,0,0,1-1.106.208,26.169,26.169,0,0,1-3.284.19,18.325,18.325,0,0,1-5.745-.759,1.758,1.758,0,0,1-.958-1.325,4.729,4.729,0,0,1,.488-3.544,3.3,3.3,0,0,1,2.032-.654A24.454,24.454,0,0,1,313.346,270.393Zm.964.575c-.059,0-.439-.014-.964-.014-2.7,0-3.917.3-4.159.579a4.3,4.3,0,0,0-.368,3.042,1.3,1.3,0,0,0,.615.937,17.119,17.119,0,0,0,5.545.722,26.241,26.241,0,0,0,3.081-.169,4.444,4.444,0,0,0,1.474-.33,5.845,5.845,0,0,0,.261-3.376.851.851,0,0,0-.48-.54A30.311,30.311,0,0,0,314.311,270.968Z" transform="translate(-170.422 -164.139)" fill="#2e353a"/>
      <path id="Path_3630" data-name="Path 3630" d="M313.039,259.707s-4.951-.19-5.723.706-.924,4.223.381,4.727c3.36,1.277,10.64,1.277,10.982.616s1.26-4.57-.207-5.124A32.254,32.254,0,0,0,313.039,259.707Z" transform="translate(-169.798 -159.43)" fill="#fff"/>
      <path id="Path_3630_-_Outline" data-name="Path 3630 - Outline" d="M311.739,259.19h0c.636,0,1.071.016,1.09.017h.015a31.86,31.86,0,0,1,5.505.941,1.368,1.368,0,0,1,.782.849c.537,1.4-.119,4.072-.425,4.665-.09.173-.3.351-1.239.471a18.778,18.778,0,0,1-2.288.117,25.582,25.582,0,0,1-7.8-1.072,1.859,1.859,0,0,1-1.012-1.4,5.036,5.036,0,0,1,.518-3.772,3.478,3.478,0,0,1,2.143-.693A25.777,25.777,0,0,1,311.739,259.19Zm1.061.576c-.061,0-.48-.016-1.06-.016-2.87,0-4.172.323-4.432.625a4.622,4.622,0,0,0-.4,3.27,1.407,1.407,0,0,0,.669,1.012,25.013,25.013,0,0,0,7.6,1.035,8.687,8.687,0,0,0,3.039-.307c.247-.514.855-2.973.389-4.186a.825.825,0,0,0-.457-.526A31.881,31.881,0,0,0,312.8,259.766Z" transform="translate(-169.577 -159.21)" fill="#2e353a"/>
      <path id="Path_3631" data-name="Path 3631" d="M307.93,249.227s-4.95-.185-5.723.706-.958,4.323.381,4.727,10.64,1.277,10.982.622,1.26-4.575-.207-5.13A32.261,32.261,0,0,0,307.93,249.227Z" transform="translate(-167.545 -154.82)" fill="#fff"/>
      <path id="Path_3631_-_Outline" data-name="Path 3631 - Outline" d="M306.661,248.712h0c.619,0,1.04.015,1.058.016h.016a31.856,31.856,0,0,1,5.505.941,1.369,1.369,0,0,1,.783.853,5.791,5.791,0,0,1,.1,2.656,8.011,8.011,0,0,1-.525,2.012c-.093.179-.312.275-.756.33a10.752,10.752,0,0,1-1.252.057,59.731,59.731,0,0,1-9.3-.87,1.645,1.645,0,0,1-1.012-1.238,5.167,5.167,0,0,1,.5-3.94,3.523,3.523,0,0,1,2.162-.691A26.178,26.178,0,0,1,306.661,248.712Zm1.03.575c-.06,0-.466-.015-1.029-.015-2.892,0-4.2.323-4.464.625a4.748,4.748,0,0,0-.385,3.417c.1.333.285.752.636.858a60.28,60.28,0,0,0,9.141.846,4.931,4.931,0,0,0,1.531-.125,8.159,8.159,0,0,0,.449-1.8,5.133,5.133,0,0,0-.068-2.374.827.827,0,0,0-.458-.529A31.885,31.885,0,0,0,307.69,249.287Z" transform="translate(-167.324 -154.6)" fill="#2e353a"/>
      <path id="Path_3632" data-name="Path 3632" d="M328.891,264.333a8.353,8.353,0,0,1-2.492-1.154c-3.982-2.75-3.847-9.067-3.847-9.067l-.958-.274a8.524,8.524,0,0,1-2.2-1.238,19.9,19.9,0,0,1,.56,3.982,2.974,2.974,0,0,1-2.739,2.906c-1.238.14-1.786.274-2.2-1.372s-2.47-8.243-2.61-9.207c-.123-.874,1.344-2.43,3.679-2.8,3.59.291,7.129,1.294,10.747,1.294a7.281,7.281,0,0,1,3.5,1.288" transform="translate(-172.294 -153.455)" fill="#fff"/>
      <path id="Path_3632_-_Outline" data-name="Path 3632 - Outline" d="M328.671,264.393a.279.279,0,0,1-.074-.01,8.611,8.611,0,0,1-2.576-1.192,7.836,7.836,0,0,1-2.368-2.671,12.073,12.073,0,0,1-1.164-3.059,15.893,15.893,0,0,1-.438-3.357l-.755-.216-.022-.007a8.8,8.8,0,0,1-1.666-.846,20.24,20.24,0,0,1,.4,3.318c0,.005,0,.011,0,.016a3.254,3.254,0,0,1-2.992,3.18l-.141.016a2.552,2.552,0,0,1-1.465-.082c-.413-.213-.68-.666-.894-1.517-.171-.677-.625-2.212-1.106-3.837-.7-2.367-1.425-4.814-1.509-5.4a2.29,2.29,0,0,1,1.014-1.843,5.973,5.973,0,0,1,2.9-1.274.283.283,0,0,1,.066,0c1.5.122,3.011.37,4.472.61a38.924,38.924,0,0,0,6.252.683h.026a7.573,7.573,0,0,1,3.635,1.337.28.28,0,1,1-.322.459,7.011,7.011,0,0,0-3.353-1.237,39.431,39.431,0,0,1-6.329-.69c-1.439-.236-2.927-.481-4.393-.6-2.247.368-3.5,1.831-3.413,2.479.079.543.83,3.079,1.492,5.318.483,1.631.939,3.171,1.112,3.86.169.669.356,1.026.607,1.156a2.229,2.229,0,0,0,1.144.023l.147-.017h.009a2.685,2.685,0,0,0,2.481-2.625,19.66,19.66,0,0,0-.552-3.917.28.28,0,0,1,.444-.288,8.239,8.239,0,0,0,2.118,1.193l.946.271a.28.28,0,0,1,.2.275,15.091,15.091,0,0,0,.426,3.444,9.05,9.05,0,0,0,3.3,5.386,8.052,8.052,0,0,0,2.407,1.114.28.28,0,0,1-.074.55Z" transform="translate(-172.074 -153.235)" fill="#2e353a"/>
      <path id="Path_3633" data-name="Path 3633" d="M347.581,279.27a12.788,12.788,0,0,1-1.311,0" transform="translate(-187.197 -168.045)" fill="#fff"/>
      <path id="Path_3633_-_Outline" data-name="Path 3633 - Outline" d="M346.705,279.347c-.224,0-.447-.006-.67-.017a.28.28,0,0,1,.029-.559,12.5,12.5,0,0,0,1.282,0,.28.28,0,0,1,.029.559C347.153,279.341,346.929,279.347,346.705,279.347Z" transform="translate(-186.977 -167.825)" fill="#2e353a"/>
      <path id="Path_3634" data-name="Path 3634" d="M351.539,278.3a12.718,12.718,0,0,1-2.929.56" transform="translate(-188.227 -167.618)" fill="#fff"/>
      <path id="Path_3634_-_Outline" data-name="Path 3634 - Outline" d="M348.39,278.92a.28.28,0,0,1-.02-.559,12.449,12.449,0,0,0,2.864-.548.28.28,0,0,1,.169.534,13,13,0,0,1-2.993.572Z" transform="translate(-188.007 -167.398)" fill="#2e353a"/>
      <path id="Line_104" data-name="Line 104" d="M4.725.06H-.22A.28.28,0,0,1-.5-.22.28.28,0,0,1-.22-.5H4.725A.28.28,0,0,1,5-.22.28.28,0,0,1,4.725.06Z" transform="translate(168.477 109.121)" fill="#2e353a"/>
      <path id="Line_105" data-name="Line 105" d="M1.841.06H-.22A.28.28,0,0,1-.5-.22.28.28,0,0,1-.22-.5H1.841a.28.28,0,0,1,.28.28A.28.28,0,0,1,1.841.06Z" transform="translate(168.891 110.493)" fill="#2e353a"/>
      <path id="Path_3635" data-name="Path 3635" d="M330.31,259.18a.28.28,0,0,1,0-.56h0a7.3,7.3,0,0,0,4.337-1.557.28.28,0,0,1,.377.414A7.739,7.739,0,0,1,330.31,259.18Z" transform="translate(-180.052 -158.242)" fill="#2e353a"/>
      <path id="Path_3636" data-name="Path 3636" d="M324.195,255.715a.28.28,0,0,1-.278-.251,10.614,10.614,0,0,0-.453-2.139.28.28,0,0,1,.533-.172,11.171,11.171,0,0,1,.477,2.252.28.28,0,0,1-.249.308Z" transform="translate(-177.157 -156.469)" fill="#2e353a"/>
      <path id="Path_3637" data-name="Path 3637" d="M320.025,265.655a.14.14,0,0,1-.133-.184l.174-.521a11.349,11.349,0,0,0-.743-3.65.229.229,0,0,0-.182-.118,3.826,3.826,0,0,0-2.209.857c-.456.375-.2,1.434-.069,1.81a.14.14,0,0,1-.263.095c-.023-.063-.546-1.544.155-2.121a4.013,4.013,0,0,1,2.444-.915.511.511,0,0,1,.374.265,10.945,10.945,0,0,1,.758,3.865l-.174.521A.14.14,0,0,1,320.025,265.655Z" transform="translate(-174.051 -159.958)" fill="#2e353a"/>
      <path id="Path_3638" data-name="Path 3638" d="M415.349,279.264H368V255.99h47.349" transform="translate(-196.758 -157.802)" fill="#4b57d6"/>
      <path id="Path_3638_-_Outline" data-name="Path 3638 - Outline" d="M415.129,279.324H367.78a.28.28,0,0,1-.28-.28V255.77a.28.28,0,0,1,.28-.28h47.349a.28.28,0,1,1,0,.56H368.06v22.714h47.069a.28.28,0,1,1,0,.56Z" transform="translate(-196.538 -157.582)" fill="#2e353a"/>
      <circle id="Ellipse_179" data-name="Ellipse 179" cx="1.064" cy="1.064" r="1.064" transform="translate(173.65 117.777)" fill="#fff"/>
      <path id="Ellipse_179_-_Outline" data-name="Ellipse 179 - Outline" d="M.844-.5A1.344,1.344,0,1,1-.5.844,1.346,1.346,0,0,1,.844-.5Zm0,2.128A.784.784,0,1,0,.06.844.785.785,0,0,0,.844,1.628Z" transform="translate(173.87 117.997)" fill="#2e353a"/>
      <path id="Path_3639" data-name="Path 3639" d="M223.714,184.146a3.265,3.265,0,0,0,1.8-1.8,11.884,11.884,0,0,1,.75-2.453c1.232-2.2.134-7.689.56-11.676s-3.987-9.341-3.987-9.341l.857-15.8h-15.68s.683,16.487-.689,20.054-4.256,7.56-4.122,9.347,1.8,16.476,1.8,16.476l18.682-4.811Z" transform="translate(-124.25 -108.124)" fill="#fff"/>
      <path id="Path_3639_-_Outline" data-name="Path 3639 - Outline" d="M204.784,189.017a.28.28,0,0,1-.278-.249c-.017-.147-1.665-14.715-1.8-16.486-.085-1.133.886-2.958,2.011-5.07a41.221,41.221,0,0,0,2.128-4.4c1.336-3.473.677-19.778.67-19.942a.28.28,0,0,1,.28-.292h15.681a.28.28,0,0,1,.28.3l-.851,15.691a25.749,25.749,0,0,1,2.111,3.129,17.315,17.315,0,0,1,1.413,3.075,7.828,7.828,0,0,1,.456,3.26,37.064,37.064,0,0,0-.025,5.155c.108,2.7.209,5.242-.569,6.629a4.792,4.792,0,0,0-.514,1.564,4.538,4.538,0,0,1-.222.857,3.564,3.564,0,0,1-1.958,1.952.28.28,0,0,1-.1.02l-18.648,4.8A.282.282,0,0,1,204.784,189.017Zm3.3-45.877c.038,1.021.16,4.578.159,8.409,0,6.1-.3,9.954-.878,11.465a41.645,41.645,0,0,1-2.157,4.461c-1.039,1.95-2.02,3.793-1.947,4.764.121,1.614,1.517,13.986,1.76,16.145l18.37-4.73.038-.007a3,3,0,0,0,1.6-1.625,4.079,4.079,0,0,0,.191-.752,5.333,5.333,0,0,1,.576-1.733c.7-1.248.6-3.717.5-6.332a37.445,37.445,0,0,1,.028-5.236c.168-1.57-.453-3.641-1.794-5.99a25.155,25.155,0,0,0-2.131-3.144.28.28,0,0,1-.064-.193l.841-15.5Z" transform="translate(-124.03 -107.904)" fill="#2e353a"/>
      <path id="Path_3640" data-name="Path 3640" d="M126.92,209.228A16.593,16.593,0,1,0,141.6,190.921h-.039a16.593,16.593,0,0,0-14.639,18.307Zm29.681-3.3a13.317,13.317,0,1,1-14.712-11.76h0A13.323,13.323,0,0,1,156.6,205.929Z" transform="translate(-90.643 -129.128)" fill="#fff"/>
      <path id="Path_3640_-_Outline" data-name="Path 3640 - Outline" d="M143.174,224.069h0a16.876,16.876,0,0,1-1.866-33.647l.031,0h.024a17.123,17.123,0,0,1,1.852-.1,16.873,16.873,0,0,1,1.824,33.647A17.118,17.118,0,0,1,143.174,224.069Zm-1.82-33.088a16.316,16.316,0,0,0,1.819,32.528h0a16.571,16.571,0,0,0,1.8-.1,16.314,16.314,0,0,0-1.763-32.53,16.556,16.556,0,0,0-1.806.1l-.031,0Zm1.775,29.8a13.6,13.6,0,0,1-1.491-27.112,13.817,13.817,0,0,1,1.519-.084,13.6,13.6,0,0,1,1.495,27.111A13.8,13.8,0,0,1,143.129,220.782Zm.028-26.636a13.255,13.255,0,0,0-1.457.081,13.038,13.038,0,0,0,1.429,26,13.249,13.249,0,0,0,1.461-.081,13.038,13.038,0,0,0-1.433-25.995Z" transform="translate(-90.422 -128.908)" fill="#2e353a"/>
      <path id="Path_3641" data-name="Path 3641" d="M125.189,209.4a16.588,16.588,0,1,0,14.667-18.318A16.588,16.588,0,0,0,125.189,209.4Zm29.726-3.287a13.312,13.312,0,1,1-14.7-11.76A13.312,13.312,0,0,1,154.915,206.111Z" transform="translate(-89.88 -129.198)" fill="#fff"/>
      <path id="Path_3641_-_Outline" data-name="Path 3641 - Outline" d="M141.435,224.217a16.868,16.868,0,0,1-1.83-33.635,17.126,17.126,0,0,1,1.871-.1,16.868,16.868,0,0,1,1.837,33.634A17.127,17.127,0,0,1,141.435,224.217Zm.041-33.178a16.561,16.561,0,0,0-1.809.1,16.309,16.309,0,0,0,1.768,32.518,16.549,16.549,0,0,0,1.817-.1,16.308,16.308,0,0,0-1.776-32.518Zm-.028,29.915a13.592,13.592,0,0,1-1.485-27.1,13.806,13.806,0,0,1,1.518-.084,13.592,13.592,0,0,1,1.484,27.1A13.8,13.8,0,0,1,141.448,220.954Zm.033-26.626a13.233,13.233,0,0,0-1.456.081,13.032,13.032,0,0,0,1.423,25.985,13.243,13.243,0,0,0,1.455-.081,13.032,13.032,0,0,0-1.423-25.985Z" transform="translate(-89.66 -128.978)" fill="#2e353a"/>
      <rect id="Rectangle_3096" data-name="Rectangle 3096" width="14.796" height="4.015" rx="2.008" transform="translate(68.428 74.408) rotate(-6.32)" fill="#4b57d6"/>
      <path id="Rectangle_3096_-_Outline" data-name="Rectangle 3096 - Outline" d="M1.893,0h11.57a1.9,1.9,0,0,1,1.893,1.893v.79a1.9,1.9,0,0,1-1.893,1.893H1.893A1.9,1.9,0,0,1,0,2.682v-.79A1.9,1.9,0,0,1,1.893,0Zm11.57,4.015A1.334,1.334,0,0,0,14.8,2.682v-.79A1.334,1.334,0,0,0,13.463.56H1.893A1.334,1.334,0,0,0,.56,1.893v.79A1.334,1.334,0,0,0,1.893,4.015Z" transform="translate(68.119 74.16) rotate(-6.32)" fill="#2e353a"/>
      <path id="Path_3642" data-name="Path 3642" d="M201.7,211.132l-.185-1.68a2.761,2.761,0,0,1,2.442-3.047l22.737-2.514a3.534,3.534,0,0,1,3.92,3.119h0v.112a3.534,3.534,0,0,1-3.119,3.92h0l-22.737,2.514a2.766,2.766,0,0,1-3.058-2.425Z" transform="translate(-123.501 -134.869)" fill="#2e353a"/>
      <path id="Path_3642_-_Outline" data-name="Path 3642 - Outline" d="M204.226,213.635a3.046,3.046,0,0,1-3.022-2.69l-.185-1.682a3.044,3.044,0,0,1,2.689-3.355l22.737-2.514a3.814,3.814,0,0,1,4.229,3.367.277.277,0,0,1,0,.031v.1a3.814,3.814,0,0,1-3.368,4.214l-22.737,2.514A3.085,3.085,0,0,1,204.226,213.635Zm22.658-9.707a3.272,3.272,0,0,0-.376.022l-22.738,2.515a2.484,2.484,0,0,0-2.194,2.738l.185,1.68a2.485,2.485,0,0,0,2.466,2.193,2.522,2.522,0,0,0,.282-.016l22.737-2.515a3.254,3.254,0,0,0,2.872-3.609.279.279,0,0,1,0-.032v-.1a3.254,3.254,0,0,0-3.232-2.879Z" transform="translate(-123.281 -134.649)" fill="#2e353a"/>
      <path id="Path_3643" data-name="Path 3643" d="M235.69,208.389s.151,3.976.834,4.536,3.091.459,3.36-.622c.728-2.75.3-8.613-.19-8.837s-3.36-.706-3.663.51A29.124,29.124,0,0,0,235.69,208.389Z" transform="translate(-138.544 -134.567)" fill="#fff"/>
      <path id="Path_3643_-_Outline" data-name="Path 3643 - Outline" d="M237.651,213.32h0a2.5,2.5,0,0,1-1.524-.4c-.221-.181-.542-.654-.774-2.662-.123-1.062-.162-2.07-.163-2.08s0-.007,0-.011a29.494,29.494,0,0,1,.345-4.455c0-.008,0-.017,0-.025.114-.459.564-1.007,2.056-1.007a6.185,6.185,0,0,1,1.995.31c.155.07.334.235.5,1.3a22.534,22.534,0,0,1,.216,2.414,20.456,20.456,0,0,1-.371,5.447C239.72,213.014,238.57,213.32,237.651,213.32Zm-1.9-5.156c0,.079.043,1.032.16,2.034.222,1.916.516,2.244.572,2.291a2.075,2.075,0,0,0,1.169.271c.774,0,1.621-.256,1.742-.744v0a19.282,19.282,0,0,0,.361-5.082c-.03-.863-.1-1.7-.187-2.344a3.8,3.8,0,0,0-.249-1.1,6.052,6.052,0,0,0-1.724-.244c-.507,0-1.373.074-1.509.571A28.941,28.941,0,0,0,235.75,208.163Z" transform="translate(-138.324 -134.347)" fill="#2e353a"/>
      <path id="Path_3644" data-name="Path 3644" d="M225.767,209.887s-.179,4.631.655,5.354,3.954.868,4.424-.358c1.2-3.114.728-10.119.112-10.433s-3.814-1.014-4.329.358A30.456,30.456,0,0,0,225.767,209.887Z" transform="translate(-134.171 -134.923)" fill="#fff"/>
      <path id="Path_3644_-_Outline" data-name="Path 3644 - Outline" d="M228.395,215.855h0a3.964,3.964,0,0,1-2.375-.622c-.263-.228-.625-.8-.737-3.146-.059-1.246-.015-2.418-.015-2.43s0-.01,0-.015a30.08,30.08,0,0,1,.879-5.152c.171-.456.678-1,2.122-1a7.14,7.14,0,0,1,2.6.49c.187.095.384.346.561,1.533a23.732,23.732,0,0,1,.217,2.878,19.693,19.693,0,0,1-.755,6.373,1.579,1.579,0,0,1-1,.861A4.431,4.431,0,0,1,228.395,215.855Zm-2.568-6.169c0,.1-.041,1.208.015,2.378.105,2.2.443,2.659.544,2.746a3.6,3.6,0,0,0,2.009.485h0c1.026,0,1.8-.288,1.97-.732a17.681,17.681,0,0,0,.721-5.981,24.607,24.607,0,0,0-.187-2.8,4.024,4.024,0,0,0-.31-1.315,6.845,6.845,0,0,0-2.319-.418c-.62,0-1.4.11-1.6.636A30.1,30.1,0,0,0,225.827,209.685Z" transform="translate(-133.951 -134.703)" fill="#2e353a"/>
      <path id="Path_3645" data-name="Path 3645" d="M214.567,210.83s-.19,4.951.7,5.723,4.228.924,4.732-.386c1.277-3.327,1.277-10.64.616-10.976s-4.575-1.26-5.124.207A32.867,32.867,0,0,0,214.567,210.83Z" transform="translate(-129.242 -135.189)" fill="#fff"/>
      <path id="Path_3645_-_Outline" data-name="Path 3645 - Outline" d="M217.385,217.2h0a4.205,4.205,0,0,1-2.521-.659,2.408,2.408,0,0,1-.577-1.38,14.887,14.887,0,0,1-.2-1.969c-.064-1.331-.017-2.583-.016-2.6s0-.01,0-.016a32.45,32.45,0,0,1,.941-5.5c.245-.654.985-.986,2.2-.986a9.641,9.641,0,0,1,3.314.627c.2.1.4.366.514,1.613a25.169,25.169,0,0,1,.057,3.013,22.9,22.9,0,0,1-1.053,6.7,1.675,1.675,0,0,1-1.061.911A4.739,4.739,0,0,1,217.385,217.2Zm-2.758-6.575c0,.107-.044,1.291.016,2.543.11,2.3.448,2.828.588,2.95a3.792,3.792,0,0,0,2.154.522c1.109,0,1.947-.313,2.133-.8a22.081,22.081,0,0,0,1.009-6.325,26.388,26.388,0,0,0-.031-2.934,3.6,3.6,0,0,0-.25-1.378,9.464,9.464,0,0,0-3.037-.555c-.658,0-1.482.108-1.674.622A32.5,32.5,0,0,0,214.626,210.629Z" transform="translate(-129.023 -134.969)" fill="#2e353a"/>
      <path id="Path_3646" data-name="Path 3646" d="M204.087,215.917s-.19,4.951.706,5.723,4.323.958,4.727-.386,1.277-10.64.616-10.982-4.57-1.254-5.124.213A32.261,32.261,0,0,0,204.087,215.917Z" transform="translate(-124.631 -137.425)" fill="#fff"/>
      <path id="Path_3646_-_Outline" data-name="Path 3646 - Outline" d="M206.973,222.3h0a4.487,4.487,0,0,1-2.583-.67,2.4,2.4,0,0,1-.581-1.38,14.8,14.8,0,0,1-.205-1.97c-.064-1.331-.017-2.584-.017-2.6s0-.01,0-.015a31.848,31.848,0,0,1,.941-5.505c.248-.656.993-.989,2.214-.989a9.49,9.49,0,0,1,3.3.626c.177.092.272.3.329.727a9.949,9.949,0,0,1,.062,1.192c0,.88-.047,2.079-.149,3.466a45.981,45.981,0,0,1-.718,5.927,1.531,1.531,0,0,1-1.009.94A4.578,4.578,0,0,1,206.973,222.3Zm-2.827-6.588c0,.106-.044,1.29.017,2.544.111,2.3.451,2.828.592,2.949a3.984,3.984,0,0,0,2.218.534h0c1.106,0,1.914-.31,2.057-.789a44.939,44.939,0,0,0,.679-5.574c.1-1.328.158-2.5.165-3.391a5.425,5.425,0,0,0-.126-1.706,9.4,9.4,0,0,0-3-.545c-.663,0-1.494.109-1.69.627A31.9,31.9,0,0,0,204.146,215.716Z" transform="translate(-124.412 -137.205)" fill="#2e353a"/>
      <path id="Path_3647" data-name="Path 3647" d="M219.517,185.08a9.767,9.767,0,0,1-1.5,6.289c-2.744,3.987-9.067,3.847-9.067,3.847l-.274.963a8.327,8.327,0,0,1-1.238,2.2,19.942,19.942,0,0,1,3.987-.56,2.979,2.979,0,0,1,2.884,2.75c.14,1.238.274,1.787-1.372,2.2s-8.243,2.475-9.207,2.615c-.874.123-2.431-1.344-2.8-3.679.3-3.59,1.3-7.135,1.3-10.747a7.279,7.279,0,0,1,1.288-3.506" transform="translate(-123.25 -126.603)" fill="#fff"/>
      <path id="Path_3647_-_Outline" data-name="Path 3647 - Outline" d="M203.405,205.442a2.472,2.472,0,0,1-1.7-1.024,5.972,5.972,0,0,1-1.274-2.9.28.28,0,0,1,0-.067c.123-1.494.371-3,.611-4.455a38.954,38.954,0,0,0,.687-6.269c0-.009,0-.017,0-.026a7.573,7.573,0,0,1,1.338-3.641.28.28,0,1,1,.459.322,7.012,7.012,0,0,0-1.237,3.358,39.456,39.456,0,0,1-.695,6.347c-.236,1.434-.48,2.916-.6,4.376.368,2.246,1.831,3.5,2.479,3.413.532-.077,3.008-.812,5.193-1.461,1.686-.5,3.279-.974,3.986-1.149.669-.166,1.025-.352,1.155-.6a2.227,2.227,0,0,0,.023-1.143l-.017-.147s0-.007,0-.01a2.694,2.694,0,0,0-2.6-2.491,19.7,19.7,0,0,0-3.922.552.28.28,0,0,1-.287-.445,8.038,8.038,0,0,0,1.192-2.111l.271-.952a.28.28,0,0,1,.275-.2,15.075,15.075,0,0,0,3.446-.424,9.025,9.025,0,0,0,5.381-3.3,9.521,9.521,0,0,0,1.456-6.105.28.28,0,0,1,.557-.058,10.082,10.082,0,0,1-1.544,6.469l0,.007a7.814,7.814,0,0,1-2.668,2.369,12.04,12.04,0,0,1-3.059,1.163,15.889,15.889,0,0,1-3.359.436l-.217.76c0,.008,0,.015-.007.022a8.6,8.6,0,0,1-.843,1.661,20.274,20.274,0,0,1,3.32-.4h.019a3.253,3.253,0,0,1,3.155,3l.016.141a2.548,2.548,0,0,1-.082,1.464c-.213.412-.667.678-1.517.889-.694.172-2.281.643-3.961,1.142-2.31.686-4.7,1.395-5.273,1.478A1.046,1.046,0,0,1,203.405,205.442Z" transform="translate(-123.03 -126.383)" fill="#2e353a"/>
      <path id="Path_3648" data-name="Path 3648" d="M233.16,179.88a11.275,11.275,0,0,1,.381,1.6" transform="translate(-137.431 -124.315)" fill="#fff"/>
      <path id="Path_3648_-_Outline" data-name="Path 3648 - Outline" d="M233.32,181.542a.28.28,0,0,1-.276-.235,11.037,11.037,0,0,0-.371-1.562.28.28,0,1,1,.534-.169,11.605,11.605,0,0,1,.39,1.641.281.281,0,0,1-.277.325Z" transform="translate(-137.211 -124.095)" fill="#2e353a"/>
      <path id="Line_106" data-name="Line 106" d="M-.22,5a.28.28,0,0,1-.28-.28V-.22A.28.28,0,0,1-.22-.5a.28.28,0,0,1,.28.28V4.725A.28.28,0,0,1-.22,5Z" transform="translate(94.163 45.889)" fill="#2e353a"/>
      <path id="Line_107" data-name="Line 107" d="M-.22,2.121a.28.28,0,0,1-.28-.28V-.22A.28.28,0,0,1-.22-.5a.28.28,0,0,1,.28.28V1.841A.28.28,0,0,1-.22,2.121Z" transform="translate(95.535 48.365)" fill="#2e353a"/>
      <path id="Path_3649" data-name="Path 3649" d="M213.75,199.685a.28.28,0,0,1-.28-.28h0a7.3,7.3,0,0,0-1.557-4.337.28.28,0,1,1,.414-.377,7.739,7.739,0,0,1,1.7,4.713A.28.28,0,0,1,213.75,199.685Z" transform="translate(-128.05 -130.792)" fill="#2e353a"/>
      <path id="Path_3650" data-name="Path 3650" d="M208.1,209.459a.28.28,0,0,1-.085-.547,11.152,11.152,0,0,1,2.252-.471.28.28,0,1,1,.057.557,10.591,10.591,0,0,0-2.139.447A.279.279,0,0,1,208.1,209.459Z" transform="translate(-126.281 -136.881)" fill="#2e353a"/>
      <path id="Path_3651" data-name="Path 3651" d="M217.66,214.164a1.215,1.215,0,0,1-.977-.369,4.028,4.028,0,0,1-.914-2.445.5.5,0,0,1,.266-.368,11.232,11.232,0,0,1,1.932-.559,5.831,5.831,0,0,1,1.932-.2l.52.168a.14.14,0,0,1-.086.267l-.521-.168a5.574,5.574,0,0,0-1.785.207,11.222,11.222,0,0,0-1.867.536.223.223,0,0,0-.116.176,3.844,3.844,0,0,0,.857,2.208c.375.46,1.434.21,1.81.074a.14.14,0,0,1,.095.263A3.813,3.813,0,0,1,217.66,214.164Z" transform="translate(-129.77 -137.651)" fill="#2e353a"/>
      <path id="Path_3652" data-name="Path 3652" d="M234.12,81.16v47.349H210.84V81.16" transform="translate(-127.61 -80.88)" fill="#4b57d6"/>
      <path id="Path_3652_-_Outline" data-name="Path 3652 - Outline" d="M233.9,128.569H210.62a.28.28,0,0,1-.28-.28V80.94a.28.28,0,0,1,.56,0v47.069h22.72V80.94a.28.28,0,0,1,.56,0v47.349A.28.28,0,0,1,233.9,128.569Z" transform="translate(-127.39 -80.66)" fill="#2e353a"/>
      <circle id="Ellipse_180" data-name="Ellipse 180" cx="1.064" cy="1.064" r="1.064" transform="translate(102.819 43.093)" fill="#fff"/>
      <path id="Ellipse_180_-_Outline" data-name="Ellipse 180 - Outline" d="M.844-.5A1.344,1.344,0,1,1-.5.844,1.346,1.346,0,0,1,.844-.5Zm0,2.128A.784.784,0,1,0,.06.844.785.785,0,0,0,.844,1.628Z" transform="translate(103.039 43.313)" fill="#2e353a"/>
      <path id="Path_3653" data-name="Path 3653" d="M165.723,350.9a3.248,3.248,0,0,1-1.8,1.8,12.635,12.635,0,0,0-2.453.75c-2.2,1.238-7.689.14-11.676.56s-9.341-3.982-9.341-3.982l-15.815.868v-15.68s16.487.689,20.06-.683,7.555-4.262,9.341-4.122,16.487,1.786,16.487,1.786Z" transform="translate(-89.684 -190.546)" fill="#fff"/>
      <path id="Path_3653_-_Outline" data-name="Path 3653 - Outline" d="M157.448,354.126c-.856,0-1.756-.036-2.708-.074s-1.953-.078-2.9-.078a21.438,21.438,0,0,0-2.23.1,5.592,5.592,0,0,1-.582.03,12.453,12.453,0,0,1-6-2.043,25.777,25.777,0,0,1-2.878-1.961l-15.707.862a.28.28,0,0,1-.3-.28V335a.28.28,0,0,1,.292-.28c.041,0,4.186.173,8.706.173,5.927,0,9.815-.29,11.241-.838a40.842,40.842,0,0,0,4.406-2.134c2.022-1.079,3.769-2.012,4.906-2.012.052,0,.1,0,.152.006,1.771.139,16.349,1.771,16.5,1.787a.28.28,0,0,1,.24.348l-4.8,18.7a.266.266,0,0,1-.011.034,3.545,3.545,0,0,1-1.953,1.959,4.49,4.49,0,0,1-.871.228,4.843,4.843,0,0,0-1.55.507A8.292,8.292,0,0,1,157.448,354.126Zm-5.612-.713c.963,0,1.962.04,2.927.079.946.038,1.84.074,2.685.074a7.85,7.85,0,0,0,3.667-.575,5.388,5.388,0,0,1,1.718-.569,4.044,4.044,0,0,0,.765-.2,2.984,2.984,0,0,0,1.639-1.632l4.72-18.369c-2.162-.242-14.543-1.623-16.157-1.75-.034,0-.071,0-.108,0-1,0-2.768.945-4.642,1.946a41.217,41.217,0,0,1-4.469,2.162c-1.511.58-5.361.875-11.442.875-3.842,0-7.414-.123-8.438-.162v15.094l15.52-.852a.281.281,0,0,1,.193.063,25.093,25.093,0,0,0,2.9,1.984,12.091,12.091,0,0,0,5.712,1.962,4.992,4.992,0,0,0,.523-.027A21.981,21.981,0,0,1,151.836,353.413Z" transform="translate(-89.464 -190.326)" fill="#2e353a"/>
      <path id="Path_3654" data-name="Path 3654" d="M190.778,254.084a16.593,16.593,0,1,1-18.318,14.667h0a16.588,16.588,0,0,1,18.313-14.661Zm-3.293,29.726a13.317,13.317,0,1,0-11.76-14.712h0A13.323,13.323,0,0,0,187.485,283.81Z" transform="translate(-110.679 -156.921)" fill="#fff"/>
      <path id="Path_3654_-_Outline" data-name="Path 3654 - Outline" d="M188.707,253.487a17.093,17.093,0,0,1,1.822.1.279.279,0,0,1,.059,0,16.874,16.874,0,0,1-1.836,33.646,17.126,17.126,0,0,1-1.877-.1,16.871,16.871,0,0,1,1.83-33.64Zm1.845.662-.031,0a16.542,16.542,0,0,0-1.814-.1h0a16.311,16.311,0,0,0-1.769,32.523,16.582,16.582,0,0,0,1.815.1,16.314,16.314,0,0,0,1.827-32.523Zm-1.829,2.606a13.775,13.775,0,0,1,1.523.085,13.6,13.6,0,0,1-1.49,27.112,13.8,13.8,0,0,1-1.522-.085,13.6,13.6,0,0,1,1.489-27.112Zm.033,26.637a13.038,13.038,0,0,0,1.428-26,13.222,13.222,0,0,0-1.461-.082,13.038,13.038,0,0,0-1.427,26A13.244,13.244,0,0,0,188.756,283.393Z" transform="translate(-110.458 -156.701)" fill="#2e353a"/>
      <path id="Path_3655" data-name="Path 3655" d="M190.958,252.389A16.588,16.588,0,1,1,172.64,267.05a16.588,16.588,0,0,1,18.318-14.661Zm-3.293,29.726A13.317,13.317,0,1,0,175.9,267.4h0a13.317,13.317,0,0,0,11.76,14.7Z" transform="translate(-110.758 -156.173)" fill="#fff"/>
      <path id="Path_3655_-_Outline" data-name="Path 3655 - Outline" d="M188.887,251.786a17.1,17.1,0,0,1,1.881.1,16.869,16.869,0,0,1-1.842,33.634,17.116,17.116,0,0,1-1.878-.1,16.869,16.869,0,0,1,1.837-33.634Zm.04,33.178a16.308,16.308,0,0,0,1.78-32.517,16.547,16.547,0,0,0-1.819-.1h0a16.308,16.308,0,0,0-1.776,32.518A16.569,16.569,0,0,0,188.927,284.965Zm-.025-29.9h0a13.8,13.8,0,0,1,1.523.085,13.6,13.6,0,0,1-1.49,27.112,13.8,13.8,0,0,1-1.522-.085.278.278,0,0,1-.077-.02,13.592,13.592,0,0,1,1.565-27.092Zm.034,26.637a13.038,13.038,0,0,0,1.428-26,13.279,13.279,0,0,0-1.461-.082,13.032,13.032,0,0,0-1.427,25.984.277.277,0,0,1,.076.019A13.225,13.225,0,0,0,188.936,281.7Z" transform="translate(-110.537 -155.953)" fill="#2e353a"/>
      <rect id="Rectangle_3097" data-name="Rectangle 3097" width="14.796" height="4.015" rx="2.008" transform="translate(72.766 144.038) rotate(-83.68)" fill="#4b57d6"/>
      <path id="Rectangle_3097_-_Outline" data-name="Rectangle 3097 - Outline" d="M1.893,0h11.57a1.9,1.9,0,0,1,1.893,1.893v.79a1.9,1.9,0,0,1-1.893,1.893H1.893A1.9,1.9,0,0,1,0,2.682v-.79A1.9,1.9,0,0,1,1.893,0Zm11.57,4.015A1.334,1.334,0,0,0,14.8,2.682v-.79A1.334,1.334,0,0,0,13.463.56H1.893A1.334,1.334,0,0,0,.56,1.893v.79A1.334,1.334,0,0,0,1.893,4.015Z" transform="translate(72.457 144.286) rotate(-83.68)" fill="#2e353a"/>
      <path id="Path_3656" data-name="Path 3656" d="M188.712,357.785H188.6a3.528,3.528,0,0,1-3.119-3.92L188,331.128a2.755,2.755,0,0,1,3.047-2.442l1.68.185a2.761,2.761,0,0,1,2.442,3.046l-2.514,22.765a3.539,3.539,0,0,1-3.92,3.119Z" transform="translate(-116.442 -189.78)" fill="#2e353a"/>
      <path id="Path_3656_-_Outline" data-name="Path 3656 - Outline" d="M188.913,357.885a3.841,3.841,0,0,1-.435-.025.279.279,0,0,1-.064-.015h-.033l-.031,0a3.808,3.808,0,0,1-3.367-4.231l2.514-22.735a3.035,3.035,0,0,1,3.356-2.689l1.68.185a3.044,3.044,0,0,1,2.689,3.355l-2.514,22.765a3.794,3.794,0,0,1-1.417,2.561A3.834,3.834,0,0,1,188.913,357.885Zm-.3-.574c.1.009.2.014.3.014a3.272,3.272,0,0,0,2.029-.709,3.238,3.238,0,0,0,1.209-2.185l2.514-22.764a2.484,2.484,0,0,0-2.194-2.737l-1.68-.185a2.475,2.475,0,0,0-2.738,2.193l-2.515,22.737a3.248,3.248,0,0,0,2.857,3.609h.1A.28.28,0,0,1,188.61,357.311Z" transform="translate(-116.222 -189.56)" fill="#2e353a"/>
      <path id="Path_3657" data-name="Path 3657" d="M189.909,362.89s3.976.151,4.536.834.459,3.086-.622,3.36c-2.75.728-8.613.3-8.837-.19s-.706-3.36.51-3.668A29.121,29.121,0,0,1,189.909,362.89Z" transform="translate(-116.11 -204.836)" fill="#fff"/>
      <path id="Path_3657_-_Outline" data-name="Path 3657 - Outline" d="M189.686,362.39h.013c.041,0,1.02.04,2.082.163,2.006.232,2.479.553,2.66.774a2.343,2.343,0,0,1,.388,1.228,4,4,0,0,1-.167,1.477,1.509,1.509,0,0,1-.989,1.1,17.48,17.48,0,0,1-4.137.4,28.351,28.351,0,0,1-3.254-.179,9.184,9.184,0,0,1-1.114-.192c-.391-.1-.581-.208-.656-.374a5.488,5.488,0,0,1-.06-3.393,1.158,1.158,0,0,1,.755-.662l.026-.005A29.488,29.488,0,0,1,189.686,362.39Zm-.15,4.584a16.938,16.938,0,0,0,4-.38h0c.336-.085.518-.5.6-.737a2.87,2.87,0,0,0-.122-2.175c-.046-.057-.375-.35-2.291-.573-1-.116-1.956-.156-2.035-.159a28.929,28.929,0,0,0-4.35.331.608.608,0,0,0-.376.359,5.071,5.071,0,0,0,.049,2.88,5.381,5.381,0,0,0,1.5.3A28.112,28.112,0,0,0,189.536,366.974Z" transform="translate(-115.889 -204.616)" fill="#2e353a"/>
      <path id="Path_3658" data-name="Path 3658" d="M191.447,352.987s4.631-.179,5.354.655.868,3.954-.358,4.424c-3.114,1.193-10.12.728-10.433.112s-1.014-3.814.358-4.329A30.447,30.447,0,0,1,191.447,352.987Z" transform="translate(-116.483 -200.472)" fill="#fff"/>
      <path id="Path_3658_-_Outline" data-name="Path 3658 - Outline" d="M192.251,352.471a24.116,24.116,0,0,1,2.535.119,3.257,3.257,0,0,1,2.008.65,4.725,4.725,0,0,1,.49,3.547,1.754,1.754,0,0,1-.96,1.322,18.326,18.326,0,0,1-5.745.759,26.119,26.119,0,0,1-3.283-.19,8.236,8.236,0,0,1-1.1-.208c-.373-.1-.567-.219-.651-.383a6.4,6.4,0,0,1-.292-3.863,1.389,1.389,0,0,1,.8-.855,30.073,30.073,0,0,1,5.152-.879h.015C191.235,352.487,191.648,352.471,192.251,352.471Zm-1.672,5.836a17.114,17.114,0,0,0,5.544-.722,1.3,1.3,0,0,0,.617-.935,4.3,4.3,0,0,0-.37-3.044c-.241-.278-1.449-.575-4.119-.575-.548,0-.945.014-1,.016a30.094,30.094,0,0,0-5,.845.845.845,0,0,0-.476.533,5.9,5.9,0,0,0,.258,3.384,4.45,4.45,0,0,0,1.472.329A26.207,26.207,0,0,0,190.579,358.307Z" transform="translate(-116.264 -200.252)" fill="#2e353a"/>
      <path id="Path_3659" data-name="Path 3659" d="M192.389,341.758s4.951-.185,5.723.706.924,4.228-.381,4.727c-3.36,1.282-10.64,1.277-10.982.622s-1.26-4.575.207-5.13A32.262,32.262,0,0,1,192.389,341.758Z" transform="translate(-116.748 -195.532)" fill="#fff"/>
      <path id="Path_3659_-_Outline" data-name="Path 3659 - Outline" d="M193.216,341.242a26.159,26.159,0,0,1,2.726.126,3.523,3.523,0,0,1,2.162.691,5.027,5.027,0,0,1,.518,3.776,1.85,1.85,0,0,1-1.011,1.4,25.5,25.5,0,0,1-7.805,1.075,18.837,18.837,0,0,1-2.286-.117c-.936-.12-1.148-.3-1.238-.468a8.009,8.009,0,0,1-.525-2.012,5.79,5.79,0,0,1,.1-2.656,1.368,1.368,0,0,1,.783-.853,31.858,31.858,0,0,1,5.505-.941h.016C192.176,341.257,192.6,341.242,193.216,341.242Zm-3.41,6.5a24.928,24.928,0,0,0,7.606-1.038,1.4,1.4,0,0,0,.667-1.009,4.613,4.613,0,0,0-.4-3.273c-.262-.3-1.573-.625-4.465-.625-.563,0-.969.013-1.029.015a31.908,31.908,0,0,0-5.351.906.827.827,0,0,0-.458.529,5.133,5.133,0,0,0-.068,2.374,7.954,7.954,0,0,0,.457,1.815A8.745,8.745,0,0,0,189.806,347.746Z" transform="translate(-116.527 -195.312)" fill="#2e353a"/>
      <path id="Path_3660" data-name="Path 3660" d="M197.477,331.287s4.951-.19,5.723.7.958,4.329-.386,4.732-10.64,1.271-10.982.616-1.254-4.575.213-5.124A32.862,32.862,0,0,1,197.477,331.287Z" transform="translate(-118.985 -190.924)" fill="#fff"/>
      <path id="Path_3660_-_Outline" data-name="Path 3660 - Outline" d="M198.345,330.77a25.84,25.84,0,0,1,2.71.126,3.481,3.481,0,0,1,2.137.687,5.167,5.167,0,0,1,.5,3.943,1.649,1.649,0,0,1-1.016,1.241,59.9,59.9,0,0,1-9.291.865,10.854,10.854,0,0,1-1.26-.057c-.446-.055-.666-.151-.76-.331a7.989,7.989,0,0,1-.523-2.012,5.78,5.78,0,0,1,.1-2.654,1.365,1.365,0,0,1,.785-.85,32.439,32.439,0,0,1,5.5-.94h.016C197.265,330.786,197.7,330.77,198.345,330.77Zm-4.961,6.3a60.472,60.472,0,0,0,9.13-.841c.353-.106.542-.526.639-.861a4.749,4.749,0,0,0-.384-3.42c-.26-.3-1.56-.621-4.425-.621-.583,0-1.007.014-1.069.017a32.51,32.51,0,0,0-5.353.907.823.823,0,0,0-.458.526,5.122,5.122,0,0,0-.071,2.371,8.124,8.124,0,0,0,.447,1.8A4.965,4.965,0,0,0,193.383,337.072Z" transform="translate(-118.765 -190.704)" fill="#2e353a"/>
      <path id="Path_3661" data-name="Path 3661" d="M168,346.745a9.393,9.393,0,0,0,5.516-1.529c3.987-2.75,3.847-9.067,3.847-9.067l.963-.274a8.328,8.328,0,0,0,2.2-1.238,19.9,19.9,0,0,0-.56,3.982,2.985,2.985,0,0,0,2.75,2.89c1.238.134,1.786.274,2.2-1.378s2.47-8.243,2.61-9.2-1.344-2.436-3.679-2.8c-3.59.3-7.135,1.3-10.747,1.3a7.325,7.325,0,0,0-3.506,1.282" transform="translate(-108.761 -189.543)" fill="#fff"/>
      <path id="Path_3661_-_Outline" data-name="Path 3661 - Outline" d="M168.156,346.812q-.193,0-.387-.008a.28.28,0,1,1,.022-.56,8.1,8.1,0,0,0,8.652-6.879,15.01,15.01,0,0,0,.421-3.43.28.28,0,0,1,.2-.275l.952-.271a8.038,8.038,0,0,0,2.111-1.192.28.28,0,0,1,.445.287,19.656,19.656,0,0,0-.552,3.916,2.7,2.7,0,0,0,2.491,2.609h.008l.161.018a2.2,2.2,0,0,0,1.133-.028c.25-.131.437-.488.6-1.157.175-.7.638-2.26,1.127-3.914.656-2.214,1.4-4.723,1.477-5.26a1.776,1.776,0,0,0-.813-1.367,5.479,5.479,0,0,0-2.6-1.111c-1.46.122-2.943.367-4.376.6a39.464,39.464,0,0,1-6.347.695,7.057,7.057,0,0,0-3.359,1.232.28.28,0,0,1-.32-.46,7.617,7.617,0,0,1,3.64-1.331h.026a38.944,38.944,0,0,0,6.269-.687c1.456-.24,2.961-.488,4.455-.611a.28.28,0,0,1,.066,0c2.445.381,4.082,1.96,3.913,3.117-.084.576-.8,3-1.494,5.338-.488,1.648-.949,3.2-1.121,3.891-.213.849-.479,1.3-.888,1.517a2.523,2.523,0,0,1-1.454.089l-.156-.017a3.26,3.26,0,0,1-3-3.16c0-.006,0-.013,0-.019a20.22,20.22,0,0,1,.4-3.315,8.6,8.6,0,0,1-1.661.843l-.022.007-.76.217a15.874,15.874,0,0,1-.436,3.356,12.045,12.045,0,0,1-1.163,3.059,7.831,7.831,0,0,1-2.369,2.67l-.006,0A9.614,9.614,0,0,1,168.156,346.812Z" transform="translate(-108.541 -189.323)" fill="#2e353a"/>
      <path id="Path_3662" data-name="Path 3662" d="M161.44,360.36a12.531,12.531,0,0,0,2.4.487" transform="translate(-105.875 -203.723)" fill="#fff"/>
      <path id="Path_3662_-_Outline" data-name="Path 3662 - Outline" d="M163.623,360.907h-.029a12.833,12.833,0,0,1-2.456-.5.28.28,0,1,1,.164-.535,12.277,12.277,0,0,0,2.349.476.28.28,0,0,1-.028.559Z" transform="translate(-105.655 -203.503)" fill="#2e353a"/>
      <path id="Line_108" data-name="Line 108" d="M4.725.06H-.22A.28.28,0,0,1-.5-.22.28.28,0,0,1-.22-.5H4.725A.28.28,0,0,1,5-.22.28.28,0,0,1,4.725.06Z" transform="translate(45.889 155.07)" fill="#2e353a"/>
      <path id="Line_109" data-name="Line 109" d="M1.841.06H-.22A.28.28,0,0,1-.5-.22.28.28,0,0,1-.22-.5H1.841a.28.28,0,0,1,.28.28A.28.28,0,0,1,1.841.06Z" transform="translate(48.365 156.442)" fill="#2e353a"/>
      <path id="Path_3663" data-name="Path 3663" d="M180.965,341.23a7.74,7.74,0,0,1-4.713-1.7.28.28,0,0,1,.377-.414,7.277,7.277,0,0,0,4.337,1.557.28.28,0,0,1,0,.56Z" transform="translate(-112.352 -194.343)" fill="#2e353a"/>
      <path id="Path_3664" data-name="Path 3664" d="M190.28,337.765l-.029,0a.28.28,0,0,1-.25-.307,11.156,11.156,0,0,1,.471-2.252.28.28,0,0,1,.533.171,10.593,10.593,0,0,0-.447,2.139A.28.28,0,0,1,190.28,337.765Z" transform="translate(-118.441 -192.57)" fill="#2e353a"/>
      <path id="Path_3665" data-name="Path 3665" d="M192.091,347.705a.14.14,0,0,1-.133-.1l-.174-.521a5.825,5.825,0,0,1,.2-1.93,11.057,11.057,0,0,1,.559-1.935.5.5,0,0,1,.368-.266,4.027,4.027,0,0,1,2.445.914c.707.577.183,2.059.161,2.122a.14.14,0,0,1-.263-.095c.135-.376.385-1.435-.074-1.81a3.844,3.844,0,0,0-2.208-.857.223.223,0,0,0-.176.116A11.564,11.564,0,0,0,192.05,347l.174.521a.14.14,0,0,1-.089.177A.142.142,0,0,1,192.091,347.705Z" transform="translate(-119.211 -196.059)" fill="#2e353a"/>
      <path id="Path_3666" data-name="Path 3666" d="M62.72,361.32h47.349V338.04H62.72" transform="translate(-62.44 -193.903)" fill="#4b57d6"/>
      <path id="Path_3666_-_Outline" data-name="Path 3666 - Outline" d="M109.849,361.38H62.5a.28.28,0,1,1,0-.56h47.069V338.1H62.5a.28.28,0,1,1,0-.56h47.349a.28.28,0,0,1,.28.28V361.1A.28.28,0,0,1,109.849,361.38Z" transform="translate(-62.22 -193.683)" fill="#2e353a"/>
      <path id="Path_3667" data-name="Path 3667" d="M139.17,374.084a1.064,1.064,0,1,0,1.064-1.064h0A1.064,1.064,0,0,0,139.17,374.084Z" transform="translate(-96.077 -209.293)" fill="#fff"/>
      <path id="Path_3667_-_Outline" data-name="Path 3667 - Outline" d="M140.014,372.52a1.344,1.344,0,1,1-1.344,1.344A1.346,1.346,0,0,1,140.014,372.52Zm0,2.128a.784.784,0,1,0-.784-.784A.785.785,0,0,0,140.014,374.648Z" transform="translate(-95.857 -209.073)" fill="#2e353a"/>
    </g>
  </g>
</svg>
